<svg width="357" height="315" viewBox="0 0 357 315" fill="none" xmlns="http://www.w3.org/2000/svg">
<path d="M122.875 313.995C122.68 313.93 122.55 313.8 122.42 313.605C122.29 313.476 122.226 313.216 122.226 313.021C122.226 312.761 122.355 312.501 122.55 312.307C122.745 312.112 123.005 311.982 123.265 311.982H128.265V306.916C128.265 306.786 128.265 306.591 128.33 306.462C128.395 306.332 128.46 306.202 128.525 306.072C128.59 306.007 128.72 305.877 128.85 305.812C128.98 305.747 129.11 305.747 129.239 305.747C129.369 305.747 129.499 305.812 129.629 305.812C129.759 305.877 129.889 305.942 129.954 306.072C130.019 306.202 130.149 306.332 130.149 306.462C130.214 306.591 130.214 306.721 130.214 306.916V313.995H123.135C123.135 314.06 123.005 313.995 122.875 313.995Z" fill="#110580"/>
<path d="M19.6133 313.865C19.4185 313.8 19.2885 313.67 19.1586 313.476C19.0287 313.346 18.9639 313.151 18.9639 312.891C18.9639 312.761 18.9639 312.631 19.0289 312.501C19.0938 312.372 19.1586 312.242 19.2236 312.177C19.2885 312.047 19.4184 311.982 19.5483 311.917C19.6782 311.852 19.8081 311.852 19.938 311.852H32.8619C33.1217 311.852 33.3815 311.982 33.5764 312.177C33.7712 312.372 33.9011 312.631 33.9011 312.891C33.9011 313.021 33.901 313.151 33.8361 313.281C33.7711 313.411 33.7063 313.541 33.6414 313.606C33.5764 313.671 33.4466 313.736 33.3167 313.865C33.1868 313.93 33.0568 313.93 32.9269 313.93H20.003C19.8732 313.995 19.7432 313.93 19.6133 313.865ZM45.3961 313.865C45.2013 313.8 45.0065 313.605 44.8767 313.411C44.7468 313.216 44.7467 312.956 44.8116 312.761C44.8766 312.501 45.0065 312.307 45.1364 312.177C45.3312 312.047 45.526 311.917 45.7858 311.917H58.7097C58.9695 311.917 59.2293 312.047 59.3592 312.242C59.554 312.437 59.6192 312.696 59.6192 312.956C59.6192 313.216 59.554 313.476 59.3592 313.671C59.1643 313.866 58.9695 313.995 58.7097 313.995H45.8508C45.7209 313.995 45.526 313.995 45.3961 313.865ZM71.2442 313.865C71.0494 313.8 70.8543 313.605 70.7244 313.411C70.5946 313.216 70.5948 312.956 70.6597 312.761C70.7247 312.501 70.8546 312.307 70.9845 312.177C71.1793 312.047 71.3741 311.917 71.6339 311.917H84.5578C84.6877 311.917 84.8174 311.917 85.0122 311.982C85.1421 312.047 85.2721 312.112 85.402 312.242C85.5318 312.307 85.5967 312.437 85.6617 312.567C85.7266 312.696 85.7267 312.826 85.7267 312.956C85.7267 313.086 85.7266 313.216 85.6617 313.346C85.5967 313.476 85.5318 313.606 85.402 313.671C85.2721 313.736 85.1421 313.8 85.0122 313.865C84.8823 313.93 84.7526 313.93 84.5578 313.93H71.6339C71.504 313.995 71.3741 313.995 71.2442 313.865ZM97.027 313.865C96.8321 313.8 96.6374 313.605 96.5075 313.411C96.3776 313.216 96.3776 312.956 96.4425 312.761C96.5075 312.501 96.6374 312.307 96.8323 312.177C97.0271 312.047 97.2219 311.917 97.4817 311.917H110.406C110.665 311.917 110.925 312.047 111.12 312.242C111.315 312.437 111.445 312.696 111.445 312.956C111.445 313.216 111.315 313.476 111.12 313.671C110.925 313.866 110.665 313.995 110.406 313.995H97.4817C97.3518 313.995 97.1568 313.995 97.027 313.865Z" fill="#110580"/>
<path d="M0 313.995V306.916C0 306.656 0.129889 306.332 0.324722 306.202C0.519556 306.072 0.779397 305.877 1.03918 305.877C1.29895 305.877 1.55879 306.007 1.75363 306.202C1.94846 306.397 2.07835 306.656 2.07835 306.916V311.982H7.1439C7.40367 311.982 7.66351 312.112 7.85835 312.306C8.05318 312.501 8.18307 312.761 8.18307 313.021C8.18307 313.281 8.05318 313.54 7.85835 313.735C7.66351 313.93 7.40367 314.06 7.1439 314.06H0V313.995Z" fill="#110580"/>
<path d="M0.649445 295.811C0.454611 295.746 0.324913 295.616 0.195024 295.421C0.0651348 295.291 0 295.031 0 294.837V282.822C0 282.562 0.129889 282.302 0.324722 282.107C0.519556 281.913 0.779397 281.783 1.03918 281.783C1.16906 281.783 1.29902 281.848 1.42891 281.848C1.55879 281.913 1.68868 281.977 1.75363 282.042C1.81857 282.172 1.94833 282.302 1.94833 282.367C2.01328 282.497 2.01334 282.627 2.01334 282.757V294.772C2.01334 294.901 1.94827 295.096 1.88333 295.226C1.81838 295.356 1.68849 295.486 1.5586 295.551C1.42872 295.616 1.23407 295.681 1.10418 295.681C0.974294 295.876 0.779334 295.876 0.649445 295.811ZM0.649445 271.716C0.454611 271.651 0.324913 271.521 0.195024 271.326C0.0651348 271.197 0 271.002 0 270.807V258.727C0 258.468 0.129889 258.273 0.324722 258.078C0.519556 257.948 0.779397 257.818 1.03918 257.818C1.29895 257.818 1.55879 257.883 1.75363 258.078C1.94846 258.273 2.07835 258.468 2.07835 258.727V270.807C2.07835 271.067 1.94846 271.326 1.75363 271.521C1.55879 271.716 1.29895 271.846 1.03918 271.846C0.909286 271.781 0.779334 271.781 0.649445 271.716ZM0.714453 247.687C0.519619 247.622 0.389604 247.492 0.259715 247.362C0.129826 247.232 0.0650079 246.972 0.0650079 246.778V234.698C0.0650079 234.438 0.194897 234.178 0.38973 233.983C0.584564 233.789 0.844405 233.659 1.10418 233.659C1.36396 233.659 1.6238 233.724 1.81864 233.983C2.01347 234.178 2.14336 234.438 2.14336 234.698V246.778C2.14336 246.907 2.07829 247.102 2.01334 247.232C1.9484 247.362 1.81851 247.492 1.68862 247.622C1.55873 247.687 1.36377 247.752 1.23388 247.752C1.03905 247.752 0.844342 247.752 0.714453 247.687Z" fill="#110580"/>
<path d="M0.714386 223.592C0.519553 223.527 0.389537 223.397 0.259648 223.202C0.129759 223.072 0.0649414 222.878 0.0649414 222.683V215.539H7.14383C7.27372 215.539 7.40367 215.539 7.53356 215.604C7.66345 215.669 7.79334 215.734 7.85828 215.799C7.92322 215.864 8.05299 215.994 8.05299 216.123C8.11793 216.253 8.118 216.383 8.118 216.513C8.118 216.643 8.11793 216.773 8.05299 216.903C7.98804 217.033 7.92322 217.163 7.85828 217.228C7.79334 217.293 7.66345 217.422 7.53356 217.422C7.40367 217.487 7.27372 217.487 7.14383 217.487H2.14329V222.553C2.14329 222.683 2.14323 222.813 2.07828 222.943C2.01334 223.073 1.9482 223.202 1.88326 223.267C1.81832 223.332 1.68843 223.462 1.55854 223.462C1.42865 223.527 1.29901 223.527 1.16912 223.527C0.974291 223.722 0.844275 223.657 0.714386 223.592Z" fill="#110580"/>
<path d="M19.6787 217.552C19.4838 217.487 19.2888 217.293 19.1589 217.098C19.029 216.903 19.029 216.643 19.0939 216.383C19.1588 216.123 19.2887 215.929 19.4186 215.799C19.6135 215.669 19.8083 215.539 20.0681 215.539H32.9923C33.2521 215.539 33.5118 215.669 33.6417 215.864C33.8366 216.059 33.9014 216.318 33.9014 216.578C33.9014 216.838 33.8366 217.098 33.6417 217.292C33.4469 217.487 33.2521 217.617 32.9923 217.617H20.0681C19.9382 217.617 19.8085 217.617 19.6787 217.552ZM45.4614 217.552C45.2666 217.487 45.0719 217.293 44.942 217.098C44.8121 216.903 44.8121 216.643 44.877 216.383C44.9419 216.123 45.0718 215.929 45.2017 215.799C45.3966 215.669 45.5914 215.539 45.8512 215.539H58.7751C58.9049 215.539 59.035 215.539 59.2298 215.604C59.3597 215.669 59.4896 215.734 59.6195 215.799C59.7494 215.864 59.8143 215.994 59.8792 216.123C59.9442 216.253 59.9442 216.383 59.9442 216.513C59.9442 216.643 59.9442 216.773 59.8792 216.903C59.8143 217.033 59.7494 217.163 59.6195 217.228C59.4896 217.293 59.3597 217.422 59.2298 217.422C59.0999 217.487 58.9699 217.487 58.7751 217.487H45.8512C45.7862 217.617 45.5913 217.617 45.4614 217.552ZM71.3095 217.552C71.1147 217.487 70.9847 217.358 70.8548 217.163C70.7249 217.033 70.6601 216.838 70.6601 216.643C70.6601 216.513 70.6598 216.383 70.7248 216.254C70.7897 216.124 70.8549 215.994 70.9198 215.929C70.9847 215.864 71.1146 215.734 71.2445 215.734C71.3744 215.669 71.5044 215.669 71.6343 215.669H84.5581C84.8179 215.669 85.0777 215.799 85.2076 215.993C85.4024 216.188 85.4673 216.448 85.4673 216.708C85.4673 216.968 85.4024 217.228 85.2076 217.422C85.0128 217.617 84.8179 217.747 84.5581 217.747H71.6343C71.5693 217.682 71.4394 217.617 71.3095 217.552ZM97.0923 217.552C96.8975 217.487 96.7678 217.358 96.6379 217.163C96.508 216.968 96.4429 216.838 96.4429 216.643C96.4429 216.383 96.5728 216.124 96.7676 215.929C96.9624 215.734 97.2223 215.604 97.482 215.604H110.406C110.666 215.604 110.926 215.734 111.12 215.929C111.315 216.124 111.445 216.383 111.445 216.643C111.445 216.903 111.315 217.163 111.12 217.357C110.926 217.552 110.666 217.682 110.406 217.682H97.482C97.3521 217.682 97.2222 217.617 97.0923 217.552Z" fill="#110580"/>
<path d="M128.98 223.722C128.785 223.657 128.655 223.527 128.525 223.332C128.395 223.203 128.33 223.008 128.33 222.813V217.747H123.33C123.2 217.747 123.07 217.747 122.875 217.682C122.68 217.617 122.615 217.552 122.485 217.487C122.355 217.423 122.291 217.293 122.226 217.163C122.161 217.033 122.161 216.903 122.161 216.773C122.161 216.643 122.161 216.513 122.226 216.383C122.291 216.253 122.355 216.123 122.485 216.059C122.615 215.994 122.745 215.864 122.875 215.864C123.005 215.864 123.135 215.799 123.33 215.799H130.409V222.943C130.409 223.138 130.344 223.268 130.279 223.397C130.214 223.527 130.084 223.657 129.954 223.787C129.824 223.852 129.629 223.917 129.499 223.917C129.304 223.787 129.11 223.787 128.98 223.722Z" fill="#110580"/>
<path d="M128.98 295.875C128.785 295.81 128.655 295.681 128.525 295.486C128.395 295.291 128.33 295.161 128.33 294.901V282.822C128.33 282.562 128.46 282.302 128.655 282.107C128.85 281.912 129.109 281.782 129.369 281.782C129.629 281.782 129.889 281.912 130.084 282.107C130.279 282.302 130.408 282.562 130.408 282.822V294.836C130.408 294.966 130.343 295.161 130.278 295.291C130.213 295.421 130.084 295.551 129.954 295.681C129.824 295.745 129.629 295.811 129.499 295.811C129.304 295.94 129.109 295.875 128.98 295.875ZM128.98 271.781C128.785 271.716 128.655 271.586 128.525 271.391C128.395 271.261 128.33 271.067 128.33 270.807V258.792C128.33 258.662 128.33 258.467 128.395 258.337C128.46 258.208 128.525 258.078 128.59 257.948C128.655 257.883 128.785 257.753 128.915 257.688C129.044 257.623 129.174 257.623 129.304 257.623C129.434 257.623 129.564 257.688 129.694 257.688C129.824 257.753 129.954 257.818 130.019 257.948C130.084 258.078 130.213 258.208 130.213 258.337C130.278 258.467 130.278 258.597 130.278 258.792V270.807C130.278 271.067 130.149 271.326 129.954 271.521C129.759 271.716 129.499 271.846 129.239 271.846C129.239 271.911 129.109 271.846 128.98 271.781ZM128.98 247.752C128.785 247.687 128.655 247.557 128.525 247.362C128.395 247.232 128.33 246.972 128.33 246.777V234.698C128.33 234.438 128.46 234.178 128.655 234.048C128.85 233.853 129.109 233.789 129.369 233.789C129.629 233.789 129.889 233.853 130.084 234.048C130.279 234.178 130.408 234.438 130.408 234.698V246.712C130.408 246.842 130.408 246.972 130.343 247.102C130.278 247.232 130.213 247.362 130.148 247.427C130.083 247.492 129.954 247.622 129.824 247.687C129.694 247.752 129.564 247.752 129.434 247.752C129.239 247.817 129.109 247.817 128.98 247.752Z" fill="#110580"/>
<path d="M354.143 81.7539H212.824C207.173 81.7539 201.718 84.0268 197.691 88.0533C193.665 92.0799 191.457 97.5355 191.457 103.251H191.392C191.392 97.5355 189.119 92.0799 185.157 88.0533C181.131 84.0268 175.74 81.7539 170.025 81.7539H28.7059C27.9915 81.7539 27.2771 82.0785 26.7576 82.5981C26.238 83.1176 25.9131 83.8321 25.9131 84.6114V262.689C25.9131 263.404 26.238 264.118 26.7576 264.702C27.2771 265.222 27.9915 265.482 28.7059 265.482H174.506C176.065 268.469 178.403 270.872 181.26 272.626C184.118 274.314 187.365 275.224 190.742 275.288H192.171C195.483 275.288 198.73 274.379 201.653 272.626C204.511 270.937 206.849 268.469 208.472 265.547H354.207C354.922 265.547 355.636 265.222 356.156 264.702C356.675 264.183 357 263.469 357 262.689V84.6764C357 84.2867 356.935 83.8969 356.805 83.5722C356.675 83.2475 356.481 82.9228 356.221 82.6631C355.961 82.4033 355.636 82.2085 355.312 82.0136C354.857 81.8837 354.468 81.7539 354.143 81.7539Z" fill="#4E53BA"/>
<path d="M343.491 89.0919H210.745C205.614 89.0919 200.679 91.1053 197.107 94.7422C193.47 98.3791 191.457 103.315 191.457 108.446H191.392C191.392 105.913 190.872 103.38 189.898 101.042C188.924 98.7036 187.495 96.5606 185.741 94.7422C183.923 92.9237 181.845 91.4949 179.507 90.5208C177.169 89.5466 174.636 89.0269 172.103 89.0269H39.3565C39.0318 89.0269 38.7071 89.092 38.3823 89.2219C38.0576 89.3518 37.798 89.5465 37.5382 89.7413C37.2784 90.0011 37.1483 90.2611 37.0184 90.5858C36.8885 90.9105 36.8237 91.2352 36.8237 91.5599V252.362C36.8237 252.687 36.8885 253.012 37.0184 253.336C37.1483 253.661 37.3433 253.921 37.5382 254.181C37.798 254.441 38.0576 254.635 38.3823 254.765C38.7071 254.895 39.0318 254.96 39.3565 254.96H176.13C177.558 257.623 179.702 259.831 182.234 261.325C184.832 262.883 187.755 263.728 190.742 263.728H192.041C195.029 263.728 197.951 262.883 200.549 261.325C203.147 259.766 205.225 257.558 206.654 254.96H343.427C344.076 254.96 344.725 254.701 345.18 254.246C345.635 253.791 345.895 253.142 345.895 252.427V91.5599C345.895 91.2352 345.83 90.9105 345.7 90.5858C345.57 90.2611 345.375 90.0011 345.18 89.7413C344.92 89.4815 344.661 89.3518 344.336 89.2219C344.141 89.1569 343.816 89.0919 343.491 89.0919Z" fill="#32378F"/>
<path d="M212.044 62.8545H339.27C339.984 62.8545 340.699 63.1144 341.154 63.634C341.673 64.1535 341.933 64.8029 341.933 65.5173V247.946C341.933 248.661 341.673 249.375 341.154 249.895C340.634 250.414 339.984 250.674 339.27 250.674H201.718C200.354 250.674 199.055 250.414 197.756 249.895C196.522 249.375 195.353 248.596 194.444 247.687C193.47 246.712 192.755 245.608 192.236 244.309C191.716 243.075 191.457 241.712 191.457 240.348V83.5067C191.457 77.9864 193.6 72.7259 197.496 68.8942C201.328 64.9975 206.588 62.8545 212.044 62.8545Z" fill="#F5F5FA"/>
<path d="M181.13 250.674H43.6428C42.9284 250.674 42.2141 250.414 41.7594 249.895C41.2399 249.375 40.98 248.661 40.98 247.946V65.5173C40.98 64.8029 41.2399 64.0886 41.7594 63.634C42.279 63.1144 42.9284 62.8545 43.6428 62.8545H170.869C176.324 62.8545 181.585 65.0625 185.481 68.8942C189.378 72.7909 191.521 78.0514 191.521 83.5067V240.348C191.521 241.712 191.262 243.075 190.742 244.309C190.222 245.608 189.443 246.712 188.534 247.687C187.56 248.661 186.456 249.375 185.222 249.96C183.793 250.414 182.494 250.739 181.13 250.674Z" fill="white"/>
<path d="M70.7896 152.933C76.5697 152.933 81.2458 148.257 81.2458 142.412C81.2458 136.567 76.5697 131.891 70.7896 131.891C65.0096 131.891 60.3335 136.567 60.3335 142.412C60.3335 148.257 65.0096 152.933 70.7896 152.933Z" fill="#E8E8F7"/>
<path d="M164.569 135.333H92.7411C91.5071 135.333 90.5327 136.307 90.5327 137.541C90.5327 138.775 91.5071 139.749 92.7411 139.749H164.569C165.803 139.749 166.778 138.775 166.778 137.541C166.778 136.307 165.738 135.333 164.569 135.333Z" fill="#E8E8F7"/>
<path d="M142.293 145.464H92.6758C91.4419 145.464 90.4678 146.438 90.4678 147.672C90.4678 148.906 91.4419 149.88 92.6758 149.88H142.293C143.527 149.88 144.501 148.906 144.501 147.672C144.501 146.503 143.527 145.464 142.293 145.464Z" fill="#E8E8F7"/>
<path d="M70.7896 224.501C76.5697 224.501 81.2458 219.826 81.2458 213.981C81.2458 208.201 76.5697 203.459 70.7896 203.459C65.0096 203.459 60.3335 208.136 60.3335 213.981C60.3335 219.761 65.0096 224.501 70.7896 224.501Z" fill="#E8E8F7"/>
<path d="M164.569 217.033H92.7411C91.5071 217.033 90.5327 218.007 90.5327 219.241C90.5327 220.475 91.5071 221.449 92.7411 221.449H164.569C165.803 221.449 166.778 220.475 166.778 219.241C166.713 218.007 165.738 217.033 164.569 217.033Z" fill="#E8E8F7"/>
<path d="M142.293 206.901H92.6758C91.4419 206.901 90.4678 207.876 90.4678 209.11C90.4678 210.344 91.4419 211.318 92.6758 211.318H142.293C143.527 211.318 144.501 210.344 144.501 209.11C144.501 207.876 143.527 206.901 142.293 206.901Z" fill="#E8E8F7"/>
<path d="M70.7896 188.717C76.5697 188.717 81.2458 184.041 81.2458 178.196C81.2458 172.416 76.5697 167.675 70.7896 167.675C65.0096 167.675 60.3335 172.351 60.3335 178.196C60.3335 184.041 65.0096 188.717 70.7896 188.717Z" fill="#E8E8F7"/>
<path d="M164.569 181.248H92.7411C91.5071 181.248 90.5327 182.222 90.5327 183.456C90.5327 184.69 91.5071 185.664 92.7411 185.664H164.569C165.803 185.664 166.778 184.69 166.778 183.456C166.778 182.222 165.738 181.248 164.569 181.248Z" fill="#E8E8F7"/>
<path d="M153.399 171.117H92.6758C91.4419 171.117 90.4678 172.091 90.4678 173.325C90.4678 174.559 91.4419 175.533 92.6758 175.533H153.399C154.633 175.533 155.607 174.559 155.607 173.325C155.607 172.091 154.633 171.117 153.399 171.117Z" fill="#E8E8F7"/>
<path d="M223.733 152.933C229.514 152.933 234.19 148.257 234.19 142.412C234.19 136.567 229.514 131.891 223.733 131.891C217.953 131.891 213.277 136.567 213.277 142.412C213.277 148.257 217.953 152.933 223.733 152.933Z" fill="#C5C6E3"/>
<path d="M317.449 181.378H245.62C244.386 181.378 243.412 182.353 243.412 183.586C243.412 184.82 244.386 185.795 245.62 185.795H317.449C318.683 185.795 319.657 184.82 319.657 183.586C319.657 182.353 318.683 181.378 317.449 181.378Z" fill="#C5C6E3"/>
<path d="M295.238 171.182H245.62C244.386 171.182 243.412 172.156 243.412 173.39C243.412 174.624 244.386 175.598 245.62 175.598H295.238C296.472 175.598 297.446 174.624 297.446 173.39C297.446 172.156 296.472 171.182 295.238 171.182Z" fill="#C5C6E3"/>
<path d="M223.733 224.501C229.514 224.501 234.19 219.826 234.19 213.981C234.19 208.201 229.514 203.459 223.733 203.459C217.953 203.459 213.277 208.136 213.277 213.981C213.277 219.761 217.953 224.501 223.733 224.501Z" fill="#C5C6E3"/>
<path d="M317.449 135.333H245.62C244.386 135.333 243.412 136.307 243.412 137.541C243.412 138.775 244.386 139.749 245.62 139.749H317.449C318.683 139.749 319.657 138.775 319.657 137.541C319.657 136.307 318.683 135.333 317.449 135.333Z" fill="#C5C6E3"/>
<path d="M295.238 145.464H245.62C244.386 145.464 243.412 146.438 243.412 147.672C243.412 148.906 244.386 149.88 245.62 149.88H295.238C296.472 149.88 297.446 148.906 297.446 147.672C297.446 146.503 296.472 145.464 295.238 145.464Z" fill="#C5C6E3"/>
<path d="M223.733 188.717C229.514 188.717 234.19 184.041 234.19 178.196C234.19 172.416 229.514 167.675 223.733 167.675C217.953 167.675 213.277 172.351 213.277 178.196C213.277 184.041 217.953 188.717 223.733 188.717Z" fill="#C5C6E3"/>
<path d="M317.449 207.031H245.62C244.386 207.031 243.412 208.005 243.412 209.239C243.412 210.473 244.386 211.447 245.62 211.447H317.449C318.683 211.447 319.657 210.473 319.657 209.239C319.657 208.005 318.683 207.031 317.449 207.031Z" fill="#C5C6E3"/>
<path d="M306.343 217.228H245.62C244.386 217.228 243.412 218.202 243.412 219.436C243.412 220.67 244.386 221.644 245.62 221.644H306.343C307.577 221.644 308.551 220.67 308.551 219.436C308.551 218.202 307.577 217.228 306.343 217.228Z" fill="#C5C6E3"/>
<path d="M127.096 80.7141C121.901 86.689 117.095 92.9886 112.743 99.548C110.47 96.3658 107.028 94.2227 103.261 93.4433C101.118 93.0537 98.3907 93.0537 96.9619 94.4175C96.7022 94.6123 96.4423 94.8722 96.1825 95.1319C94.6238 96.6257 93.8443 99.2883 96.3772 100.912C98.3905 102.146 100.274 102.925 101.768 104.614C103.716 107.017 105.21 109.679 106.314 112.537C108.327 117.213 116.575 117.408 118.394 113.056C122.68 102.925 127.681 93.1185 133.266 83.6366C135.084 80.6492 129.564 77.9215 127.096 80.7141Z" fill="#66A896"/>
<path d="M279.391 79.4808C269.39 85.6506 260.492 93.7684 254.582 103.64C253.089 106.173 253.024 109.68 253.868 112.408C254.387 114.161 255.686 116.694 257.505 114.616C264.844 106.433 272.182 98.6393 281.145 91.95C284.002 89.8068 282.703 77.4026 279.391 79.4808Z" fill="#FF5856"/>
<path d="M252.245 93.5085C261.726 100.717 271.923 105.913 279.132 115.525C280.82 117.798 282.444 115.2 282.899 113.576C283.808 110.459 283.678 107.147 282.444 104.159C277.248 92.9239 265.558 84.6108 253.349 80.909C248.868 79.6101 249.712 91.5601 252.245 93.5085Z" fill="#FF5856"/>
<path d="M166.193 42.0072C166.063 42.0072 165.998 42.0072 165.868 42.0072C165.673 41.9423 165.479 41.8123 165.414 41.6175C165.284 41.4226 165.284 41.2279 165.349 41.033C165.803 39.4744 166.388 37.9156 167.167 36.4219C167.297 36.2271 167.427 36.0974 167.622 36.0325C167.817 35.9676 168.076 35.9673 168.206 36.0972C168.401 36.2271 168.531 36.3571 168.596 36.5519C168.661 36.7468 168.661 37.0065 168.531 37.1364C167.817 38.5002 167.232 39.929 166.842 41.3578C166.777 41.4876 166.713 41.6176 166.583 41.7475C166.518 41.8774 166.388 41.9423 166.193 42.0072Z" fill="#110580"/>
<path d="M299.524 73.3108C299.459 73.3108 299.329 73.3108 299.2 73.3108L298.03 73.051C295.368 72.4016 292.575 71.817 289.653 71.0377C289.458 70.9727 289.328 70.8428 289.198 70.648C289.133 70.4531 289.068 70.2584 289.133 70.0635C289.198 69.8687 289.328 69.6737 289.458 69.6088C289.653 69.4789 289.847 69.4791 290.042 69.4791C292.965 70.2584 295.692 70.9076 298.42 71.4921L299.589 71.7521C299.784 71.8171 299.979 71.9467 300.109 72.1416C300.239 72.3364 300.239 72.5315 300.239 72.7263C300.174 72.8562 300.109 73.0508 299.979 73.1157C299.849 73.2456 299.719 73.3108 299.524 73.3108ZM280.625 68.1802C280.495 68.1802 280.365 68.1802 280.236 68.1802C277.118 67.0761 274.066 65.7773 271.143 64.2835C270.949 64.1536 270.819 64.0236 270.819 63.8288C270.754 63.634 270.819 63.4392 270.884 63.2444C270.949 63.0495 271.144 62.9196 271.338 62.8546C271.533 62.7897 271.728 62.7897 271.923 62.8546C274.78 64.2834 277.768 65.5822 280.82 66.6213C280.95 66.6862 281.015 66.6864 281.08 66.8163C281.145 66.8812 281.21 66.9461 281.275 67.076C281.34 67.141 281.34 67.2709 281.34 67.4007C281.34 67.5306 281.34 67.5956 281.275 67.7255C281.21 67.8554 281.145 67.9852 281.015 68.0502C280.885 68.0502 280.755 68.1153 280.625 68.1802ZM263.415 59.088C263.285 59.088 263.22 59.088 263.09 59.088C262.96 59.088 262.896 59.0229 262.831 58.958C260.168 56.9447 257.765 54.6716 255.622 52.1388C255.492 52.0089 255.427 51.7492 255.427 51.5543C255.427 51.3595 255.557 51.1647 255.687 50.9699C255.817 50.84 256.076 50.7749 256.271 50.7749C256.466 50.7749 256.661 50.9047 256.791 51.0346C258.869 53.5025 261.207 55.7107 263.74 57.6591C263.805 57.724 263.87 57.7889 263.934 57.9188C263.999 57.9837 264 58.1136 264.064 58.2435C264.064 58.3734 264.064 58.4383 264.064 58.5682C264.064 58.6981 263.999 58.763 263.934 58.8279C263.87 58.8929 263.805 58.958 263.675 59.023C263.61 59.023 263.48 59.088 263.415 59.088ZM250.751 44.2804C250.621 44.2804 250.426 44.2804 250.296 44.2154C250.166 44.1505 250.036 44.0206 249.971 43.8907C248.413 40.9682 247.179 37.851 246.27 34.6038C246.27 34.4739 246.205 34.4089 246.27 34.2791C246.27 34.1492 246.335 34.0842 246.335 33.9543C246.4 33.8894 246.465 33.7596 246.529 33.6946C246.594 33.6297 246.724 33.5646 246.789 33.5646C246.984 33.4997 247.244 33.5647 247.374 33.6296C247.568 33.7595 247.698 33.8895 247.763 34.0843C248.608 37.2017 249.842 40.1889 251.335 42.9815C251.465 43.1764 251.465 43.3712 251.4 43.566C251.335 43.7608 251.205 43.9558 251.011 44.0207C250.946 44.2156 250.881 44.2155 250.751 44.2804ZM254.648 33.2399C252.829 33.4997 251.011 33.6295 249.192 33.5646C248.997 33.5646 248.803 33.4997 248.608 33.3049C248.478 33.175 248.348 32.9153 248.348 32.7204C248.348 32.5256 248.413 32.3308 248.608 32.136C248.738 32.0061 248.932 31.876 249.192 31.876C250.946 31.876 252.699 31.811 254.388 31.5513C255.817 31.3564 257.245 31.0968 258.609 30.7071C258.739 30.7071 258.804 30.6422 258.934 30.7071C259.064 30.7071 259.129 30.7722 259.259 30.8371C259.324 30.9021 259.453 30.9669 259.518 31.0318C259.583 31.0968 259.648 31.2266 259.648 31.2915C259.648 31.4214 259.713 31.4864 259.648 31.6163C259.648 31.7462 259.583 31.8111 259.583 31.941C259.518 32.0059 259.453 32.1358 259.388 32.2007C259.323 32.2656 259.194 32.3307 259.129 32.3307C257.635 32.7853 256.141 33.045 254.648 33.2399ZM239.645 32.4607C239.58 32.4607 239.451 32.4607 239.386 32.4607C236.593 31.8762 233.605 31.0969 229.839 29.863C229.644 29.798 229.579 29.6031 229.449 29.4732C229.384 29.2784 229.384 29.0834 229.449 28.9535C229.514 28.7586 229.644 28.6289 229.774 28.4991C229.904 28.3692 230.099 28.369 230.293 28.369C233.995 29.538 236.918 30.3173 239.645 30.9018C239.84 30.9668 240.035 31.032 240.1 31.1618C240.23 31.2917 240.295 31.4864 240.295 31.6813C240.295 31.8761 240.23 32.0708 240.1 32.2007C239.97 32.3955 239.775 32.4607 239.645 32.4607ZM267.831 28.1743C267.701 28.1743 267.572 28.1743 267.442 28.1093C267.312 28.0444 267.182 27.9795 267.117 27.8496C266.987 27.6548 266.922 27.46 266.987 27.2652C266.987 27.0703 267.117 26.8753 267.312 26.7454C268.676 25.7713 269.91 24.6024 270.949 23.3035C271.858 22.1994 272.637 20.9004 273.222 19.6015C273.287 19.4067 273.481 19.277 273.676 19.1471C273.871 19.0822 274.131 19.0822 274.326 19.1471C274.52 19.2121 274.65 19.4067 274.78 19.6015C274.845 19.7964 274.845 20.0561 274.78 20.251C274.131 21.7447 273.287 23.1087 272.248 24.3427C271.079 25.7065 269.78 26.9403 268.351 28.0443C268.091 28.1093 267.961 28.1743 267.831 28.1743ZM245.685 25.4465H245.555C245.425 25.4465 245.36 25.4465 245.231 25.3815C245.101 25.3166 245.036 25.2518 244.971 25.1868C244.906 25.1219 244.841 25.057 244.776 24.9271C244.711 24.8622 244.711 24.7323 244.711 24.6024C244.646 21.2253 245.101 17.848 246.205 14.6657C246.27 14.4709 246.4 14.2762 246.594 14.2113C246.789 14.1463 246.984 14.0813 247.179 14.1463C247.374 14.2112 247.569 14.3412 247.634 14.536C247.699 14.7308 247.763 14.9257 247.698 15.1854C246.724 18.2378 246.205 21.4202 246.27 24.6674C246.27 24.8622 246.205 25.0569 246.075 25.1868C246.01 25.3817 245.88 25.4465 245.685 25.4465ZM220.876 26.8104C220.747 26.8104 220.617 26.8104 220.552 26.8104C219.448 26.4857 218.344 26.096 217.304 25.7713C215.161 25.1218 213.148 24.6023 211.2 24.1476C211.005 24.0827 210.81 23.9528 210.68 23.7579C210.55 23.5631 210.55 23.3683 210.55 23.1735C210.55 23.0436 210.615 22.9787 210.68 22.9138C210.745 22.8488 210.81 22.784 210.94 22.7191C211.005 22.6541 211.135 22.654 211.265 22.589C211.395 22.589 211.46 22.589 211.589 22.589C213.538 23.0437 215.616 23.6282 217.759 24.2777C218.863 24.6024 219.967 24.9272 221.071 25.3168C221.266 25.3818 221.396 25.5117 221.526 25.6416C221.656 25.7715 221.656 25.9662 221.656 26.161C221.656 26.3558 221.591 26.4856 221.461 26.6804C221.201 26.7454 221.071 26.8104 220.876 26.8104ZM174.246 29.9927C174.116 29.9927 173.987 29.9926 173.857 29.9276C173.727 29.8627 173.597 29.7978 173.532 29.6679C173.467 29.603 173.402 29.4732 173.402 29.4082C173.402 29.3433 173.337 29.2134 173.402 29.0835C173.402 28.9536 173.467 28.8887 173.467 28.7588C173.532 28.6938 173.597 28.564 173.662 28.4991C176.259 26.3559 179.117 24.6025 182.234 23.3685C182.299 23.3036 182.429 23.3035 182.559 23.3035C182.689 23.3035 182.754 23.3036 182.884 23.3685C182.949 23.4335 183.079 23.4983 183.144 23.5632C183.209 23.6282 183.274 23.758 183.339 23.8229C183.404 24.0178 183.404 24.2775 183.339 24.4724C183.274 24.6672 183.079 24.7972 182.884 24.9271C179.961 26.0961 177.169 27.7847 174.766 29.7979C174.506 29.9278 174.376 29.9927 174.246 29.9927ZM201.848 22.524C201.783 22.524 201.718 22.524 201.653 22.524C198.47 22.1993 195.223 22.2643 192.041 22.589C191.846 22.589 191.651 22.5242 191.521 22.3943C191.391 22.2645 191.262 22.0694 191.262 21.8746C191.262 21.6798 191.262 21.485 191.392 21.2902C191.522 21.0953 191.651 21.0304 191.846 20.9654C195.158 20.6407 198.471 20.6407 201.783 20.9654C201.978 20.9654 202.172 21.0953 202.302 21.2251C202.432 21.42 202.497 21.6148 202.497 21.8096C202.497 22.0044 202.367 22.1344 202.237 22.2643C202.107 22.4592 201.978 22.589 201.848 22.524ZM275.3 11.0937C275.105 11.0937 274.91 11.0939 274.715 10.964C274.52 10.8342 274.456 10.6391 274.391 10.4443C274.001 7.91146 272.702 5.63847 270.754 4.01486C270.364 3.69014 269.909 3.43048 269.455 3.17071C269.325 3.04082 269.26 2.9108 269.195 2.71597C269.195 2.52113 269.195 2.39137 269.26 2.19654C269.325 2.00171 269.455 1.93676 269.65 1.87182C269.78 1.80687 269.974 1.80681 270.169 1.80681C270.689 2.13153 271.144 2.45625 271.663 2.78098C273.936 4.66437 275.43 7.26208 275.949 10.1846C276.014 10.3794 275.949 10.5742 275.82 10.769C275.625 10.8989 275.43 11.0288 275.3 11.0937ZM252.115 7.3921C251.985 7.3921 251.855 7.39203 251.725 7.32709C251.595 7.26215 251.53 7.19733 251.4 7.13238C251.335 7.06744 251.271 6.9373 251.206 6.87235C251.141 6.74246 251.141 6.67752 251.141 6.54763C251.141 6.41774 251.141 6.3528 251.206 6.22291C251.271 6.09302 251.335 6.02814 251.4 5.96319C253.803 3.56025 256.726 1.7418 260.038 0.767634C260.168 0.767634 260.233 0.702689 260.363 0.767634C260.492 0.767634 260.557 0.832642 260.687 0.832642C260.752 0.897586 260.882 0.962404 260.947 1.02735C261.012 1.09229 261.077 1.22244 261.077 1.28738C261.077 1.41727 261.142 1.48221 261.077 1.6121C261.077 1.74199 261.012 1.80694 261.012 1.93682C260.947 2.00177 260.882 2.13159 260.817 2.19654C260.752 2.26148 260.622 2.32624 260.558 2.32624C257.57 3.23546 254.777 4.85926 252.634 7.06738C252.374 7.32715 252.245 7.3921 252.115 7.3921Z" fill="#110580"/>
<path d="M313.358 77.9221C313.163 77.9221 312.968 77.922 312.773 77.7921C311.474 76.9478 310.111 76.2984 308.682 75.8438C308.552 75.8438 308.487 75.7787 308.357 75.7137C308.292 75.6488 308.227 75.5839 308.162 75.454C308.097 75.3241 308.097 75.2592 308.097 75.1293C308.097 74.9994 308.097 74.9345 308.162 74.8046C308.227 74.6747 308.227 74.6098 308.357 74.5449C308.422 74.4799 308.552 74.4151 308.617 74.3502C308.747 74.2852 308.812 74.2852 308.942 74.2852C309.072 74.2852 309.136 74.2852 309.266 74.3502C310.825 74.8697 312.319 75.519 313.747 76.4282C313.812 76.4931 313.942 76.5583 313.942 76.6232C314.007 76.6882 314.007 76.818 314.072 76.8829C314.072 77.0128 314.072 77.0778 314.072 77.2077C314.072 77.3375 314.007 77.4024 313.942 77.4674C313.877 77.5973 313.812 77.6621 313.682 77.7271C313.553 77.857 313.423 77.9221 313.358 77.9221Z" fill="#110580"/>
</svg>
