<svg width="600" height="600" viewBox="0 0 882 840" fill="none" xmlns="http://www.w3.org/2000/svg">
<g opacity="0.67">
<path d="M209.055 340.954L190.92 346.999L208.718 335.812C208.573 334.105 208.393 332.385 208.176 330.65L198.6 332.492L207.663 326.882C205.59 313.514 200.975 296.737 194.644 279.611L159.345 293.235L193.076 275.45C184.219 252.442 172.385 229.264 159.543 213.28L140.57 226.671L155.697 208.742C144.01 195.744 131.668 189.127 120.089 194.242C106.02 200.459 101.988 230.603 106.319 266.95L115.822 266.781L106.531 268.64C108.529 284.547 112.109 301.572 117.133 318.267L153.371 306.036L118.772 323.549C126.425 347.41 137.029 370.244 150.176 387.743L164.464 373.455L152.856 391.19C163.926 404.947 176.684 414.921 190.92 418.684C190.92 418.684 211.064 384.832 209.055 340.954Z" fill="#03673D"/>
<path d="M192.996 418.684C192.996 418.684 213.14 384.831 211.131 340.954L192.996 346.999L210.794 335.812C210.649 334.105 210.469 332.384 210.252 330.65L200.676 332.492L209.739 326.882C207.666 313.514 203.051 296.736 196.72 279.613L161.421 293.235L195.152 275.452C186.295 252.441 174.461 229.264 161.619 213.28L142.646 226.673L157.773 208.742C146.086 195.744 133.744 189.127 122.165 194.242C122.165 194.242 174.839 319.815 191.972 418.385C192.314 418.481 192.653 418.593 192.996 418.684Z" fill="#04AD66"/>
<path d="M181.668 446.274L168.248 449.406L180.504 442.766C179.243 439.165 177.738 435.409 175.928 431.484C172.201 423.411 166.869 414.174 160.692 405.242L148.619 414.416L157.124 400.243C138.399 374.862 113.785 354.341 101.684 374.308C96.71 382.513 96.3818 395.576 99.8165 410.261L127.284 409.297L100.803 414.151C103.545 424.172 107.947 434.79 113.749 445.042L123.019 440.872L115.032 447.261C121.146 457.642 128.694 467.561 137.398 475.998L156.299 455.381L140.011 478.455C151.46 488.884 164.76 496.709 179.342 499.756C179.342 499.756 192.614 481.14 181.668 446.274Z" fill="#10794D"/>
<path d="M178.26 499.506C178.622 499.588 178.981 499.68 179.345 499.755C179.345 499.755 192.618 481.139 181.671 446.275L168.25 449.407L180.507 442.767C179.246 439.165 177.741 435.409 175.93 431.485C172.205 423.412 166.872 414.175 160.695 405.241L148.622 414.417L157.126 400.244C139.477 376.317 116.597 356.727 103.893 371.28C114.068 385.002 156.941 444.438 178.26 499.506Z" fill="#04AD66"/>
<path d="M140.343 484.605C132.851 477.528 119.483 468.84 103.964 460.855C97.2336 470.798 89.7205 482.028 88.4275 484.488C88.2429 484.927 88.1741 485.078 88.2576 484.852C88.2869 484.768 88.346 484.644 88.4275 484.488C89.5157 481.909 94.7831 468.924 99.0504 458.387C89.7404 453.818 79.8291 449.574 70.0519 446.112L64.7303 471.361L67.182 445.117C36.6919 434.774 8.26335 432.54 4.64257 452.567C3.64176 458.102 5.58261 464.252 9.74223 470.689C21.4286 470.005 38.3339 468.908 38.3339 468.908L13.6875 476.07C22.7267 487.208 37.5762 498.914 54.794 509.611L69.585 480.904L57.4948 511.264C75.6299 522.266 96.1025 532.081 115.034 538.944C116.64 531.864 117.814 526.734 117.814 526.734L118.053 540.015C121.697 541.288 125.273 542.442 128.756 543.471L130.322 537.348L131.349 544.216C148.69 549.079 163.435 550.595 171.883 547.069C171.883 547.069 178.601 520.745 140.343 484.605Z" fill="#007248"/>
<path d="M245.356 295.596C263.626 250.59 288.616 241.195 298.828 242.124C315.762 239.896 316.652 269.417 314.98 284.456H289.358L314.98 289.469C314.534 313.531 308.11 339.227 304.954 349.068L273.205 342.941L304.954 353.524C296.933 383.824 284.902 411.823 279.889 422.034L247.583 406.995L278.218 425.376L274.319 432.06L265.407 430.389L273.205 434.288C259.392 462.361 233.658 473.835 222.518 476.063C213.161 464.923 210.45 443.572 210.264 434.288L226.974 430.389H210.264C208.482 414.348 213.977 386.572 216.948 374.69L229.759 380.26L217.505 371.905L219.176 366.335L246.469 374.69L221.404 359.094C224.078 343.498 237 312.863 243.127 299.495L260.394 301.723L245.356 295.596Z" fill="#096B42"/>
<path d="M273.474 435.233C259.372 463.021 233.726 474.807 222.666 477.227C239.256 362.754 283.152 272.959 303.025 242.37C316.712 244.859 317.023 272.094 315.468 285.401L290.064 284.364L315.468 289.03C313.809 316.404 308.555 340.875 306.136 349.689L271.919 342.43L304.581 353.318C296.7 387.328 284.707 413.458 279.695 422.271L248.07 406.718L278.658 425.382L274.511 432.64L265.697 430.567L273.474 435.233Z" fill="#0EA867"/>
<path fill-rule="evenodd" clip-rule="evenodd" d="M205.607 637.193C205.607 637.195 205.607 637.196 204.941 637.152L205.607 637.196C205.583 637.547 205.291 637.82 204.939 637.818C204.587 637.817 204.297 637.543 204.276 637.191C201.709 594.115 184.724 561.149 162.662 536.094C140.941 512.505 115.317 495.138 90.0277 482.374C90.056 482.328 90.085 482.281 90.1145 482.234C73.3425 473.894 58.9328 468.651 50.6018 465.62L50.6007 465.619C48.6945 464.926 47.1065 464.348 45.8814 463.875C30.7495 458.856 16.84 455.367 5.33036 452.964C5.34355 452.86 5.35335 452.755 5.36315 452.65C5.37898 452.48 5.39481 452.311 5.42488 452.143C9.01305 432.832 37.3098 435.013 67.6638 445.014L65.3039 469.74C65.3256 469.749 65.3472 469.757 65.3689 469.766L70.5212 445.975C80.2554 449.324 90.1238 453.426 99.3958 457.839C95.9496 466.097 91.8528 475.901 89.8596 480.621C90.1827 480.781 90.5068 480.941 90.8317 481.103C93.6644 476.697 99.5567 468.091 104.953 460.282C120.6 468.168 134.078 476.745 141.632 483.729C180.208 519.398 173.455 545.356 173.455 545.356C173.08 545.509 172.69 545.649 172.287 545.779C188.627 567.429 201.005 594.249 204.762 627.325C204.998 621.493 205.255 613.212 205.376 602.913C205.628 581.413 205.285 551.12 202.901 515.953C198.133 445.609 185.204 355.811 152.582 277.882C152.44 277.543 152.6 277.152 152.94 277.01C153.28 276.868 153.67 277.028 153.812 277.368C186.515 355.492 199.459 445.457 204.231 515.863C206.618 551.071 206.962 581.4 206.709 602.928C206.583 613.693 206.307 622.257 206.063 628.131C205.941 631.069 205.827 633.334 205.744 634.865C205.702 635.63 205.668 636.213 205.644 636.604C205.636 636.735 205.629 636.844 205.624 636.932L205.616 637.046L205.609 637.158L205.607 637.186L205.607 637.193Z" fill="#128E5A"/>
<path d="M131.549 410.15C131.549 410.15 204.94 512.556 204.94 637.151C216.036 419.538 272.437 300.955 272.437 300.955" stroke="#014D2D" stroke-miterlimit="10" stroke-linecap="round" stroke-linejoin="round"/>
<path d="M228.91 602.692H170.044C170.044 602.692 154.195 728.176 205.138 742.741C256.079 757.306 228.91 602.692 228.91 602.692Z" fill="#F52D29"/>
<path d="M239.259 602.692H184.067C184.067 602.692 171.579 728.176 211.716 742.741C275.55 749.931 239.259 602.692 239.259 602.692Z" fill="#F80700"/>
</g>
<path d="M702.5 746.242H641.2C639.2 746.242 637.5 744.642 637.5 742.542V739.642C637.5 737.642 639.1 735.942 641.2 735.942H702.5C704.5 735.942 706.2 737.542 706.2 739.642V742.542C706.1 744.642 704.4 746.242 702.5 746.242Z" fill="#B7B7C4"/>
<path d="M681.2 573.642H662.3V736.142H681.2V573.642Z" fill="#735639"/>
<path d="M688.3 297.142L704.8 295.542L708.1 327.942C708.1 327.942 703.5 329.542 698.6 329.742C693.7 330.042 689.1 329.742 689.1 329.742L688.3 297.142Z" fill="#0C0454"/>
<path d="M625.9 249.142C620.5 260.342 608.5 309.042 608.5 309.042C608.1 310.042 608.5 311.242 609.5 311.942C612.6 314.142 620 320.942 634.4 325.542C641.4 327.742 658.5 330.642 666.3 330.042C667.7 329.942 668.8 328.642 668.8 328.642L676.8 217.042C643.1 215.342 629.1 242.542 625.9 249.142Z" fill="#306DDF"/>
<path d="M639 311.942C633.5 311.942 629.1 304.242 629.1 294.442C629.1 284.642 633.4 276.942 639 276.942C644.5 276.942 648.9 284.642 648.9 294.442C648.9 304.342 644.5 311.942 639 311.942ZM639 279.342C634.9 279.342 631.6 286.242 631.6 294.542C631.6 302.742 635 309.742 639 309.742C643 309.742 646.4 302.842 646.4 294.542C646.5 286.242 643.1 279.342 639 279.342Z" fill="white"/>
<path d="M677 315.342C705 315.342 727.8 293.942 727.8 267.442C727.8 241.042 705.1 219.542 677 219.542C648.9 219.542 626.2 240.942 626.2 267.442C626.2 293.942 648.9 315.342 677 315.342Z" fill="#FCB58A"/>
<path d="M699.4 310.342C698.6 291.442 697.6 267.242 697.6 266.542C697.6 266.542 686.9 263.642 680.7 257.942C678.8 256.142 677.4 254.242 676.5 252.542C677.2 255.242 678.5 258.142 681 261.142C686.5 267.442 694.8 271.942 694.8 271.942C694.7 272.642 695.5 293.942 694.4 312.342C696.3 311.742 697.8 311.142 699.4 310.342Z" fill="#E3996D"/>
<path d="M812.7 621.742C785.6 621.742 763.6 622.742 763.5 623.942C763.6 625.142 785.6 626.142 812.7 626.142C839.7 626.142 861.8 625.142 861.9 623.942C861.8 622.642 839.9 621.742 812.7 621.742ZM813.9 625.442C793.6 625.442 777.1 624.742 777.1 623.842C777.1 622.942 793.6 622.242 813.9 622.242C834.2 622.242 850.7 622.942 850.7 623.842C850.7 624.742 834.2 625.442 813.9 625.442Z" fill="#E8D4C1"/>
<path d="M812.7 621.742C785.5 621.742 763.5 622.742 763.5 623.942C763.5 625.142 785.5 626.142 812.7 626.142C839.9 626.142 861.9 625.142 861.9 623.942C861.9 622.742 839.9 621.742 812.7 621.742ZM813.9 625.442C793.6 625.442 777.1 624.742 777.1 623.842C777.1 622.942 793.6 622.242 813.9 622.242C834.2 622.242 850.7 622.942 850.7 623.842C850.7 624.742 834.2 625.442 813.9 625.442Z" fill="#E8D4C1"/>
<path d="M813.9 625.442C834.2 625.442 850.7 624.742 850.7 623.842C850.7 622.942 834.2 622.242 813.9 622.242C793.6 622.242 777.1 622.942 777.1 623.842C777.1 624.742 793.5 625.442 813.9 625.442Z" fill="#BA9C7E"/>
<path d="M840.9 436.542C830.4 461.542 822.9 487.742 818.6 514.542C814.4 541.342 813.2 568.542 815.3 595.642C816.5 610.842 818.7 625.842 821.9 640.742C822.5 643.442 826.6 642.342 826 639.642C820.3 613.342 817.9 586.542 818.6 559.642C819.3 532.942 823.2 506.242 830.2 480.442C834.1 465.842 839.1 451.542 845 437.642C845.5 436.642 844.5 435.242 843.5 435.042C842.3 434.742 841.3 435.442 840.9 436.542Z" fill="#4C7378"/>
<path d="M842.3 549.542C831.8 572.342 825.5 596.942 823.8 621.942C823.3 628.942 823.2 635.942 823.5 642.942C823.6 645.642 827.9 645.642 827.7 642.942C826.8 618.542 830.4 594.042 838.2 570.942C840.4 564.442 843 557.942 845.9 551.642C847.1 549.242 843.4 547.042 842.3 549.542Z" fill="#4C7378"/>
<path d="M788.7 442.142C795.4 465.342 800.2 489.042 803.7 512.942C807.2 536.742 809.5 560.842 811.3 584.842C812.3 598.442 813.3 612.042 814.1 625.742C814.3 628.442 818.5 628.442 818.3 625.742C816.7 601.542 815.1 577.242 812.7 553.042C810.3 528.942 807.1 504.842 802.4 481.042C799.7 467.542 796.5 454.242 792.7 441.042C792 438.342 788 439.442 788.7 442.142Z" fill="#4C7378"/>
<path d="M763.8 511.842C769.6 517.742 773.2 525.342 776.3 532.942C779.8 541.342 782.8 549.842 785.4 558.542C790.6 575.742 794.4 593.342 796.3 611.242C797.4 621.242 798 631.342 798.1 641.442C798.1 644.142 802.3 644.142 802.3 641.442C802.2 623.042 800.3 604.642 796.7 586.542C793.2 568.542 787.9 550.742 781 533.642C777.4 524.742 773.5 515.842 766.6 508.842C764.9 506.842 761.8 509.842 763.8 511.842Z" fill="#4C7378"/>
<path d="M793.1 596.242C790 592.342 786 589.742 782.8 588.442C779.5 587.142 776.9 587.142 776.1 587.942C775.3 588.842 775.5 591.342 776.6 594.442C777.7 597.542 779.6 601.342 782.4 604.742C785.2 608.242 788.5 610.742 791.5 612.442C794.4 614.142 796.9 614.842 797.6 614.442C798.5 613.842 799 611.342 798.4 607.842C798 604.442 796.3 600.042 793.1 596.242Z" fill="#4C7378"/>
<path d="M806.6 567.342C809.2 554.542 806.8 543.342 804.4 542.942C802 542.542 795.8 552.042 793.2 564.642C790.7 577.242 793.3 588.542 795 588.942C797.1 589.442 804 580.242 806.6 567.342Z" fill="#689399"/>
<path d="M795.1 588.842C797.8 586.142 791.4 575.542 780.9 565.242C770.4 554.942 759.7 548.742 757.1 551.442C754.4 554.142 760.8 564.742 771.3 575.042C781.7 585.342 792.4 591.542 795.1 588.842Z" fill="#4C7378"/>
<path d="M814.599 604.142C815.799 598.842 816.5 593.642 816.8 588.942C817.1 584.242 816.9 579.942 816.5 576.442C815.7 569.242 814 564.942 812.8 564.942C811.6 564.942 809.9 569.142 807.9 575.742C806.9 579.042 805.8 582.942 804.8 587.142C803.7 591.442 802.5 596.142 801.4 601.042C800.2 605.942 799.2 610.742 798.4 615.042C797.5 619.342 796.8 623.442 796.2 626.842C795.1 633.642 794.799 638.242 795.599 638.642C796.599 639.142 800 635.942 804 629.942C806 626.942 808 623.142 809.9 618.842C811.6 614.342 813.299 609.442 814.599 604.142Z" fill="#57848A"/>
<path d="M842.4 609.442C846.5 602.242 849.5 595.342 851.2 589.942C853 584.542 853.4 580.842 852.4 580.142C851.4 579.442 848.1 581.342 843.9 585.242C839.7 589.142 834.7 595.142 830.5 602.542C826.3 609.942 823.8 617.442 822.7 623.042C822.1 625.842 821.9 628.242 821.9 629.942C821.9 630.442 821.699 631.142 822.099 632.042C822.199 632.242 822.3 632.442 822.4 632.542C822.5 632.742 822.899 632.942 823.099 633.042C823.599 633.142 823.899 633.042 824.099 632.942C824.499 632.642 824.799 632.242 824.599 631.942C824.499 631.642 824.3 631.742 824.2 631.742C824.1 631.842 824.1 631.842 824 631.842C823.9 631.942 824.1 631.842 824 631.842C824 631.842 823.9 631.842 823.9 631.742C823.8 631.642 823.8 631.542 823.8 631.542C823.8 631.542 823.8 631.642 823.8 631.842C823.8 631.842 823.8 631.842 823.8 631.942L824.099 631.742C824.099 631.742 824.1 631.742 824.2 631.742C824.3 631.742 824.599 631.642 825.099 631.842H825.2H825.3H825.4C825.5 631.842 825.499 631.842 825.599 631.742C826.999 630.742 828.6 629.042 830.4 626.942C833.9 622.742 838.4 616.542 842.4 609.442Z" fill="#57848A"/>
<path d="M831.599 577.042C830.599 567.942 828.3 559.942 826 554.342C823.7 548.742 821.5 545.342 820.3 545.542C819.1 545.742 818 549.642 817.4 555.642C816.9 561.642 816.9 569.842 817.9 578.642C818.4 583.042 819.1 587.242 820 590.942C820.9 594.742 821.8 598.042 822.4 600.742C823.1 603.442 823.599 605.742 824.099 607.442C824.499 609.042 824.9 610.142 825.3 610.242C825.8 610.342 826.8 609.742 827.8 608.142C828.8 606.542 830 604.042 830.7 600.842C831.5 597.642 831.9 593.942 832 589.942C832.2 586.042 832.099 581.642 831.599 577.042Z" fill="#4C7378"/>
<path d="M775 533.242C769.7 528.142 764 524.642 759.4 522.642C754.8 520.642 751.5 520.142 750.7 521.142C750 522.042 751.2 525.242 753.8 529.242C756.4 533.342 760.5 538.342 765.5 543.142C770.6 547.942 775.899 551.642 780.099 554.042C784.299 556.442 787.5 557.542 788.2 556.942C789.1 556.242 788.4 552.842 786.2 548.342C784.2 543.842 780.4 538.342 775 533.242Z" fill="#689399"/>
<path d="M767.1 498.542C760.8 487.342 751.6 480.942 749.5 482.242C747.5 483.442 749 494.442 755.1 505.342C761.2 516.242 770.3 522.942 771.9 522.142C773.9 521.042 773.4 509.742 767.1 498.542Z" fill="#4C7378"/>
<path d="M790.5 519.942C789.4 512.342 786.7 505.742 784 501.442C781.3 497.042 778.6 494.842 777.5 495.342C776.4 495.742 775.8 499.042 775.7 503.942C775.6 508.742 776 515.142 776.9 521.942C777.9 528.842 779.4 534.942 780.9 539.542C782.4 544.142 783.9 547.242 784.8 547.242C785.9 547.342 787.8 544.442 789.3 539.542C790.7 534.542 791.6 527.442 790.5 519.942Z" fill="#57848A"/>
<path d="M860.401 561.842C866.701 557.542 872 552.942 875.6 549.142C879.2 545.342 881.201 542.342 880.501 541.242C879.901 540.242 876.3 540.242 871.2 541.742C866 543.142 859.3 546.042 852.7 550.542C846.1 555.042 841.101 560.442 837.901 564.742C834.801 569.142 833.501 572.442 834.001 573.142C834.701 574.042 838.2 573.242 843.1 571.342C848 569.442 854.201 566.142 860.401 561.842Z" fill="#689399"/>
<path d="M864.2 528.442C868.6 519.242 871.1 510.242 872 503.542C873 496.842 872.6 492.442 871.5 492.042C870.4 491.642 867.5 494.942 863.9 500.442C860.3 506.042 856 513.742 851.8 522.442C847.6 531.242 844.5 539.542 842.5 545.842C840.5 552.142 839.8 556.442 840.5 556.942C841.4 557.542 845.1 555.042 849.7 550.042C854.4 545.142 859.8 537.642 864.2 528.442Z" fill="#4C7378"/>
<path d="M852.2 530.542C855.1 514.342 854.5 500.642 850.8 500.042C847.1 499.342 841.7 511.942 838.7 528.142C835.8 544.342 836.4 558.042 840.1 558.642C843.8 559.242 849.2 546.742 852.2 530.542Z" fill="#689399"/>
<path d="M856.4 421.542C860.1 413.642 862.7 406.142 864.2 400.342C865.7 394.642 866 390.642 864.9 390.042C863.9 389.442 860.6 391.742 856.5 396.242C852.4 400.742 847.7 407.442 843.9 415.642C840 423.842 838 431.742 837.2 437.742C836.4 443.742 836.7 447.742 837.5 448.042C838.5 448.442 841.4 445.642 844.9 440.942C848.5 436.242 852.7 429.442 856.4 421.542Z" fill="#689399"/>
<path d="M845.9 421.542C846.4 413.342 846.2 405.842 845.4 400.142C844.7 394.542 843.5 390.942 842.3 390.742C841.1 390.542 838.9 393.642 836.8 399.042C834.7 404.442 832.7 411.942 832.2 420.542C831.6 429.142 832.7 436.942 834.2 442.542C835.6 448.142 837.5 451.542 838.4 451.542C839.5 451.542 841.1 448.042 842.6 442.642C844 437.142 845.3 429.742 845.9 421.542Z" fill="#4C7378"/>
<path d="M855.7 460.742C858.2 456.642 860.3 452.542 861.8 448.742C863.3 444.842 864.4 441.342 865.1 438.142C866.4 431.942 866.101 427.842 865.001 427.342C863.901 426.842 861 429.742 857.2 434.542C855.4 436.942 853.201 439.742 851.001 442.942C848.801 446.142 846.4 449.642 844.1 453.442C841.7 457.142 839.6 460.842 837.7 464.242C835.8 467.642 834.201 470.742 832.901 473.542C830.301 479.042 828.9 482.842 829.6 483.442C830.4 484.142 834.2 482.642 839.3 478.842C841.8 476.942 844.701 474.442 847.501 471.442C850.401 468.442 853.2 464.842 855.7 460.742Z" fill="#689399"/>
<path d="M825.001 455.442C824.201 451.342 823.4 447.442 822.6 444.042C822.3 442.242 821.801 440.642 821.501 439.042C821.301 438.242 821.101 437.542 821.001 436.742C820.901 436.042 820.701 435.342 820.501 434.642C819.301 429.242 818.301 425.542 817.001 425.342C815.901 425.142 813.5 428.342 811.8 434.442C811.6 435.142 811.4 436.042 811.2 436.842C811 437.742 810.9 438.542 810.8 439.342C810.5 441.142 810.4 443.042 810.3 445.042C810.2 449.042 810.6 453.442 811.3 457.842C813 466.742 816.1 474.042 818.7 479.242C821.4 484.442 823.701 487.542 824.501 487.442C825.601 487.242 826.7 483.442 826.9 477.542C827.3 471.642 826.501 463.742 825.001 455.442Z" fill="#4C7378"/>
<path d="M844.6 499.942C849.4 493.242 852.6 486.442 854.3 481.142C856 475.842 856.1 472.142 855 471.542C854 470.942 850.9 472.942 846.9 476.542C842.9 480.242 838.1 485.542 833.4 491.942C828.8 498.242 825.3 504.642 823.1 509.642C820.9 514.642 820 518.142 820.7 518.742C821.6 519.442 825 518.142 829.5 515.042C834.2 511.842 839.8 506.642 844.6 499.942Z" fill="#57848A"/>
<path d="M791.501 429.342C787.601 421.242 782.7 414.942 778.6 410.742C774.5 406.542 771.2 404.542 770.2 405.142C769.2 405.742 769.5 409.542 771.2 415.142C772.8 420.742 775.6 427.842 779.2 435.242C781 438.942 782.7 442.342 784.4 445.542C785.2 447.142 786 448.642 786.8 449.942C787.6 451.342 788.301 452.642 789.001 453.842C791.701 458.642 793.8 461.842 794.7 461.742C795.7 461.642 797.1 457.842 797.1 451.842C797.1 450.342 797 448.642 796.8 446.942C796.6 445.142 796.3 443.342 795.8 441.342C794.8 437.542 793.401 433.442 791.501 429.342Z" fill="#4C7378"/>
<path d="M791.2 459.042C781.6 446.942 770 440.442 768.2 442.142C766.4 443.742 771.1 455.842 780.5 467.642C789.8 479.442 801.1 486.342 802.5 485.242C804.3 484.042 800.8 471.142 791.2 459.042Z" fill="#4C7378"/>
<path d="M796.4 486.142C792.7 482.242 788.6 479.242 785.2 477.342C781.8 475.442 779.099 474.742 778.099 475.442C777.199 476.142 777.2 479.042 778.5 482.842C779.8 486.642 782.4 491.442 786.5 495.542C790.6 499.742 795.3 502.442 799 503.842C802.8 505.242 805.7 505.342 806.3 504.742C807 503.842 806.4 501.142 804.7 497.642C802.9 494.242 800.2 490.042 796.4 486.142Z" fill="#689399"/>
<path d="M803.9 522.542C799.5 514.442 794.8 507.342 791.1 502.242C787.4 497.242 784.4 494.242 783.5 494.642C782.6 494.942 782.7 498.842 784.2 504.842C785.7 510.742 788.6 518.842 793.2 527.142C797.8 535.442 803.2 542.342 807.6 547.042C812 551.742 815.5 554.342 816.2 553.942C817.1 553.442 816.2 549.742 814 543.942C811.8 538.242 808.4 530.642 803.9 522.542Z" fill="#689399"/>
<path d="M824.501 533.742C824.601 527.642 823.101 522.242 821.401 518.542C819.601 514.842 817.5 512.742 816.3 512.942C815.1 513.142 813.8 515.642 812.8 519.442C811.8 523.242 810.9 528.142 810.8 533.542C810.7 538.942 811.501 543.942 812.501 547.742C813.501 551.542 814.7 554.142 815.6 554.242C816.7 554.442 818.8 552.442 820.8 548.842C822.7 545.142 824.401 539.842 824.501 533.742Z" fill="#4C7378"/>
<path d="M829.9 555.442C832.7 549.342 833.6 543.142 833.5 538.542C833.3 533.942 832.1 531.142 831 530.842C829.8 530.542 827.7 532.742 825.2 536.242C822.7 539.742 820 544.442 817.5 549.842C815 555.242 813.4 560.442 812.5 564.642C811.5 568.842 811.3 571.942 812 572.442C812.9 573.142 815.9 572.142 819.4 569.242C822.9 566.342 827 561.642 829.9 555.442Z" fill="#689399"/>
<path d="M812.001 449.442C812.301 439.542 811.101 430.742 809.501 424.342C807.901 417.942 806 414.142 804.7 414.242C803.5 414.342 802.001 418.342 800.801 424.642C799.601 430.942 798.501 439.642 798.301 449.142C798.001 458.642 798.8 467.342 799.7 473.742C800.7 480.142 801.901 484.242 802.801 484.342C803.901 484.442 806.101 480.742 808.001 474.442C810.001 468.042 811.801 459.242 812.001 449.442Z" fill="#689399"/>
<path d="M861.9 623.942C861.8 625.142 839.8 626.142 812.7 626.142C785.7 626.142 763.6 625.142 763.5 623.942C763.5 624.042 763.5 624.242 763.5 624.442L771.8 712.142L773.2 726.842C773.3 729.442 790.9 731.542 812.7 731.542C834.5 731.542 852.2 729.442 852.2 726.842L852.5 723.742C852.5 723.642 852.5 723.642 852.5 723.542L853.2 716.742L862 624.342C861.9 624.242 861.9 624.042 861.9 623.942Z" fill="#DEC7B2"/>
<path d="M855.8 689.142L856.2 685.242C856.1 685.342 855.9 685.342 855.7 685.342C840.9 690.842 826.2 696.342 811.5 701.842C803 704.942 794.5 708.142 786.1 711.342C784.9 711.842 784.3 713.342 785.3 714.242C793.1 722.142 804.9 722.442 815.1 725.142C818.3 726.042 821.5 727.142 824.2 728.942H829.8C823.3 722.642 813.3 721.142 804.5 719.242C799.4 718.142 794.2 716.742 790 713.642C804.7 708.142 819.3 702.742 834 697.242C841.3 694.542 848.5 691.842 855.8 689.142Z" fill="#EBDBCD"/>
<path d="M817.4 654.142C831.6 650.142 845.9 646.242 860.2 642.342L860.9 635.242C830.5 635.942 800.1 637.242 769.8 639.342C768.2 639.442 766.7 639.542 765.1 639.642L765.4 643.142C791.7 641.342 818 639.942 844.3 639.142C849.3 639.042 854.4 638.842 859.5 638.742C846.2 642.442 833 646.042 819.7 649.742C803 654.342 786.4 659.342 770.8 666.642C769.8 667.142 768.8 667.542 767.9 668.042L768.3 671.842C769.1 671.442 769.9 671.042 770.7 670.642C785.5 663.542 801.4 658.642 817.4 654.142Z" fill="#EBDBCD"/>
<path d="M780.9 684.542C797.6 684.242 814.1 680.742 830.4 677.142C839.4 675.142 848.4 673.042 857.4 671.542L857.7 667.942C835.6 671.842 813.7 678.442 791.3 680.442C783.9 681.142 776.3 681.242 768.8 680.542L769.1 684.142C773.2 684.442 777 684.542 780.9 684.542Z" fill="#EBDBCD"/>
<path d="M850.7 623.842C850.7 624.742 834.2 625.442 813.9 625.442C793.6 625.442 777.1 624.742 777.1 623.842H763.6C763.6 623.842 763.6 623.842 763.6 623.942C763.7 625.142 785.7 626.142 812.8 626.142C839.8 626.142 861.9 625.142 862 623.942C862 623.942 862 623.942 862 623.842H850.7Z" fill="#E8D4C1"/>
<path d="M614.6 381.142C609.3 400.642 604.1 420.642 595.1 438.742C592.7 443.542 588.3 455.842 581.4 455.442C574.7 454.942 569 450.642 566 444.842C563.1 439.142 555 437.442 549.7 440.542C543.8 444.042 542.5 451.142 545.4 456.842C550.8 467.642 561.2 475.042 572.7 478.042C588.1 482.042 600.2 475.742 608.8 463.042C623.8 440.742 630.7 413.242 637.7 387.542C641.7 372.542 618.6 366.242 614.6 381.142Z" fill="#F0A173"/>
<path d="M619.2 647.042C620.8 656.342 622.701 665.542 625.001 674.642C629.101 690.742 655.401 683.942 651.301 667.742C648.901 658.642 647.101 649.342 645.501 640.142C644.301 633.242 635.2 629.442 628.7 631.142C621 633.142 618.1 640.142 619.2 647.042Z" fill="#E3996D"/>
<path d="M712.501 457.342C712.501 457.342 720.301 476.842 720.301 478.542C720.301 480.342 684 485.442 669.2 484.542C657.8 483.842 631.801 479.742 633.301 477.242C634.801 474.742 642.6 455.342 642.6 455.342C642.6 455.342 661.501 460.142 676.801 459.642C692.101 459.342 712.501 457.342 712.501 457.342Z" fill="#E3996D"/>
<path d="M633.2 477.342C633.2 477.342 643.7 480.842 649.8 481.642C675.7 485.342 692.5 483.242 692.5 483.242C692.5 483.242 615.5 525.342 613 530.842C610.5 536.342 634.8 555.342 641.9 576.742C648.2 595.742 652.5 643.042 653.3 653.242C653.4 654.442 652.699 655.642 651.599 656.142C649.099 657.342 643.899 659.342 636.099 660.742C624.599 662.842 617.2 664.942 617 662.342C616.8 659.742 574.1 580.442 572.5 577.842C570.9 575.242 546.4 537.042 545.4 527.242C542.3 498.042 633.2 477.342 633.2 477.342Z" fill="#1B2535"/>
<path d="M660 336.542C660 336.542 639.2 340.742 630 348.442C621.8 355.342 606.699 384.642 603.599 390.942C603.199 391.642 603.4 392.542 603.9 393.142C605.9 395.142 610.9 399.842 615.5 402.142C621.4 405.242 633.099 407.542 633.099 407.542L635.8 389.742C635.8 389.742 629.299 401.542 633.599 414.142C636.099 421.542 638 431.342 638.4 436.242C638.6 438.942 638 454.542 638 454.542C638 454.542 653.8 458.642 670.9 459.842C687.9 461.042 716.8 455.542 716.8 455.542C716.8 455.542 715.4 419.442 716.3 412.942C718.1 399.842 714.3 390.342 714.3 390.342L719.3 410.242C719.3 410.242 736.4 412.442 739.7 410.742C742.8 409.142 748.299 404.442 750.599 402.442C751.299 401.842 751.6 400.842 751.4 399.942C749.8 393.242 742.3 365.842 730 352.142C723.7 345.142 700.4 337.942 695 337.942C689.4 337.742 660 336.542 660 336.542Z" fill="#FEAD18"/>
<path d="M712.2 220.642C723.1 220.642 731.9 212.342 731.9 202.042C731.9 191.842 723.1 183.442 712.2 183.442C701.3 183.442 692.5 191.742 692.5 202.042C692.5 212.342 701.3 220.642 712.2 220.642Z" fill="#306DDF"/>
<path d="M625 676.342C625 676.342 634.9 678.142 639.2 676.742C645.9 674.542 652.5 669.342 652.5 669.342C652.5 669.342 660.9 678.342 663.1 680.442C665.4 682.642 668.3 684.042 670.6 688.042C672.9 692.142 673.1 703.442 657.5 713.942C651.9 717.842 644.8 742.442 631 747.342C621.7 750.642 614.3 751.642 608.1 748.742C601.7 745.842 600.1 738.842 612.9 729.242C625.8 719.742 622.8 708.642 624.2 701.642C625.6 694.842 625 676.342 625 676.342Z" fill="#AB534D"/>
<path d="M520.2 668.342C518.9 678.642 517.5 688.942 516.2 699.342C515.3 706.242 523.1 712.242 529.9 712.242C538 712.242 542.6 706.342 543.6 699.342C544.9 689.042 546.3 678.742 547.6 668.342C548.5 661.442 540.7 655.442 533.9 655.442C525.7 655.442 521.1 661.442 520.2 668.342Z" fill="#FCB58A"/>
<path d="M580.9 434.442C588.7 436.042 594.8 441.142 600.4 446.542C604.5 450.442 610.1 444.042 606 440.042C599.2 433.542 591.8 427.742 582.5 425.942C577.1 424.842 575.4 433.342 580.9 434.442Z" fill="#FCB58A"/>
<path d="M691.8 309.942L660 309.742C660 309.742 662.4 340.042 662.4 340.242C662.4 345.642 669.5 349.942 678.3 349.942C687.1 349.942 694.2 345.642 694.2 340.242C694.2 340.142 691.8 309.942 691.8 309.942Z" fill="#FCB58A"/>
<path d="M677 315.242C671.1 315.242 665.4 314.242 660.2 312.542L660.6 318.642C664.2 320.342 669.9 321.542 675.6 321.942C680.6 322.242 687.8 322.442 692.6 321.042L692.1 313.142C687.2 314.542 682.2 315.242 677 315.242Z" fill="#E3996D"/>
<path d="M720.8 478.442C720.8 478.442 734.7 493.742 737.2 504.442C739.7 515.142 741.3 531.442 737.7 540.942C734.1 550.442 722.8 564.142 702.2 565.342C668.2 567.342 597.4 555.042 594.3 555.042C591.2 555.042 592.4 575.742 581.8 604.742C572.3 630.442 555.3 673.242 551.7 682.242C551.3 683.242 550.3 683.942 549.2 684.042C545.5 684.242 536.7 684.442 527.7 683.042C521.4 682.042 516.8 679.442 514.3 677.842C513.1 677.042 512.5 675.642 512.7 674.342C513.8 664.442 518.6 623.142 521.5 606.242C524.6 588.442 526.9 519.642 538.3 505.742C548.2 493.542 551.8 492.242 563 488.742C573.1 485.642 680.5 484.642 680.5 484.642L720.8 478.442Z" fill="#2C3C56"/>
<path d="M513.7 704.242C510.4 710.342 504 718.742 498.7 722.242C486.2 730.642 470.3 741.942 468 744.242C465.6 746.642 460.3 756.742 468.5 762.142C474.4 766.042 491.4 767.542 512.8 756.942C528.9 748.942 537 747.242 542.9 745.042C552.7 741.442 550.5 730.742 548.5 725.542C546.9 721.442 546.5 720.642 545.4 710.042C545.1 707.742 544.2 698.442 544.2 698.442C544.2 698.442 535.9 701.242 526.8 700.142C520.1 699.242 516.4 694.842 516.4 694.842C516.4 694.842 514.8 702.142 513.7 704.242Z" fill="#C7645D"/>
<path d="M732.1 577.742H611.6C609.6 577.742 607.9 576.142 607.9 574.042V562.042C607.9 560.042 609.5 558.342 611.6 558.342H732.1C734.1 558.342 735.8 559.942 735.8 562.042V574.042C735.7 576.142 734.1 577.742 732.1 577.742Z" fill="#AB8868"/>
<path d="M488.6 388.342L553 394.742C554.5 394.842 555.9 395.742 557 397.042L625.6 482.142C626.4 483.142 625.7 484.742 624.7 484.642L557.3 477.242C556.1 477.142 554.9 476.442 554.1 475.342L488 390.242C487.3 389.442 487.8 388.142 488.6 388.342Z" fill="#D7D7E6"/>
<path d="M723.8 405.242C724.1 406.442 724.3 407.742 724.6 408.942C724.7 409.442 725.2 412.242 725 411.142C724.9 410.142 725.3 413.242 725.3 413.942C725.4 415.242 725.5 416.542 725.6 417.842C725.7 420.242 725.6 422.642 725.5 425.142C725.4 425.842 725.4 426.642 725.3 427.342C725.3 427.142 725.6 425.542 725.4 426.942C725.1 428.342 724.9 429.842 724.5 431.342C724.2 432.442 723.8 433.542 723.5 434.542C722.8 436.942 723.7 434.642 722.8 436.342C722.3 437.342 721.8 438.342 721.2 439.242C720.9 439.742 718.7 442.942 719.8 441.442C716.1 446.042 713.4 448.042 707.8 450.542C685.7 460.642 656.6 452.642 633.7 447.242C623.6 444.842 613.4 442.242 603.5 439.042C588.8 434.442 582.5 457.442 597.2 462.142C621.9 469.942 647.9 476.042 673.7 478.442C703.3 481.142 736.1 471.442 746.5 440.842C751.1 427.342 750 412.442 747 398.842C743.6 383.842 720.5 390.242 723.8 405.242Z" fill="#FCB58A"/>
<path d="M716.4 397.942C718.6 396.542 742.5 379.442 742.5 379.442L751 401.742C751 401.742 748.6 405.942 739 410.842C729.3 415.642 720.2 414.542 720.2 414.542L716.4 397.942Z" fill="#FEAD18"/>
<path d="M337.7 761.542C334.4 760.342 332.7 756.842 333.8 753.542L412.599 495.242C413.699 491.942 417.4 490.042 420.7 491.242L428.9 494.142C432.2 495.342 433.9 499.042 432.7 502.342L345.8 757.742C344.6 761.042 341 762.742 337.7 761.542Z" fill="#8A6645"/>
<path d="M746.2 761.542C749.5 760.342 751.2 756.842 750.1 753.542L671.4 495.242C670.3 491.942 666.6 490.042 663.3 491.242L655.1 494.142C651.8 495.342 650.1 499.042 651.3 502.342L738.3 757.642C739.3 761.042 742.9 762.742 746.2 761.542Z" fill="#8A6645"/>
<path d="M759.1 504.242H324.8C321.3 504.242 318.4 501.342 318.4 497.842V483.842C318.4 480.342 321.3 477.442 324.8 477.442H759.1C762.6 477.442 765.5 480.342 765.5 483.842V497.842C765.4 501.342 762.6 504.242 759.1 504.242Z" fill="#C49C77"/>
<path d="M376.5 727.942C336.6 722.942 318.7 748.642 318.6 748.742C318.6 748.642 320.5 750.142 320.5 744.642L319.6 736.542C319.6 736.542 316.2 737.542 314.9 738.142C310.8 739.842 307.2 744.642 306.1 744.542C305.1 744.442 301.3 741.042 295.3 739.442C289.4 737.842 282.4 739.342 281.7 738.942C281.1 738.542 281.3 736.442 280.4 733.742C279.3 730.642 276.4 727.042 276.4 727.042C276.3 727.142 267.3 744.242 265.4 747.742C263.5 751.242 260.3 756.542 259.8 768.042C259.1 783.442 269.5 777.142 269.5 777.142L262.3 770.442H252H249C245.1 770.442 242 774.242 242 778.842C242 783.442 245.1 787.242 249 787.242H252H262.3H422.9L423 772.842C423.2 772.742 424.1 733.842 376.5 727.942Z" fill="#110580"/>
<path d="M414.7 793.842H269.6C265 793.842 261.2 790.042 261.2 785.442C261.2 780.842 265 777.042 269.6 777.042H414.7C419.3 777.042 423.1 780.842 423.1 785.442C423.1 790.042 419.3 793.842 414.7 793.842Z" fill="#110580"/>
<path d="M391.001 748.642C382.101 747.042 372.7 747.642 364.8 752.342C359.2 755.642 354.7 760.842 352.3 766.942C351.4 769.142 350.9 771.342 350.8 773.642C345.4 773.342 339.7 773.342 334.7 775.442C332.1 776.542 329.9 778.342 328.8 781.042C327.8 783.542 327.8 786.542 328.9 789.042C330.1 791.942 332.8 793.742 335.9 793.742C337.1 793.742 337.1 791.742 335.9 791.742C330.8 791.642 329 785.842 330.7 781.742C332.7 776.742 339.3 775.842 343.9 775.642C346.6 775.542 349.2 775.542 351.9 775.742C352.4 775.842 352.9 775.242 352.9 774.742C352.6 770.042 355 765.042 357.9 761.242C362.1 755.642 368.301 751.942 375.001 750.542C380.201 749.442 385.5 749.642 390.7 750.642C391.7 750.742 392.201 748.842 391.001 748.642Z" fill="#787CCB"/>
<path d="M404.9 791.742C411.4 793.242 418.3 793.542 424.9 794.742C428.8 795.442 436.9 797.242 429.8 800.442C420.9 804.542 408.8 801.742 399.4 802.242C389 802.842 377.6 805.542 370.7 813.942C363.6 822.442 366.3 840.842 380.3 839.242C388.7 838.242 392.3 829.742 387 823.142C386.7 822.842 386.5 822.442 386.2 822.142C387 823.642 387.9 825.042 388.8 826.542C388.2 824.942 387.199 827.042 389.099 826.142C391.299 825.042 393.1 823.742 395.4 822.942C400.2 821.342 405.3 820.842 410.3 820.342C420.6 819.342 433.8 819.442 442 812.142C450.2 804.942 451.4 791.842 441.9 785.042C432.8 778.542 415.1 779.342 404.9 782.642C400.9 784.342 400.4 790.642 404.9 791.742Z" fill="#110580"/>
<path d="M271.5 756.642C271.9 759.042 274 760.842 276.2 761.342C278.6 761.842 281.2 761.142 282.9 759.342C283.6 758.542 282.4 757.442 281.8 758.242C280.6 759.642 278.5 760.242 276.7 759.842C274.9 759.442 273.4 758.042 273.1 756.242C272.8 755.242 271.3 755.642 271.5 756.642Z" fill="#787CCB"/>
<path d="M293.7 761.942C293.7 764.342 295.9 766.042 298.1 766.442C300.7 766.942 303.3 765.742 305.2 764.042C306 763.342 304.9 762.242 304.1 762.942C302.6 764.242 300.6 765.142 298.6 764.942C297.1 764.742 295.3 763.642 295.3 761.942C295.3 760.942 293.7 760.942 293.7 761.942Z" fill="#787CCB"/>
<path d="M286.5 772.142C285 770.942 283.2 770.142 281.3 769.942C281 769.842 280.6 770.142 280.5 770.442C280.3 770.742 280.4 771.142 280.5 771.442C280.6 771.542 280.6 771.642 280.6 771.742C280.5 771.442 280.6 771.842 280.7 771.842C280.8 771.942 280.8 772.142 280.8 772.342C280.8 772.442 280.9 772.442 280.9 772.642V772.742C280.9 772.842 280.9 773.042 281 773.242C281.1 773.942 281.1 774.642 281.1 775.342C281.1 775.442 281.1 775.442 281.1 775.442V775.542V775.642C281.2 776.042 281.8 776.342 282.1 776.242C282.2 776.242 282.2 776.242 282.2 776.242C282.3 776.142 282.5 776.142 282.7 775.942C282.8 775.842 282.8 775.842 282.8 775.842C282.9 775.742 283.1 775.642 283.3 775.542C283.4 775.442 283.5 775.442 283.6 775.442C283.7 775.442 283.7 775.342 283.7 775.342C283.9 775.242 284.1 775.242 284.2 775.142C285 774.842 285.8 774.442 286.4 773.942C286.8 773.142 286.9 772.442 286.5 772.142ZM283.7 775.042C283.8 775.042 283.8 775.042 283.7 775.042C283.9 774.942 283.8 775.042 283.7 775.042Z" fill="#787CCB"/>
<path d="M556.5 239.942C551.4 224.942 538.3 212.842 522.7 207.942C507.1 203.042 489.399 205.242 475.099 213.142C468.099 217.042 461.8 222.342 457.9 229.142C454 235.942 452.699 244.342 455.599 251.642C459.099 260.442 467.799 266.242 476.599 270.442C486.099 274.842 499 277.842 511 274.842C520.9 280.942 530.9 287.042 540.8 293.142C539 286.342 533.5 272.842 533.3 272.842L534.599 272.742C541.799 270.242 548.3 265.742 553 259.942C555.3 257.142 557.2 253.842 557.8 250.242C558.4 246.642 557.6 243.242 556.5 239.942Z" fill="#FCFAF8"/>
<path d="M485.9 198.442C482 186.742 469.8 180.042 457.9 176.342C430.9 167.842 400.9 169.542 375 181.042C362.9 186.442 351.2 194.542 345.9 206.642C341.3 217.242 342.3 229.742 347.6 240.042C352.9 250.342 362.1 258.242 372.6 263.042C368.9 272.342 363.4 283.842 359.8 293.142C367.2 288.742 374.6 284.342 382 280.042C385.8 277.842 389.6 275.542 393.9 274.242C399.7 272.442 405.8 272.642 411.8 272.242C428.7 271.242 445.4 266.242 459.2 256.542C472.9 246.742 483.4 231.942 486.5 215.342C487.5 209.642 487.7 203.742 485.9 198.442Z" fill="white"/>
<path d="M464 315.242C463.5 311.042 460.4 307.542 457.1 304.842C447.6 297.442 434.7 294.942 422.7 296.842C418.3 297.542 413.8 298.842 410.1 301.442C402.5 306.742 399.1 317.342 402.1 326.042C402.5 327.242 404 328.542 404 328.542C400.3 335.642 398.1 340.842 395 348.042C402.3 342.442 410.3 337.642 418.7 333.642L419.7 334.142C429.7 340.242 442.9 337.242 453 331.342C458.9 327.942 464.9 322.142 464 315.242Z" fill="white"/>
<path d="M638.2 381.242C638.2 381.242 634.3 392.642 633.4 396.642C632.4 401.342 632.4 407.342 632.4 407.342L628.5 406.542C628.5 406.542 629.5 400.442 632 394.042C633.2 390.642 638.2 381.242 638.2 381.242Z" fill="#E0E0E0"/>
<path d="M714.3 388.442C714.3 388.442 715.8 399.442 716.1 401.842C716.7 406.742 716.5 414.242 716.5 414.242L720.4 414.542C720.4 414.542 719.5 405.242 717.8 399.142C716.9 396.142 714.3 388.442 714.3 388.442Z" fill="#E0E0E0"/>
<path d="M702.8 317.942C697.3 317.942 692.9 310.242 692.9 300.442C692.9 290.642 697.2 282.942 702.8 282.942C708.3 282.942 712.7 290.642 712.7 300.442C712.7 310.242 708.3 317.942 702.8 317.942ZM702.8 285.342C698.7 285.342 695.4 292.242 695.4 300.542C695.4 308.742 698.8 315.742 702.8 315.742C706.8 315.742 710.2 308.842 710.2 300.542C710.2 292.242 706.8 285.342 702.8 285.342Z" fill="white"/>
<path d="M745.5 321.442C749.8 319.442 749.5 317.342 748.4 313.642L727.2 253.842C720.9 232.642 700.2 217.142 675.7 217.142C659.8 217.142 650.6 223.842 650.6 223.842C650.7 223.842 660.9 226.342 668.5 233.442C676.1 240.642 671.6 249.342 680.7 257.942C686.8 263.642 697.6 266.542 697.6 266.542C697.6 267.442 699.3 308.142 700 325.342C700.3 331.442 703.7 330.842 715.9 329.142C732.1 326.942 738.4 324.842 745.5 321.442Z" fill="#306DDF"/>
<path d="M669.3 251.942C663 251.942 657.6 255.442 654.9 260.742C652.6 259.542 650.1 258.942 647.5 258.942C646.7 258.942 645.8 259.042 645 259.142C643 252.442 636.8 247.542 629.4 247.542C620.4 247.542 613.1 254.842 613.1 263.842C613.1 272.842 620.4 280.142 629.4 280.142C638.4 280.142 645.7 272.842 645.7 263.842C645.7 263.142 645.6 262.342 645.5 261.642C648.4 261.242 651.4 261.742 653.9 263.042C653.3 264.642 653 266.442 653 268.242C653 277.242 660.3 284.542 669.3 284.542C678.3 284.542 685.6 277.242 685.6 268.242C685.7 259.342 678.4 251.942 669.3 251.942ZM629.4 277.642C621.8 277.642 615.6 271.442 615.6 263.842C615.6 256.242 621.8 250.042 629.4 250.042C637 250.042 643.2 256.242 643.2 263.842C643.2 271.442 636.9 277.642 629.4 277.642ZM669.3 282.142C661.7 282.142 655.5 275.942 655.5 268.342C655.5 260.742 661.7 254.542 669.3 254.542C676.9 254.542 683.1 260.742 683.1 268.342C683.2 275.842 677 282.142 669.3 282.142Z" fill="#E0E0E0"/>
<path d="M588.7 461.842L575.7 460.542C567.5 459.742 561.2 453.642 561.7 446.942L561.9 444.642C562.4 438.042 569.5 433.242 577.7 434.142L590.7 435.442C598.9 436.342 605.2 442.342 604.7 449.042L604.5 451.342C604 458.042 596.9 462.742 588.7 461.842Z" fill="#FCB58A"/>
<path d="M418.7 320.142C420.7 320.142 422.4 318.642 422.4 316.642C422.4 314.642 420.8 313.142 418.7 313.142C416.6 313.142 415 314.642 415 316.642C415 318.642 416.7 320.142 418.7 320.142Z" fill="#D6D7F0"/>
<path d="M431.4 320.142C433.4 320.142 435.1 318.542 435.1 316.642C435.1 314.742 433.5 313.142 431.4 313.142C429.4 313.142 427.7 314.742 427.7 316.642C427.7 318.642 429.4 320.142 431.4 320.142Z" fill="#D6D7F0"/>
<path d="M443.2 320.142C445.2 320.142 446.9 318.542 446.9 316.642C446.9 314.742 445.3 313.142 443.2 313.142C441.2 313.142 439.5 314.742 439.5 316.642C439.6 318.642 441.2 320.142 443.2 320.142Z" fill="#D6D7F0"/>
<path d="M506.2 255.042C506.1 255.842 505.9 256.642 506.2 257.442C506.4 258.142 506.7 258.742 507.2 259.242C507.6 259.642 508.001 259.942 508.501 260.042C509.001 260.342 509.5 260.442 510.1 260.342C510.8 260.342 511.5 260.142 512.1 259.842C512.1 259.842 512.2 259.842 512.2 259.742C511.9 259.842 511.5 260.042 511.2 260.142H511.301C510.901 260.242 510.6 260.242 510.2 260.242C510.2 260.242 510.201 260.242 510.301 260.242C510.701 260.142 511.001 260.142 511.401 260.142C511.701 260.042 512.101 259.842 512.401 259.742C512.701 259.542 513.001 259.242 513.301 259.042C513.501 258.742 513.801 258.442 514.001 258.142C514.101 257.842 514.301 257.442 514.401 257.142C514.501 256.742 514.501 256.442 514.501 256.042C514.401 255.642 514.401 255.342 514.401 254.942C514.301 254.442 514 253.942 513.6 253.542C513.4 253.242 513.101 252.942 512.801 252.742C512.501 252.442 512.201 252.242 511.901 252.242C511.601 252.042 511.201 251.942 510.901 251.942C510.501 251.842 510.201 251.842 509.801 251.942C509.401 251.942 509.101 252.042 508.801 252.242C508.501 252.342 508.101 252.542 507.901 252.742C507.601 252.942 507.3 253.242 507.1 253.542C506.6 254.042 506.3 254.542 506.2 255.042Z" fill="#D6D7F0"/>
<path d="M496.7 231.042C498.3 228.542 502.601 227.142 505.5 227.442C506.9 227.542 509.701 228.342 510.5 229.642C511.101 230.542 511.2 229.542 510.2 230.542C509.6 231.142 508.5 231.542 507.8 231.942C503.2 235.042 498.3 243.742 505.3 247.242C508 248.642 511.6 246.942 511.6 243.642C511.6 242.142 511.1 241.142 511.9 239.842C512.4 239.042 513.701 238.342 514.5 237.842C516.701 236.242 518.7 234.642 519.2 231.842C520 226.842 515.5 222.942 511.2 221.342C506.5 219.542 501.2 220.142 497.1 223.042C494.9 224.642 490.5 229.642 494.6 231.642C495.3 232.042 496.2 231.842 496.7 231.042Z" fill="#D6D7F0"/>
<path d="M448.6 477.342H437.7C430.3 477.342 424.2 471.542 423.8 464.142L422 432.042C421.9 430.842 422.9 429.842 424.1 429.842H462.1C463.3 429.842 464.3 430.842 464.2 432.042L462.4 464.142C462.1 471.542 456 477.342 448.6 477.342Z" fill="#FF5856"/>
<path d="M463.9 437.142L463.6 442.042C468.1 442.942 471.4 446.942 471.4 451.742C471.4 456.942 467.4 461.042 462.4 461.542L462.1 466.442C470 466.142 476.3 459.642 476.3 451.742C476.3 444.342 470.9 438.242 463.9 437.142Z" fill="#FF5856"/>
<path d="M446 422.342C446 422.342 436.7 413.742 437 407.342C437.5 397.642 446.1 394.042 442.8 384.842C441.2 380.542 434.7 366.442 434.7 366.442C434.7 366.442 445.5 377.042 449.3 383.642C452.8 389.542 452.4 399.042 448.6 403.542C440.4 413.642 446 422.342 446 422.342Z" fill="#DCDCED"/>
<path d="M455 208.842H375.2C373.4 208.842 371.9 207.342 371.9 205.542C371.9 203.742 373.4 202.242 375.2 202.242H455C456.8 202.242 458.3 203.742 458.3 205.542C458.3 207.242 456.8 208.842 455 208.842Z" fill="#D6D7F0"/>
<path d="M428.9 240.942H375.2C373.4 240.942 371.9 239.442 371.9 237.642C371.9 235.842 373.4 234.342 375.2 234.342H428.9C430.7 234.342 432.2 235.842 432.2 237.642C432.2 239.442 430.7 240.942 428.9 240.942Z" fill="#D6D7F0"/>
<path d="M410.2 224.442H375.1C373.3 224.442 371.8 222.942 371.8 221.142C371.8 219.342 373.3 217.842 375.1 217.842H410.2C412 217.842 413.5 219.342 413.5 221.142C413.6 223.042 412.1 224.442 410.2 224.442Z" fill="#D6D7F0"/>
<path d="M448.4 224.442H426.4C424.6 224.442 423.1 222.942 423.1 221.142C423.1 219.342 424.6 217.842 426.4 217.842H448.4C450.2 217.842 451.7 219.342 451.7 221.142C451.7 223.042 450.2 224.442 448.4 224.442Z" fill="#D6D7F0"/>
</svg>
