<svg viewBox="0 0 1172 871" preserveAspectRatio="xMinYMax meet" fill="none" xmlns="http://www.w3.org/2000/svg" display='block'>
<ellipse opacity="0.1" cx="582.5" cy="473.5" rx="348.5" ry="336.5" fill="#A7A9D6"/>
<g clip-path="url(#clip1)">
<path d="M506.361 737.739C505.349 751.07 504.357 764.38 503.264 777.71C502.597 786.59 513 793.71 521.623 793.305C532.027 792.8 537.633 784.83 538.301 775.869C539.313 762.539 540.305 749.209 541.398 735.899C542.066 727.019 531.662 719.898 523.04 720.303C512.656 720.809 507.11 728.778 506.361 737.739Z" fill="#FAB58A"/>
<path d="M634.08 741.947C636.185 755.095 638.27 768.344 640.375 781.512C641.812 790.311 653.552 794.843 661.851 792.415C671.829 789.482 675.432 780.521 674.015 771.641C671.91 758.493 669.825 745.244 667.72 732.076C666.304 723.276 654.564 718.745 646.245 721.173C636.266 724.086 632.664 733.047 634.08 741.947Z" fill="#FAB58A"/>
<path d="M478.328 219.846C469.078 228.382 404.247 314.897 433.92 346.533C452.157 365.972 500.654 358.852 510.41 341.375C511.664 339.11 513.729 334.093 514.539 327.944C514.903 325.193 516.988 309.597 510.41 304.196C499.581 295.276 472.094 319.65 465.961 313.501C461.346 308.849 474.138 292.181 490.776 252.555C504.277 220.372 503.933 212.079 501.119 210.198C499.702 209.247 497.638 209.894 493.529 211.189C493.509 211.189 484.785 213.899 478.328 219.846Z" fill="#FAB58A"/>
<path d="M663.004 245.879C663.004 245.879 648.168 198.688 643.209 178.743C635.497 147.977 614.528 129.468 584.936 129.468C554.919 129.468 533.788 148.321 525.489 178.905C517.028 210.42 505.876 243.351 505.876 243.351C504.54 247.538 506.625 251.988 510.653 253.667C520.206 257.429 540.163 264.145 584.875 263.639C624.79 263.134 645.415 257.531 655.819 256.438C661 255.852 664.36 250.835 663.004 245.879Z" fill="#306DDF"/>
<path d="M601.958 230.972H567.833V289.046C567.833 293.9 571.779 297.845 576.637 297.845H593.154C598.011 297.845 601.958 293.9 601.958 289.046V230.972Z" fill="#FAB58A"/>
<path d="M584.43 82.3779C572.67 82.3779 563.137 91.9052 563.137 103.658C563.137 115.41 572.67 124.937 584.43 124.937C596.19 124.937 605.723 115.41 605.723 103.658C605.743 91.9052 596.19 82.3779 584.43 82.3779Z" fill="#306DDF"/>
<path d="M534.294 237.829C528.768 237.829 528.586 219.219 528.586 217.136C528.586 215.032 528.748 196.443 534.294 196.443C539.82 196.443 540.002 215.052 540.002 217.136C539.9 219.239 539.739 237.829 534.294 237.829ZM534.294 199.618C533.282 200.953 531.703 206.921 531.703 217.055C531.703 227.189 533.302 233.136 534.294 234.491C535.306 233.156 536.885 227.209 536.885 217.055C536.885 206.921 535.286 201.055 534.294 199.618Z" fill="white"/>
<path d="M634.505 237.829C628.98 237.829 628.797 219.219 628.797 217.136C628.797 215.032 628.959 196.443 634.505 196.443C640.031 196.443 640.213 215.052 640.213 217.136C640.112 219.239 639.95 237.829 634.505 237.829ZM634.505 199.618C633.493 200.953 631.914 206.921 631.914 217.055C631.914 227.189 633.513 233.136 634.505 234.491C635.517 233.156 637.096 227.209 637.096 217.055C637.096 206.921 635.497 201.055 634.505 199.618Z" fill="white"/>
<path d="M584.936 243.614C616.107 243.614 641.367 218.37 641.367 187.219C641.367 156.068 616.107 130.824 584.936 130.824C553.765 130.824 528.505 156.068 528.505 187.219C528.505 218.37 553.765 243.614 584.936 243.614Z" fill="#FAB58A"/>
<path d="M527.331 191.325C527.412 192.256 527.493 193.166 527.574 194.016C527.574 194.097 527.574 194.258 527.574 194.359C527.655 195.371 527.817 196.281 527.999 197.293V197.373C528.161 198.385 528.424 199.376 528.586 200.468C532.351 184.873 546.357 173.403 563.137 173.403C565.242 173.403 567.246 173.565 569.25 173.909C570.768 174.253 572.265 174.415 573.864 174.415C584.349 174.415 593.073 166.445 594.166 156.23C594.166 156.23 594.247 156.23 594.247 156.149C594.085 157.241 594.004 158.334 594.004 159.426C594.004 171.401 603.74 181.13 615.722 181.13H615.803C627.543 183.477 636.934 192.195 640.375 203.502C641.124 200.994 641.63 198.385 642.055 195.796C642.055 195.715 642.055 195.634 642.055 195.472C642.217 194.38 642.298 193.287 642.399 192.114C642.399 191.871 642.48 191.528 642.48 191.285C642.561 190.031 642.642 188.777 642.642 187.522C642.642 186.43 642.642 185.419 642.561 184.428C642.561 184.084 642.48 183.841 642.48 183.497C642.399 182.749 642.399 181.98 642.318 181.313C642.318 180.969 642.237 180.645 642.156 180.301C642.076 179.634 641.995 178.885 641.914 178.197C641.833 177.854 641.833 177.53 641.752 177.186C641.59 176.519 641.509 175.77 641.327 175.082C641.246 174.738 641.165 174.496 641.165 174.152C641.003 173.403 640.821 172.716 640.578 171.967C640.497 171.725 640.416 171.462 640.335 171.219C640.092 170.47 639.829 169.722 639.586 168.953C639.505 168.792 639.424 168.529 639.424 168.367C639.181 167.537 638.837 166.688 638.493 165.939C638.412 165.858 638.412 165.697 638.331 165.596C637.987 164.665 637.582 163.755 637.157 162.824C632.218 152.265 624.082 143.385 614.022 137.519C610.844 135.679 607.484 134.081 603.962 132.907C603.881 132.907 603.719 132.826 603.618 132.826C602.606 132.483 601.614 132.159 600.521 131.896C600.359 131.815 600.177 131.815 600.015 131.734C597.748 131.148 595.4 130.642 593.053 130.298C592.708 130.217 592.466 130.217 592.121 130.217C591.19 130.136 590.361 130.055 589.429 129.974C589.085 129.974 588.762 129.893 588.417 129.893C587.243 129.812 586.07 129.812 584.815 129.812C552.956 129.812 527.108 155.623 527.108 187.482C527.108 188.574 527.108 189.586 527.189 190.658C527.331 190.981 527.331 191.163 527.331 191.325Z" fill="#306DDF"/>
<path d="M639.95 280.995C625.62 272.439 609.164 269.506 601.958 268.434C599.691 277.819 594.915 283.018 584.349 283.018C573.621 283.018 569.917 277.657 567.914 268.009C565.566 268.555 561.983 269.303 557.591 269.769C549.211 270.679 545.021 269.87 539.334 270.112C532.513 270.396 527.898 271.994 518.668 275.271C499.945 281.905 490.574 285.223 486.748 293.9C484.158 299.766 485.352 305.167 487.659 315.564C489.238 322.685 491.788 333.547 501.16 342.022C505.208 345.684 509.317 347.808 512.211 349.041C514.296 348.172 516.482 347.019 518.668 345.522C529.476 338.179 533.646 326.932 535.205 321.491C533.16 326.427 530.792 333.79 530.428 342.852C529.922 355.777 534.152 356.344 533.019 366.559C531.46 380.779 529.517 387.474 526.805 397.649C526.461 398.903 527.23 400.258 528.566 400.501C536.034 402.18 558.34 407.196 580.969 407.116C610.399 407.116 630.619 403.94 637.744 402.847C639.08 402.605 639.93 401.33 639.586 399.995C638.412 395.302 636.408 387.252 634.384 369.33C632.785 355.251 634.465 352.561 634.384 342.69C634.384 335.408 631.368 320.824 631.368 320.824L634.222 348.657C634.222 348.657 644.545 349.163 659.3 342.71C664.421 340.445 670.878 334.659 673.55 332.07C674.299 331.322 674.562 330.149 674.056 329.218C670.392 321.471 654.038 289.369 639.95 280.995Z" fill="#FEAD18"/>
<path d="M584.936 243.614C578.985 243.614 573.277 242.684 567.913 241.025V251.584C573.277 253.263 579.147 253.344 585.199 252.757C593.173 252.009 596.594 250.492 601.978 248.145V241.025C596.594 242.704 590.886 243.614 584.936 243.614Z" fill="#E4996E"/>
<path d="M536.46 402.342C536.46 402.342 564.311 407.035 583.762 407.035C604.387 407.035 629.891 404.102 629.891 404.102C629.891 404.102 632.157 418.767 633.068 421.943C633.999 425.118 616.208 431.49 584.511 430.823C542.997 430.074 533.1 424.127 533.1 422.448C533.019 421.295 536.46 402.342 536.46 402.342Z" fill="#FAB58A"/>
<path d="M643.229 431.591C668.975 482.707 681.059 514.809 687.921 583.361C693.71 641.03 686.403 718.038 685.229 762.033C685.229 763.368 684.905 764.723 684.136 765.896C682.031 769.254 668.631 772.005 664.927 772.268C646.306 773.522 629.041 770.852 627.361 764.299C617.807 725.582 610.338 684.763 605.055 644.287C600.704 610.769 595.502 573.388 592.567 545.818C592.324 543.552 588.964 543.471 588.701 545.818C588.195 550.43 587.608 576.16 586.94 583.785C585.098 605.409 581.495 626.689 577.973 648.15C572.448 682.174 559.271 730.194 549.292 762.539C548.624 764.723 546.357 767.737 543.847 768.162C539.394 768.83 528.748 769.76 523.141 769.335C514.843 768.668 497.395 766.24 496.484 762.134C483.915 709.764 483.49 608.767 501.686 503.764C506.058 478.783 516.118 450.889 525.327 434.12C525.327 434.12 555.101 439.986 582.426 439.905C615.378 439.723 643.229 431.591 643.229 431.591Z" fill="#2C3C56"/>
<path d="M533.018 422.549C533.018 422.549 529.739 423.298 527.817 426.656C525.894 430.014 525.388 434.039 525.388 434.039C525.388 434.039 546.944 440.411 587.689 441.503C627.178 442.514 643.209 431.612 643.209 431.612C643.209 431.612 641.772 427.161 638.432 425.24C635.072 423.318 632.906 421.963 632.906 421.963C632.906 421.963 620.58 432.947 582.932 430.256C545.365 427.485 533.018 422.549 533.018 422.549Z" fill="#F7ABB2"/>
<path d="M451.853 843.936C450.092 839.991 453.29 832.365 463.755 824.577C476.506 815.111 489.238 801.538 491.849 798.099C499.723 787.54 503.244 777.811 503.244 777.811C503.244 777.811 506.26 782.928 518.344 783.171C530.084 783.333 537.714 779.652 537.714 779.652C537.714 779.652 542.491 789.786 543.422 795.065C544.353 800.345 547.106 818.206 542.997 821.543C538.544 825.225 539.394 824.234 533.686 826.661C525.712 830.019 522.271 828.421 511.462 833.963C507.434 836.067 489.987 852.229 472.377 853.746" fill="#C7645D"/>
<path d="M725.487 845.19C727.248 841.245 727.41 833.215 714.173 824.416C700.915 815.617 685.33 801.619 683.306 797.755C680.209 791.889 673.995 778.903 673.995 778.903C673.995 778.903 671.06 784.102 658.977 784.344C647.237 784.506 640.193 780.663 640.193 780.663C640.193 780.663 634.91 788.37 633.068 798.261C632.137 803.541 630.214 819.379 634.323 822.818C638.776 826.499 637.926 825.508 643.634 827.935C651.609 831.293 655.03 829.695 665.858 835.238C669.886 837.341 687.233 853.665 704.943 855.02" fill="#C7645D"/>
<path d="M631.976 320.48C631.976 320.48 634.162 332.879 634.323 338.907C634.404 342.589 634.323 348.455 634.323 348.455C634.323 348.455 637.096 348.455 638.513 348.293C639.93 348.212 641.61 347.868 641.61 347.868C641.61 347.868 639.93 342.346 638.169 336.804C636.509 331.949 631.976 320.48 631.976 320.48Z" fill="#E0E1E0"/>
<path d="M633.736 433.695C652.762 471.4 664.421 512.482 670.716 554.131C677.415 598.208 678.002 643.053 675.918 687.554C674.744 713.284 672.558 738.933 670.129 764.561C669.886 767.494 674.4 767.414 674.663 764.561C679.014 718.543 682.455 672.383 681.281 626.203C680.188 583.037 675.068 539.79 663.409 498.222C656.952 475.263 648.39 452.79 637.663 431.429C636.347 428.84 632.4 431.106 633.736 433.695Z" fill="white"/>
<path d="M529.922 434.625C513.324 472.917 504.094 513.817 499.055 555.143C493.853 597.641 492.598 640.706 493.104 683.448C493.448 708.834 494.703 734.159 497.638 759.383C497.982 762.235 502.495 762.316 502.172 759.383C497.051 715.307 496.808 670.805 498.407 626.466C499.824 585.161 503.346 543.674 512.575 503.177C517.696 480.543 524.659 458.171 533.869 436.891C534.962 434.281 531.096 431.935 529.922 434.625Z" fill="white"/>
<path d="M583.762 407.035C564.311 407.035 536.459 402.342 536.459 402.342C536.459 402.342 536.034 404.526 535.528 407.459C548.098 411.404 565.12 413.406 583.823 412.739C601.432 412.071 617.361 408.976 629.445 404.526C629.607 404.445 629.688 404.365 629.87 404.284C629.87 404.203 629.87 404.122 629.87 404.122C629.87 404.122 604.306 407.136 583.762 407.035Z" fill="#F0A174"/>
<path d="M548.563 439.601C532.938 442.413 526.501 466.019 524.619 472.957C522.291 481.513 521.967 488.937 522.068 493.994C526.42 494.702 531.845 495.167 538.038 494.722C546.175 494.136 547.997 492.538 552.915 493.63C559.412 495.066 560.384 498.748 567.063 500.892C572.549 502.631 577.609 501.984 580.847 501.256C580.422 495.815 579.592 488.27 577.892 479.369C574.107 459.627 571.638 447.632 561.983 442.15C560.566 441.321 555.04 438.428 548.563 439.601Z" fill="white"/>
<path d="M569.432 419.697C590.543 411.93 603.234 404.931 624.102 384.905C635.558 373.922 640.74 360.571 643.33 350.963C652.176 345.785 661.021 340.586 669.886 335.408C671.526 342.447 673.307 354.523 669.825 368.42C666.405 382.053 659.665 390.407 650.435 401.614C650.435 401.614 626.713 431.106 578.479 448.967C559.918 455.844 550.952 426.514 569.432 419.697Z" fill="#FAB58A"/>
<path d="M490.877 199.356L511.138 182.829C518.06 177.247 527.149 176.842 531.379 181.838L532.816 183.578C537.026 188.574 534.881 197.171 528.019 202.693L507.758 219.219C500.836 224.802 491.748 225.207 487.517 220.21L486.08 218.471C481.87 213.495 484.016 204.878 490.877 199.356Z" fill="#FAB58A"/>
<path d="M549.171 441.381L568.055 423.277C574.512 417.169 583.54 416.016 588.154 420.668L589.733 422.286C594.328 426.939 592.87 435.677 586.495 441.725L567.61 459.829C561.153 465.938 552.126 467.091 547.511 462.438L545.932 460.82C541.338 456.168 542.795 447.429 549.171 441.381Z" fill="#FAB58A"/>
<path d="M465.273 107.602C470.232 104.79 476.142 102.242 478.834 104.629C483.085 108.391 475.899 121.317 480.109 124.755C484.077 128.012 492.8 118.464 499.945 121.863C504.054 123.825 505.775 129.185 506.584 133.433" stroke="#F7ABB2" stroke-width="3" stroke-miterlimit="10"/>
<path d="M510.207 79.3438C512.17 84.785 499.844 92.4312 501.908 97.569C503.851 102.424 515.935 98.5197 520.57 105.114C523.242 108.917 522.25 114.459 520.955 118.586" stroke="#F7ABB2" stroke-width="3" stroke-miterlimit="10"/>
<path d="M445.579 150.343C448.169 145.125 451.691 139.562 455.213 139.946C460.759 140.573 461.751 155.481 467.094 155.866C472.134 156.23 474.219 143.243 481.951 141.868C486.404 141.079 490.715 144.518 493.671 147.572" stroke="#F7ABB2" stroke-width="3" stroke-miterlimit="10"/>
</g>
<path d="M197.606 229.75H311.747C318.501 229.75 324.942 226.905 329.489 221.912L353.698 195.338C358.245 190.345 364.686 187.5 371.44 187.5H568.837" stroke="#FFB2B1" stroke-width="5" stroke-linejoin="round"/>
<path d="M209.698 230.266C209.698 235.302 205.616 239.384 200.58 239.384C195.544 239.384 191.461 235.302 191.461 230.266C191.461 225.23 195.544 221.147 200.58 221.147C205.616 221.147 209.698 225.23 209.698 230.266Z" fill="#FF383D"/>
<path d="M11.3379 230.367C11.3379 191.357 42.9622 159.733 81.972 159.733C120.982 159.733 152.603 191.357 152.603 230.367C152.603 269.376 120.982 301.001 81.972 301.001C42.9622 301.001 11.3379 269.376 11.3379 230.367Z" fill="#FFE1E2"/>
<path d="M81.6675 142.491C130.44 142.491 169.977 182.029 169.977 230.801C169.977 279.573 130.44 319.114 81.6675 319.114V362.725" stroke="#FFD6D7" stroke-width="2.4" stroke-miterlimit="10"/>
<path d="M74.4048 364.928C74.4048 360.917 77.6554 357.666 81.667 357.666C85.6787 357.666 88.9293 360.917 88.9293 364.928C88.9293 368.94 85.6787 372.19 81.667 372.19C77.6554 372.19 74.4048 368.94 74.4048 364.928Z" fill="#F2AEB0"/>
<path d="M59.9859 227.711V229.757H53.4959V234.267H58.5559V236.313H53.4959V243.001H50.9879V227.711H59.9859ZM64.8182 229.735V234.223H70.0982V236.269H64.8182V240.955H70.7582V243.001H62.3102V227.689H70.7582V229.735H64.8182ZM87.0253 227.711L81.2833 243.001H78.3793L72.6153 227.711H75.2993L79.8313 240.427L84.3853 227.711H87.0253ZM91.6307 229.735V234.223H96.9107V236.269H91.6307V240.955H97.5707V243.001H89.1227V227.689H97.5707V229.735H91.6307ZM108.602 243.001L105.082 236.885H103.168V243.001H100.66V227.711H105.94C107.113 227.711 108.103 227.916 108.91 228.327C109.731 228.737 110.34 229.287 110.736 229.977C111.146 230.666 111.352 231.436 111.352 232.287C111.352 233.284 111.058 234.193 110.472 235.015C109.9 235.821 109.012 236.371 107.81 236.665L111.594 243.001H108.602ZM103.168 234.883H105.94C106.878 234.883 107.582 234.648 108.052 234.179C108.536 233.709 108.778 233.079 108.778 232.287C108.778 231.495 108.543 230.879 108.074 230.439C107.604 229.984 106.893 229.757 105.94 229.757H103.168V234.883Z" fill="#FF383D"/>
<path d="M606.337 344.046H819.922C828.736 344.046 836.84 348.878 841.033 356.631L872.281 414.42C876.474 422.173 884.579 427.004 893.393 427.004H976.177" stroke="#FFB2B1" stroke-width="5" stroke-linejoin="round"/>
<path d="M980.282 426.905C980.282 431.941 976.199 436.024 971.163 436.024C966.127 436.024 962.045 431.941 962.045 426.905C962.045 421.869 966.127 417.787 971.163 417.787C976.199 417.787 980.282 421.869 980.282 426.905Z" fill="#FF383D"/>
<path opacity="0.15" d="M1006.07 445.367C1006.07 406.357 1037.69 374.733 1076.7 374.733C1115.71 374.733 1147.34 406.357 1147.34 445.367C1147.34 484.376 1115.71 516.001 1076.7 516.001C1037.69 516.001 1006.07 484.376 1006.07 445.367Z" fill="#FF383D"/>
<path d="M1051.37 441L1047.85 434.884H1045.93V441H1043.43V425.71H1048.71C1049.88 425.71 1050.87 425.916 1051.68 426.326C1052.5 426.737 1053.11 427.287 1053.5 427.976C1053.91 428.666 1054.12 429.436 1054.12 430.286C1054.12 431.284 1053.83 432.193 1053.24 433.014C1052.67 433.821 1051.78 434.371 1050.58 434.664L1054.36 441H1051.37ZM1045.93 432.882H1048.71C1049.65 432.882 1050.35 432.648 1050.82 432.178C1051.3 431.709 1051.54 431.078 1051.54 430.286C1051.54 429.494 1051.31 428.878 1050.84 428.438C1050.37 427.984 1049.66 427.756 1048.71 427.756H1045.93V432.882ZM1059.81 425.71V435.456C1059.81 436.615 1060.11 437.488 1060.72 438.074C1061.33 438.661 1062.18 438.954 1063.27 438.954C1064.37 438.954 1065.22 438.661 1065.82 438.074C1066.44 437.488 1066.74 436.615 1066.74 435.456V425.71H1069.25V435.412C1069.25 436.659 1068.98 437.715 1068.44 438.58C1067.89 439.446 1067.17 440.091 1066.26 440.516C1065.35 440.942 1064.35 441.154 1063.25 441.154C1062.15 441.154 1061.14 440.942 1060.23 440.516C1059.34 440.091 1058.63 439.446 1058.1 438.58C1057.57 437.715 1057.31 436.659 1057.31 435.412V425.71H1059.81ZM1085.08 441H1082.57L1075.02 429.582V441H1072.52V425.688H1075.02L1082.57 437.084V425.688H1085.08V441ZM1100.93 441H1098.43L1090.88 429.582V441H1088.37V425.688H1090.88L1098.43 437.084V425.688H1100.93V441ZM1115.56 425.71L1110.5 435.456V441H1107.99V435.456L1102.91 425.71H1105.7L1109.24 433.212L1112.79 425.71H1115.56ZM1064.09 470H1061.58L1054.03 458.582V470H1051.53V454.688H1054.03L1061.58 466.084V454.688H1064.09V470ZM1074.36 470.154C1072.93 470.154 1071.62 469.824 1070.42 469.164C1069.23 468.49 1068.28 467.558 1067.58 466.37C1066.89 465.168 1066.55 463.818 1066.55 462.322C1066.55 460.826 1066.89 459.484 1067.58 458.296C1068.28 457.108 1069.23 456.184 1070.42 455.524C1071.62 454.85 1072.93 454.512 1074.36 454.512C1075.79 454.512 1077.11 454.85 1078.29 455.524C1079.5 456.184 1080.44 457.108 1081.13 458.296C1081.82 459.484 1082.17 460.826 1082.17 462.322C1082.17 463.818 1081.82 465.168 1081.13 466.37C1080.44 467.558 1079.5 468.49 1078.29 469.164C1077.11 469.824 1075.79 470.154 1074.36 470.154ZM1074.36 467.976C1075.37 467.976 1076.27 467.749 1077.06 467.294C1077.85 466.825 1078.47 466.165 1078.91 465.314C1079.36 464.449 1079.59 463.452 1079.59 462.322C1079.59 461.193 1079.36 460.203 1078.91 459.352C1078.47 458.502 1077.85 457.849 1077.06 457.394C1076.27 456.94 1075.37 456.712 1074.36 456.712C1073.34 456.712 1072.44 456.94 1071.65 457.394C1070.86 457.849 1070.23 458.502 1069.78 459.352C1069.34 460.203 1069.12 461.193 1069.12 462.322C1069.12 463.452 1069.34 464.449 1069.78 465.314C1070.23 466.165 1070.86 466.825 1071.65 467.294C1072.44 467.749 1073.34 467.976 1074.36 467.976ZM1089.67 470.154C1088.65 470.154 1087.72 469.978 1086.9 469.626C1086.08 469.26 1085.43 468.746 1084.96 468.086C1084.49 467.426 1084.26 466.656 1084.26 465.776H1086.94C1087 466.436 1087.26 466.979 1087.71 467.404C1088.18 467.83 1088.84 468.042 1089.67 468.042C1090.54 468.042 1091.21 467.837 1091.7 467.426C1092.18 467.001 1092.42 466.458 1092.42 465.798C1092.42 465.285 1092.27 464.867 1091.96 464.544C1091.67 464.222 1091.29 463.972 1090.84 463.796C1090.4 463.62 1089.78 463.43 1088.99 463.224C1087.99 462.96 1087.18 462.696 1086.55 462.432C1085.93 462.154 1085.4 461.728 1084.96 461.156C1084.52 460.584 1084.3 459.822 1084.3 458.868C1084.3 457.988 1084.52 457.218 1084.96 456.558C1085.4 455.898 1086.02 455.392 1086.81 455.04C1087.6 454.688 1088.52 454.512 1089.56 454.512C1091.04 454.512 1092.25 454.886 1093.19 455.634C1094.15 456.368 1094.67 457.38 1094.78 458.67H1092C1091.96 458.113 1091.7 457.636 1091.21 457.24C1090.73 456.844 1090.09 456.646 1089.3 456.646C1088.58 456.646 1087.99 456.83 1087.54 457.196C1087.08 457.563 1086.86 458.091 1086.86 458.78C1086.86 459.25 1087 459.638 1087.27 459.946C1087.57 460.24 1087.93 460.474 1088.37 460.65C1088.81 460.826 1089.42 461.017 1090.18 461.222C1091.19 461.501 1092.01 461.78 1092.64 462.058C1093.29 462.337 1093.83 462.77 1094.27 463.356C1094.72 463.928 1094.95 464.698 1094.95 465.666C1094.95 466.444 1094.74 467.177 1094.31 467.866C1093.9 468.556 1093.29 469.113 1092.49 469.538C1091.7 469.949 1090.76 470.154 1089.67 470.154ZM1100.42 456.734V461.222H1105.7V463.268H1100.42V467.954H1106.36V470H1097.91V454.688H1106.36V456.734H1100.42Z" fill="#FF383D"/>
<path d="M1081.37 357.266C1130.14 357.266 1169.68 396.804 1169.68 445.578C1169.68 494.351 1130.14 533.889 1081.37 533.889V577.502" stroke="#FFD6D7" stroke-width="2.4" stroke-miterlimit="10"/>
<path d="M1074.11 579.705C1074.11 575.693 1077.36 572.443 1081.37 572.443C1085.38 572.443 1088.63 575.693 1088.63 579.705C1088.63 583.716 1085.38 586.967 1081.37 586.967C1077.36 586.967 1074.11 583.716 1074.11 579.705Z" fill="#F2AEB0"/>
<path opacity="0.15" d="M11.3379 716.367C11.3379 677.357 42.9622 645.733 81.972 645.733C120.982 645.733 152.603 677.357 152.603 716.367C152.603 755.376 120.982 787.001 81.972 787.001C42.9622 787.001 11.3379 755.376 11.3379 716.367Z" fill="#FF383D"/>
<g filter="url(#filter0_d)">
<path d="M29.3254 713.71V724.732C29.3254 726.096 28.9074 727.174 28.0714 727.966C27.2501 728.758 26.1647 729.154 24.8154 729.154C23.4661 729.154 22.3734 728.758 21.5374 727.966C20.7161 727.174 20.3054 726.096 20.3054 724.732H22.8354C22.8501 725.407 23.0187 725.942 23.3414 726.338C23.6787 726.734 24.1701 726.932 24.8154 726.932C25.4607 726.932 25.9521 726.734 26.2894 726.338C26.6267 725.927 26.7954 725.392 26.7954 724.732V713.71H29.3254ZM40.3794 729.154C38.9567 729.154 37.644 728.824 36.4414 728.164C35.2534 727.489 34.3074 726.558 33.6034 725.37C32.914 724.167 32.5694 722.818 32.5694 721.322C32.5694 719.826 32.914 718.484 33.6034 717.296C34.3074 716.108 35.2534 715.184 36.4414 714.524C37.644 713.849 38.9567 713.512 40.3794 713.512C41.8167 713.512 43.1294 713.849 44.3174 714.524C45.52 715.184 46.466 716.108 47.1554 717.296C47.8447 718.484 48.1894 719.826 48.1894 721.322C48.1894 722.818 47.8447 724.167 47.1554 725.37C46.466 726.558 45.52 727.489 44.3174 728.164C43.1294 728.824 41.8167 729.154 40.3794 729.154ZM40.3794 726.976C41.3914 726.976 42.2934 726.749 43.0854 726.294C43.8774 725.825 44.4934 725.165 44.9334 724.314C45.388 723.449 45.6154 722.451 45.6154 721.322C45.6154 720.193 45.388 719.203 44.9334 718.352C44.4934 717.501 43.8774 716.849 43.0854 716.394C42.2934 715.939 41.3914 715.712 40.3794 715.712C39.3674 715.712 38.4654 715.939 37.6734 716.394C36.8814 716.849 36.258 717.501 35.8034 718.352C35.3634 719.203 35.1434 720.193 35.1434 721.322C35.1434 722.451 35.3634 723.449 35.8034 724.314C36.258 725.165 36.8814 725.825 37.6734 726.294C38.4654 726.749 39.3674 726.976 40.3794 726.976ZM53.1653 713.71V729H50.6573V713.71H53.1653ZM69.0201 729H66.5121L58.9661 717.582V729H56.4581V713.688H58.9661L66.5121 725.084V713.688H69.0201V729ZM82.1916 713.71V715.756H78.1216V729H75.6136V715.756H71.5216V713.71H82.1916ZM101.138 718.264C101.138 719.041 100.955 719.775 100.588 720.464C100.222 721.153 99.6351 721.718 98.8284 722.158C98.0217 722.583 96.9877 722.796 95.7264 722.796H92.9544V729H90.4464V713.71H95.7264C96.8997 713.71 97.8897 713.915 98.6964 714.326C99.5177 714.722 100.126 715.265 100.522 715.954C100.933 716.643 101.138 717.413 101.138 718.264ZM95.7264 720.75C96.6797 720.75 97.3911 720.537 97.8604 720.112C98.3297 719.672 98.5644 719.056 98.5644 718.264C98.5644 716.592 97.6184 715.756 95.7264 715.756H92.9544V720.75H95.7264ZM112.748 725.876H106.346L105.246 729H102.628L108.106 713.688H111.01L116.488 729H113.848L112.748 725.876ZM112.044 723.83L109.558 716.724L107.05 723.83H112.044ZM121.378 713.71V729H118.87V713.71H121.378ZM137.233 729H134.725L127.179 717.582V729H124.671V713.688H127.179L134.725 725.084V713.688H137.233V729Z" fill="#FF383D"/>
</g>
<path d="M81.6694 628.643C130.442 628.643 169.979 668.18 169.979 716.953C169.979 765.728 130.442 805.265 81.6694 805.265V848.876" stroke="#FFD6D7" stroke-width="2.4" stroke-miterlimit="10"/>
<path d="M74.4072 851.081C74.4072 847.069 77.6578 843.819 81.6695 843.819C85.6811 843.819 88.9317 847.069 88.9317 851.081C88.9317 855.09 85.6811 858.343 81.6695 858.343C77.6578 858.343 74.4072 855.09 74.4072 851.081Z" fill="#F2AEB0"/>
<path d="M187.078 728.834H365.37C375.003 728.834 383.702 723.075 387.464 714.208L443.878 581.234C447.64 572.366 456.339 566.607 465.972 566.607H538.837" stroke="#FFB2B1" stroke-width="5" stroke-linejoin="round"/>
<path d="M202.324 729.241C202.324 734.277 198.242 738.36 193.206 738.36C188.17 738.36 184.087 734.277 184.087 729.241C184.087 724.205 188.17 720.123 193.206 720.123C198.242 720.123 202.324 724.205 202.324 729.241Z" fill="#FF383D"/>
<path opacity="0.15" d="M159.605 474.367C159.605 435.357 127.981 403.733 88.971 403.733C49.9612 403.733 18.3369 435.357 18.3369 474.367C18.3369 513.377 49.9612 545.001 88.971 545.001C127.981 545.001 159.605 513.377 159.605 474.367Z" fill="#FF383D"/>
<path d="M58.5885 455.711V457.757H54.5185V471.001H52.0105V457.757H47.9185V455.711H58.5885ZM73.3385 455.711V471.001H70.8305V464.313H63.6365V471.001H61.1285V455.711H63.6365V462.267H70.8305V455.711H73.3385ZM84.5822 471.001L81.0622 464.885H79.1482V471.001H76.6402V455.711H81.9202C83.0936 455.711 84.0836 455.916 84.8902 456.327C85.7116 456.737 86.3202 457.287 86.7162 457.977C87.1269 458.666 87.3322 459.436 87.3322 460.287C87.3322 461.284 87.0389 462.193 86.4522 463.015C85.8802 463.821 84.9929 464.371 83.7902 464.665L87.5742 471.001H84.5822ZM79.1482 462.883H81.9202C82.8589 462.883 83.5629 462.648 84.0322 462.179C84.5162 461.709 84.7582 461.079 84.7582 460.287C84.7582 459.495 84.5236 458.879 84.0542 458.439C83.5849 457.984 82.8736 457.757 81.9202 457.757H79.1482V462.883ZM97.5146 471.155C96.092 471.155 94.7793 470.825 93.5766 470.165C92.3886 469.49 91.4426 468.559 90.7386 467.371C90.0493 466.168 89.7046 464.819 89.7046 463.323C89.7046 461.827 90.0493 460.485 90.7386 459.297C91.4426 458.109 92.3886 457.185 93.5766 456.525C94.7793 455.85 96.092 455.513 97.5146 455.513C98.952 455.513 100.265 455.85 101.453 456.525C102.655 457.185 103.601 458.109 104.291 459.297C104.98 460.485 105.325 461.827 105.325 463.323C105.325 464.819 104.98 466.168 104.291 467.371C103.601 468.559 102.655 469.49 101.453 470.165C100.265 470.825 98.952 471.155 97.5146 471.155ZM97.5146 468.977C98.5266 468.977 99.4286 468.749 100.221 468.295C101.013 467.825 101.629 467.165 102.069 466.315C102.523 465.449 102.751 464.452 102.751 463.323C102.751 462.193 102.523 461.203 102.069 460.353C101.629 459.502 101.013 458.849 100.221 458.395C99.4286 457.94 98.5266 457.713 97.5146 457.713C96.5026 457.713 95.6006 457.94 94.8086 458.395C94.0166 458.849 93.3933 459.502 92.9386 460.353C92.4986 461.203 92.2786 462.193 92.2786 463.323C92.2786 464.452 92.4986 465.449 92.9386 466.315C93.3933 467.165 94.0166 467.825 94.8086 468.295C95.6006 468.749 96.5026 468.977 97.5146 468.977ZM117.011 467.877H110.609L109.509 471.001H106.891L112.369 455.689H115.273L120.751 471.001H118.111L117.011 467.877ZM116.307 465.831L113.821 458.725L111.313 465.831H116.307ZM133.01 455.711V457.757H128.94V471.001H126.432V457.757H122.34V455.711H133.01ZM80.6399 489.265C80.6399 490.042 80.4565 490.775 80.0899 491.465C79.7232 492.154 79.1365 492.719 78.3299 493.159C77.5232 493.584 76.4892 493.797 75.2279 493.797H72.4559V500.001H69.9479V484.711H75.2279C76.4012 484.711 77.3912 484.916 78.1979 485.327C79.0192 485.723 79.6279 486.265 80.0239 486.955C80.4345 487.644 80.6399 488.414 80.6399 489.265ZM75.2279 491.751C76.1812 491.751 76.8925 491.538 77.3619 491.113C77.8312 490.673 78.0659 490.057 78.0659 489.265C78.0659 487.593 77.1199 486.757 75.2279 486.757H72.4559V491.751H75.2279ZM92.2498 496.877H85.8478L84.7478 500.001H82.1298L87.6078 484.689H90.5118L95.9898 500.001H93.3498L92.2498 496.877ZM91.5458 494.831L89.0598 487.725L86.5518 494.831H91.5458ZM100.88 484.711V500.001H98.3717V484.711H100.88ZM116.734 500.001H114.226L106.68 488.583V500.001H104.172V484.689H106.68L114.226 496.085V484.689H116.734V500.001Z" fill="#FF383D"/>
<path d="M90.31 386.026C41.5377 386.026 2 425.564 2 474.339C2 523.111 41.5377 562.649 90.31 562.649V606.263" stroke="#FFD6D7" stroke-width="2.4" stroke-miterlimit="10"/>
<path d="M97.7701 608.546C97.7701 604.534 94.5195 601.283 90.5079 601.283C86.4989 601.283 83.2456 604.534 83.2456 608.546C83.2456 612.557 86.4989 615.808 90.5079 615.808C94.5195 615.808 97.7701 612.557 97.7701 608.546Z" fill="#F2AEB0"/>
<path d="M190.849 489.071H333.414C343.561 489.071 352.612 482.689 356.02 473.131L421.154 290.44C424.562 280.882 433.612 274.5 443.76 274.5H577.837" stroke="#FFB2B1" stroke-width="5" stroke-linejoin="round"/>
<path d="M201.098 489.587C201.098 494.623 197.016 498.705 191.98 498.705C186.944 498.705 182.861 494.623 182.861 489.587C182.861 484.551 186.944 480.468 191.98 480.468C197.016 480.468 201.098 484.551 201.098 489.587Z" fill="#FF383D"/>
<path opacity="0.13" d="M1160.34 686.366C1160.34 647.357 1128.72 615.732 1089.71 615.732C1050.7 615.732 1019.07 647.357 1019.07 686.366C1019.07 725.376 1050.7 757 1089.71 757C1128.72 757 1160.34 725.376 1160.34 686.366Z" fill="#FF383D"/>
<path d="M1048.17 679.154C1047.14 679.154 1046.21 678.978 1045.39 678.626C1044.57 678.26 1043.93 677.746 1043.46 677.086C1042.99 676.426 1042.75 675.656 1042.75 674.776H1045.44C1045.5 675.436 1045.75 675.979 1046.21 676.404C1046.68 676.83 1047.33 677.042 1048.17 677.042C1049.03 677.042 1049.71 676.837 1050.19 676.426C1050.67 676.001 1050.92 675.458 1050.92 674.798C1050.92 674.285 1050.76 673.867 1050.45 673.544C1050.16 673.222 1049.79 672.972 1049.33 672.796C1048.89 672.62 1048.28 672.43 1047.48 672.224C1046.49 671.96 1045.67 671.696 1045.04 671.432C1044.43 671.154 1043.9 670.728 1043.46 670.156C1043.02 669.584 1042.8 668.822 1042.8 667.868C1042.8 666.988 1043.02 666.218 1043.46 665.558C1043.9 664.898 1044.51 664.392 1045.31 664.04C1046.1 663.688 1047.01 663.512 1048.06 663.512C1049.54 663.512 1050.75 663.886 1051.69 664.634C1052.64 665.368 1053.17 666.38 1053.27 667.67H1050.5C1050.45 667.113 1050.19 666.636 1049.71 666.24C1049.22 665.844 1048.58 665.646 1047.79 665.646C1047.07 665.646 1046.49 665.83 1046.03 666.196C1045.58 666.563 1045.35 667.091 1045.35 667.78C1045.35 668.25 1045.49 668.638 1045.77 668.946C1046.06 669.24 1046.43 669.474 1046.87 669.65C1047.31 669.826 1047.91 670.017 1048.67 670.222C1049.68 670.501 1050.5 670.78 1051.14 671.058C1051.78 671.337 1052.32 671.77 1052.76 672.356C1053.22 672.928 1053.45 673.698 1053.45 674.666C1053.45 675.444 1053.23 676.177 1052.81 676.866C1052.4 677.556 1051.79 678.113 1050.98 678.538C1050.19 678.949 1049.25 679.154 1048.17 679.154ZM1068.61 663.71V679H1066.11V672.312H1058.91V679H1056.4V663.71H1058.91V670.266H1066.11V663.71H1068.61ZM1081.13 675.876H1074.73L1073.63 679H1071.01L1076.49 663.688H1079.4L1084.87 679H1082.23L1081.13 675.876ZM1080.43 673.83L1077.94 666.724L1075.44 673.83H1080.43ZM1095.68 679L1089.76 672.158V679H1087.26V663.71H1089.76V670.684L1095.7 663.71H1098.85L1092.21 671.366L1098.96 679H1095.68ZM1103.69 663.71V679H1101.18V663.71H1103.69ZM1119.54 679H1117.03L1109.49 667.582V679H1106.98V663.688H1109.49L1117.03 675.084V663.688H1119.54V679ZM1133.9 668.11C1133.5 667.348 1132.95 666.776 1132.25 666.394C1131.55 665.998 1130.73 665.8 1129.81 665.8C1128.8 665.8 1127.89 666.028 1127.1 666.482C1126.31 666.937 1125.69 667.582 1125.23 668.418C1124.79 669.254 1124.57 670.222 1124.57 671.322C1124.57 672.422 1124.79 673.398 1125.23 674.248C1125.69 675.084 1126.31 675.73 1127.1 676.184C1127.89 676.639 1128.8 676.866 1129.81 676.866C1131.17 676.866 1132.28 676.485 1133.13 675.722C1133.98 674.96 1134.5 673.926 1134.69 672.62H1128.95V670.618H1137.38V672.576C1137.22 673.764 1136.79 674.857 1136.1 675.854C1135.43 676.852 1134.54 677.651 1133.44 678.252C1132.35 678.839 1131.14 679.132 1129.81 679.132C1128.37 679.132 1127.06 678.802 1125.87 678.142C1124.68 677.468 1123.74 676.536 1123.03 675.348C1122.34 674.16 1122 672.818 1122 671.322C1122 669.826 1122.34 668.484 1123.03 667.296C1123.74 666.108 1124.68 665.184 1125.87 664.524C1127.07 663.85 1128.39 663.512 1129.81 663.512C1131.44 663.512 1132.88 663.916 1134.14 664.722C1135.42 665.514 1136.34 666.644 1136.91 668.11H1133.9ZM1055.07 700.322C1055.07 698.826 1055.42 697.484 1056.11 696.296C1056.81 695.108 1057.76 694.184 1058.95 693.524C1060.15 692.85 1061.46 692.512 1062.88 692.512C1064.51 692.512 1065.96 692.916 1067.22 693.722C1068.49 694.514 1069.42 695.644 1069.99 697.11H1066.98C1066.58 696.304 1066.03 695.702 1065.33 695.306C1064.62 694.91 1063.81 694.712 1062.88 694.712C1061.87 694.712 1060.97 694.94 1060.18 695.394C1059.39 695.849 1058.76 696.502 1058.31 697.352C1057.87 698.203 1057.65 699.193 1057.65 700.322C1057.65 701.452 1057.87 702.442 1058.31 703.292C1058.76 704.143 1059.39 704.803 1060.18 705.272C1060.97 705.727 1061.87 705.954 1062.88 705.954C1063.81 705.954 1064.62 705.756 1065.33 705.36C1066.03 704.964 1066.58 704.363 1066.98 703.556H1069.99C1069.42 705.023 1068.49 706.152 1067.22 706.944C1065.96 707.736 1064.51 708.132 1062.88 708.132C1061.45 708.132 1060.13 707.802 1058.95 707.142C1057.76 706.468 1056.81 705.536 1056.11 704.348C1055.42 703.16 1055.07 701.818 1055.07 700.322ZM1085.14 692.71V708H1082.63V701.312H1075.43V708H1072.93V692.71H1075.43V699.266H1082.63V692.71H1085.14ZM1090.95 692.71V708H1088.44V692.71H1090.95ZM1096.75 705.976H1101.92V708H1094.24V692.71H1096.75V705.976ZM1106.52 705.976H1111.69V708H1104.01V692.71H1106.52V705.976ZM1118.83 708.154C1117.8 708.154 1116.88 707.978 1116.06 707.626C1115.23 707.26 1114.59 706.746 1114.12 706.086C1113.65 705.426 1113.42 704.656 1113.42 703.776H1116.1C1116.16 704.436 1116.41 704.979 1116.87 705.404C1117.34 705.83 1117.99 706.042 1118.83 706.042C1119.69 706.042 1120.37 705.837 1120.85 705.426C1121.34 705.001 1121.58 704.458 1121.58 703.798C1121.58 703.285 1121.42 702.867 1121.12 702.544C1120.82 702.222 1120.45 701.972 1119.99 701.796C1119.55 701.62 1118.94 701.43 1118.15 701.224C1117.15 700.96 1116.33 700.696 1115.7 700.432C1115.09 700.154 1114.56 699.728 1114.12 699.156C1113.68 698.584 1113.46 697.822 1113.46 696.868C1113.46 695.988 1113.68 695.218 1114.12 694.558C1114.56 693.898 1115.18 693.392 1115.97 693.04C1116.76 692.688 1117.68 692.512 1118.72 692.512C1120.2 692.512 1121.41 692.886 1122.35 693.634C1123.3 694.368 1123.83 695.38 1123.93 696.67H1121.16C1121.12 696.113 1120.85 695.636 1120.37 695.24C1119.88 694.844 1119.25 694.646 1118.45 694.646C1117.73 694.646 1117.15 694.83 1116.69 695.196C1116.24 695.563 1116.01 696.091 1116.01 696.78C1116.01 697.25 1116.15 697.638 1116.43 697.946C1116.72 698.24 1117.09 698.474 1117.53 698.65C1117.97 698.826 1118.57 699.017 1119.33 699.222C1120.35 699.501 1121.17 699.78 1121.8 700.058C1122.44 700.337 1122.99 700.77 1123.43 701.356C1123.88 701.928 1124.11 702.698 1124.11 703.666C1124.11 704.444 1123.89 705.177 1123.47 705.866C1123.06 706.556 1122.45 707.113 1121.64 707.538C1120.85 707.949 1119.91 708.154 1118.83 708.154Z" fill="#FA5652"/>
<path d="M1090.21 599.802C1041.43 599.802 1001.9 639.339 1001.9 688.112C1001.9 736.887 1041.43 776.424 1090.21 776.424V820.035" stroke="#FFD6D7" stroke-width="2.4" stroke-miterlimit="10"/>
<path d="M1097.46 822.239C1097.46 818.228 1094.21 814.977 1090.2 814.977C1086.19 814.977 1082.94 818.228 1082.94 822.239C1082.94 826.248 1086.19 829.501 1090.2 829.501C1094.21 829.501 1097.46 826.248 1097.46 822.239Z" fill="#F2AEB0"/>
<path d="M668.837 740.401H817.184C824.462 740.401 831.347 737.098 835.902 731.422L861.433 699.606C865.988 693.929 872.873 690.627 880.152 690.627H974.333" stroke="#FFA6A6" stroke-width="5" stroke-linejoin="round"/>
<path d="M980.281 689.913C980.281 694.949 976.198 699.031 971.162 699.031C966.126 699.031 962.044 694.949 962.044 689.913C962.044 684.877 966.126 680.795 971.162 680.795C976.198 680.795 980.281 684.877 980.281 689.913Z" fill="#FF383D"/>
<path opacity="0.15" d="M1160.34 200.367C1160.34 161.357 1128.71 129.733 1089.7 129.733C1050.69 129.733 1019.07 161.357 1019.07 200.367C1019.07 239.376 1050.69 271.001 1089.7 271.001C1128.71 271.001 1160.34 239.376 1160.34 200.367Z" fill="#FF383D"/>
<path d="M1044.2 198.71V214H1041.69V207.312H1034.5V214H1031.99V198.71H1034.5V205.266H1041.69V198.71H1044.2ZM1050.01 200.734V205.222H1055.29V207.268H1050.01V211.954H1055.95V214H1047.5V198.688H1055.95V200.734H1050.01ZM1068.25 210.876H1061.85L1060.75 214H1058.13L1063.61 198.688H1066.52L1071.99 214H1069.35L1068.25 210.876ZM1067.55 208.83L1065.06 201.724L1062.56 208.83H1067.55ZM1079.37 198.71C1081 198.71 1082.42 199.025 1083.64 199.656C1084.87 200.272 1085.82 201.167 1086.48 202.34C1087.15 203.499 1087.49 204.855 1087.49 206.41C1087.49 207.965 1087.15 209.314 1086.48 210.458C1085.82 211.602 1084.87 212.482 1083.64 213.098C1082.42 213.699 1081 214 1079.37 214H1074.38V198.71H1079.37ZM1079.37 211.954C1081.16 211.954 1082.53 211.47 1083.48 210.502C1084.44 209.534 1084.91 208.17 1084.91 206.41C1084.91 204.635 1084.44 203.249 1083.48 202.252C1082.53 201.255 1081.16 200.756 1079.37 200.756H1076.88V211.954H1079.37ZM1099.19 210.876H1092.79L1091.69 214H1089.07L1094.55 198.688H1097.45L1102.93 214H1100.29L1099.19 210.876ZM1098.49 208.83L1096 201.724L1093.49 208.83H1098.49ZM1104.48 206.322C1104.48 204.826 1104.82 203.484 1105.51 202.296C1106.22 201.108 1107.16 200.184 1108.35 199.524C1109.55 198.849 1110.87 198.512 1112.29 198.512C1113.92 198.512 1115.36 198.915 1116.62 199.722C1117.9 200.514 1118.82 201.643 1119.39 203.11H1116.38C1115.98 202.303 1115.43 201.702 1114.73 201.306C1114.03 200.91 1113.21 200.712 1112.29 200.712C1111.28 200.712 1110.37 200.939 1109.58 201.394C1108.79 201.849 1108.17 202.501 1107.71 203.352C1107.27 204.203 1107.05 205.193 1107.05 206.322C1107.05 207.451 1107.27 208.441 1107.71 209.292C1108.17 210.143 1108.79 210.803 1109.58 211.272C1110.37 211.727 1111.28 211.954 1112.29 211.954C1113.21 211.954 1114.03 211.756 1114.73 211.36C1115.43 210.964 1115.98 210.363 1116.38 209.556H1119.39C1118.82 211.023 1117.9 212.152 1116.62 212.944C1115.36 213.736 1113.92 214.132 1112.29 214.132C1110.85 214.132 1109.54 213.802 1108.35 213.142C1107.16 212.467 1106.22 211.536 1105.51 210.348C1104.82 209.16 1104.48 207.818 1104.48 206.322ZM1134.54 198.71V214H1132.03V207.312H1124.84V214H1122.33V198.71H1124.84V205.266H1132.03V198.71H1134.54ZM1140.35 200.734V205.222H1145.63V207.268H1140.35V211.954H1146.29V214H1137.84V198.688H1146.29V200.734H1140.35Z" fill="#FF383D"/>
<path d="M1090.21 113.65C1041.43 113.65 1001.9 153.188 1001.9 201.96C1001.9 250.733 1041.43 290.273 1090.21 290.273V333.884" stroke="#FFD6D7" stroke-width="2.4" stroke-miterlimit="10"/>
<path d="M1097.47 336.088C1097.47 332.076 1094.22 328.826 1090.21 328.826C1086.19 328.826 1082.94 332.076 1082.94 336.088C1082.94 340.1 1086.19 343.35 1090.21 343.35C1094.22 343.35 1097.47 340.1 1097.47 336.088Z" fill="#F2AEB0"/>
<path d="M976.177 208.86H846.415C842.448 208.86 838.544 207.877 835.051 205.999L796.66 185.361C793.166 183.483 789.262 182.5 785.296 182.5H618.338" stroke="#FFB2B1" stroke-width="5" stroke-linejoin="round"/>
<path d="M980.278 208.146C980.278 213.182 976.196 217.265 971.16 217.265C966.124 217.265 962.042 213.182 962.042 208.146C962.042 203.11 966.124 199.028 971.16 199.028C976.196 199.028 980.278 203.11 980.278 208.146Z" fill="#FF383D"/>
<defs>
<filter id="filter0_d" x="20.3052" y="713.512" width="116.928" height="15.642" filterUnits="userSpaceOnUse" color-interpolation-filters="sRGB">
<feFlood flood-opacity="0" result="BackgroundImageFix"/>
<feColorMatrix in="SourceAlpha" type="matrix" values="0 0 0 0 0 0 0 0 0 0 0 0 0 0 0 0 0 0 127 0"/>
<feOffset/>
<feColorMatrix type="matrix" values="0 0 0 0 0 0 0 0 0 0 0 0 0 0 0 0 0 0 0.1 0"/>
<feBlend mode="normal" in2="BackgroundImageFix" result="effect1_dropShadow"/>
<feBlend mode="normal" in="SourceGraphic" in2="effect1_dropShadow" result="shape"/>
</filter>
<clipPath id="clip1">
<rect width="444" height="776" fill="white" transform="translate(282.337 79)"/>
</clipPath>
</defs>
</svg>
