<svg width="445" height="776" viewBox="0 0 445 776" fill="none" xmlns="http://www.w3.org/2000/svg">
<g clip-path="url(#clip0)">
<path d="M224.361 658.739C223.349 672.07 222.357 685.38 221.264 698.71C220.597 707.59 231 714.71 239.623 714.305C250.027 713.8 255.633 705.83 256.301 696.869C257.313 683.539 258.305 670.209 259.398 656.899C260.066 648.019 249.662 640.898 241.04 641.303C230.656 641.809 225.11 649.778 224.361 658.739Z" fill="#FAB58A"/>
<path d="M352.08 662.947C354.185 676.095 356.27 689.344 358.375 702.512C359.812 711.311 371.552 715.843 379.851 713.415C389.829 710.482 393.432 701.521 392.015 692.641C389.91 679.493 387.825 666.244 385.72 653.076C384.304 644.276 372.564 639.745 364.245 642.173C354.266 645.086 350.664 654.047 352.08 662.947Z" fill="#FAB58A"/>
<path d="M196.328 140.846C187.078 149.382 122.247 235.897 151.92 267.533C170.157 286.972 218.654 279.852 228.41 262.375C229.664 260.11 231.729 255.093 232.539 248.944C232.903 246.193 234.988 230.597 228.41 225.196C217.581 216.276 190.094 240.65 183.961 234.501C179.346 229.849 192.138 213.181 208.776 173.555C222.277 141.372 221.933 133.079 219.119 131.198C217.702 130.247 215.638 130.894 211.529 132.189C211.509 132.189 202.785 134.899 196.328 140.846Z" fill="#FAB58A"/>
<path d="M381.004 166.879C381.004 166.879 366.168 119.688 361.209 99.7432C353.497 68.9767 332.528 50.4683 302.936 50.4683C272.919 50.4683 251.788 69.3206 243.489 99.9051C235.028 131.42 223.876 164.351 223.876 164.351C222.54 168.538 224.625 172.988 228.653 174.667C238.206 178.429 258.163 185.145 302.875 184.639C342.79 184.134 363.415 178.531 373.819 177.438C379 176.852 382.36 171.835 381.004 166.879Z" fill="#306DDF"/>
<path d="M319.958 151.972H285.833V210.046C285.833 214.9 289.779 218.845 294.637 218.845H311.154C316.011 218.845 319.958 214.9 319.958 210.046V151.972Z" fill="#FAB58A"/>
<path d="M302.43 3.37793C290.67 3.37793 281.137 12.9052 281.137 24.6576C281.137 36.41 290.67 45.9373 302.43 45.9373C314.19 45.9373 323.723 36.41 323.723 24.6576C323.743 12.9052 314.19 3.37793 302.43 3.37793Z" fill="#306DDF"/>
<path d="M252.294 158.829C246.768 158.829 246.586 140.219 246.586 138.136C246.586 136.032 246.748 117.443 252.294 117.443C257.82 117.443 258.002 136.052 258.002 138.136C257.9 140.239 257.739 158.829 252.294 158.829ZM252.294 120.618C251.282 121.953 249.703 127.921 249.703 138.055C249.703 148.189 251.302 154.136 252.294 155.491C253.306 154.156 254.885 148.209 254.885 138.055C254.885 127.921 253.286 122.055 252.294 120.618Z" fill="white"/>
<path d="M352.505 158.829C346.98 158.829 346.797 140.219 346.797 138.136C346.797 136.032 346.959 117.443 352.505 117.443C358.031 117.443 358.213 136.052 358.213 138.136C358.112 140.239 357.95 158.829 352.505 158.829ZM352.505 120.618C351.493 121.953 349.914 127.921 349.914 138.055C349.914 148.189 351.513 154.136 352.505 155.491C353.517 154.156 355.096 148.209 355.096 138.055C355.096 127.921 353.497 122.055 352.505 120.618Z" fill="white"/>
<path d="M302.936 164.614C334.107 164.614 359.367 139.37 359.367 108.219C359.367 77.0681 334.107 51.8237 302.936 51.8237C271.765 51.8237 246.505 77.0681 246.505 108.219C246.505 139.37 271.765 164.614 302.936 164.614Z" fill="#FAB58A"/>
<path d="M245.331 112.325C245.412 113.256 245.493 114.166 245.574 115.016C245.574 115.097 245.574 115.258 245.574 115.359C245.655 116.371 245.817 117.281 245.999 118.293V118.373C246.161 119.385 246.424 120.376 246.586 121.468C250.351 105.873 264.357 94.4035 281.137 94.4035C283.242 94.4035 285.246 94.5653 287.25 94.9091C288.768 95.253 290.265 95.4148 291.864 95.4148C302.349 95.4148 311.073 87.4451 312.166 77.23C312.166 77.23 312.247 77.23 312.247 77.1491C312.085 78.2414 312.004 79.3337 312.004 80.426C312.004 92.4009 321.74 102.13 333.722 102.13H333.803C345.543 104.477 354.934 113.195 358.375 124.502C359.124 121.994 359.63 119.385 360.055 116.796C360.055 116.715 360.055 116.634 360.055 116.472C360.217 115.38 360.298 114.287 360.399 113.114C360.399 112.871 360.48 112.528 360.48 112.285C360.561 111.031 360.642 109.777 360.642 108.522C360.642 107.43 360.642 106.419 360.561 105.428C360.561 105.084 360.48 104.841 360.48 104.497C360.399 103.749 360.399 102.98 360.318 102.313C360.318 101.969 360.237 101.645 360.156 101.301C360.076 100.634 359.995 99.8852 359.914 99.1975C359.833 98.8536 359.833 98.5299 359.752 98.1861C359.59 97.5185 359.509 96.7701 359.327 96.0824C359.246 95.7385 359.165 95.4958 359.165 95.1519C359.003 94.4035 358.821 93.7157 358.578 92.9673C358.497 92.7245 358.416 92.4616 358.335 92.2189C358.092 91.4704 357.829 90.722 357.586 89.9533C357.505 89.7915 357.424 89.5286 357.424 89.3667C357.181 88.5374 356.837 87.6878 356.493 86.9394C356.412 86.8585 356.412 86.6967 356.331 86.5955C355.987 85.665 355.582 84.7548 355.157 83.8243C350.218 73.2654 342.082 64.3854 332.022 58.5193C328.844 56.6786 325.484 55.0806 321.962 53.9074C321.881 53.9074 321.719 53.8264 321.618 53.8264C320.606 53.4826 319.614 53.1589 318.521 52.896C318.359 52.8151 318.177 52.8151 318.015 52.7341C315.748 52.1475 313.4 51.6418 311.053 51.298C310.708 51.2171 310.466 51.2171 310.121 51.2171C309.19 51.1361 308.361 51.0552 307.429 50.9743C307.085 50.9743 306.762 50.8934 306.417 50.8934C305.243 50.8125 304.07 50.8125 302.815 50.8125C270.956 50.8125 245.108 76.6232 245.108 108.482C245.108 109.574 245.108 110.586 245.189 111.658C245.331 111.981 245.331 112.163 245.331 112.325Z" fill="#306DDF"/>
<path d="M357.95 201.995C343.62 193.439 327.164 190.506 319.958 189.434C317.691 198.819 312.915 204.018 302.349 204.018C291.621 204.018 287.917 198.657 285.914 189.009C283.566 189.555 279.983 190.303 275.591 190.769C267.211 191.679 263.021 190.87 257.334 191.112C250.513 191.396 245.898 192.994 236.668 196.271C217.945 202.905 208.574 206.223 204.748 214.9C202.158 220.766 203.352 226.167 205.659 236.564C207.238 243.685 209.788 254.547 219.16 263.022C223.208 266.684 227.317 268.808 230.211 270.041C232.296 269.172 234.482 268.019 236.668 266.522C247.476 259.179 251.646 247.932 253.205 242.491C251.16 247.427 248.792 254.79 248.428 263.852C247.922 276.777 252.152 277.344 251.019 287.559C249.46 301.779 247.517 308.474 244.805 318.649C244.461 319.903 245.23 321.258 246.566 321.501C254.034 323.18 276.34 328.196 298.969 328.116C328.399 328.116 348.619 324.94 355.744 323.847C357.08 323.605 357.93 322.33 357.586 320.995C356.412 316.302 354.408 308.252 352.384 290.33C350.785 276.251 352.465 273.561 352.384 263.69C352.384 256.408 349.368 241.824 349.368 241.824L352.222 269.657C352.222 269.657 362.545 270.163 377.3 263.71C382.421 261.445 388.878 255.659 391.55 253.07C392.299 252.322 392.562 251.149 392.056 250.218C388.392 242.471 372.038 210.369 357.95 201.995Z" fill="#FEAD18"/>
<path d="M302.936 164.614C296.985 164.614 291.277 163.684 285.913 162.025V172.584C291.277 174.263 297.147 174.344 303.199 173.757C311.173 173.009 314.594 171.492 319.978 169.145V162.025C314.594 163.704 308.886 164.614 302.936 164.614Z" fill="#E4996E"/>
<path d="M254.46 323.342C254.46 323.342 282.311 328.035 301.762 328.035C322.387 328.035 347.891 325.102 347.891 325.102C347.891 325.102 350.157 339.767 351.068 342.943C351.999 346.118 334.208 352.49 302.511 351.823C260.997 351.074 251.1 345.127 251.1 343.448C251.019 342.295 254.46 323.342 254.46 323.342Z" fill="#FAB58A"/>
<path d="M361.229 352.591C386.975 403.707 399.059 435.809 405.921 504.361C411.71 562.03 404.403 639.038 403.229 683.033C403.229 684.368 402.905 685.723 402.136 686.896C400.031 690.254 386.631 693.005 382.927 693.268C364.306 694.522 347.041 691.852 345.361 685.299C335.807 646.582 328.338 605.763 323.055 565.287C318.704 531.769 313.502 494.388 310.567 466.818C310.324 464.552 306.964 464.471 306.701 466.818C306.195 471.43 305.608 497.16 304.94 504.785C303.098 526.409 299.495 547.689 295.973 569.15C290.448 603.174 277.271 651.194 267.292 683.539C266.624 685.723 264.357 688.737 261.847 689.162C257.394 689.83 246.748 690.76 241.141 690.335C232.843 689.668 215.395 687.24 214.484 683.134C201.915 630.764 201.49 529.767 219.686 424.764C224.058 399.783 234.118 371.889 243.327 355.12C243.327 355.12 273.101 360.986 300.426 360.905C333.378 360.723 361.229 352.591 361.229 352.591Z" fill="#2C3C56"/>
<path d="M251.018 343.549C251.018 343.549 247.739 344.298 245.817 347.656C243.894 351.014 243.388 355.039 243.388 355.039C243.388 355.039 264.944 361.411 305.689 362.503C345.178 363.514 361.209 352.612 361.209 352.612C361.209 352.612 359.772 348.161 356.432 346.24C353.072 344.318 350.906 342.963 350.906 342.963C350.906 342.963 338.58 353.947 300.932 351.256C263.365 348.485 251.018 343.549 251.018 343.549Z" fill="#F7ABB2"/>
<path d="M169.853 764.936C168.092 760.991 171.29 753.365 181.755 745.577C194.506 736.111 207.238 722.538 209.849 719.099C217.723 708.54 221.244 698.811 221.244 698.811C221.244 698.811 224.26 703.928 236.344 704.171C248.084 704.333 255.714 700.652 255.714 700.652C255.714 700.652 260.491 710.786 261.422 716.065C262.353 721.345 265.106 739.206 260.997 742.543C256.544 746.225 257.394 745.234 251.686 747.661C243.712 751.019 240.271 749.421 229.462 754.963C225.434 757.067 207.987 773.229 190.377 774.746" fill="#C7645D"/>
<path d="M443.487 766.19C445.248 762.245 445.41 754.215 432.173 745.416C418.915 736.617 403.33 722.619 401.306 718.755C398.209 712.889 391.995 699.903 391.995 699.903C391.995 699.903 389.06 705.102 376.977 705.344C365.237 705.506 358.193 701.663 358.193 701.663C358.193 701.663 352.91 709.37 351.068 719.261C350.137 724.541 348.214 740.379 352.323 743.818C356.776 747.499 355.926 746.508 361.634 748.935C369.609 752.293 373.03 750.695 383.858 756.238C387.886 758.341 405.233 774.665 422.943 776.02" fill="#C7645D"/>
<path d="M349.976 241.48C349.976 241.48 352.162 253.879 352.323 259.907C352.404 263.589 352.323 269.455 352.323 269.455C352.323 269.455 355.096 269.455 356.513 269.293C357.93 269.212 359.61 268.868 359.61 268.868C359.61 268.868 357.93 263.346 356.169 257.804C354.509 252.949 349.976 241.48 349.976 241.48Z" fill="#E0E1E0"/>
<path d="M351.736 354.695C370.762 392.4 382.421 433.482 388.716 475.131C395.415 519.208 396.002 564.053 393.918 608.554C392.744 634.284 390.558 659.933 388.129 685.561C387.886 688.494 392.4 688.414 392.663 685.561C397.014 639.543 400.455 593.383 399.281 547.203C398.188 504.037 393.068 460.79 381.409 419.222C374.952 396.263 366.39 373.79 355.663 352.429C354.347 349.84 350.4 352.106 351.736 354.695Z" fill="white"/>
<path d="M247.922 355.625C231.324 393.917 222.094 434.817 217.055 476.143C211.853 518.641 210.598 561.706 211.104 604.448C211.448 629.834 212.703 655.159 215.638 680.383C215.982 683.235 220.495 683.316 220.172 680.383C215.051 636.307 214.808 591.805 216.407 547.466C217.824 506.161 221.346 464.674 230.575 424.177C235.696 401.543 242.659 379.171 251.869 357.891C252.962 355.281 249.096 352.935 247.922 355.625Z" fill="white"/>
<path d="M301.762 328.035C282.311 328.035 254.459 323.342 254.459 323.342C254.459 323.342 254.034 325.526 253.528 328.459C266.098 332.404 283.12 334.406 301.823 333.739C319.432 333.071 335.361 329.976 347.445 325.526C347.607 325.445 347.688 325.365 347.87 325.284C347.87 325.203 347.87 325.122 347.87 325.122C347.87 325.122 322.306 328.136 301.762 328.035Z" fill="#F0A174"/>
<path d="M266.563 360.601C250.938 363.413 244.501 387.019 242.619 393.957C240.291 402.513 239.967 409.937 240.068 414.994C244.42 415.702 249.845 416.167 256.038 415.722C264.175 415.136 265.997 413.538 270.915 414.63C277.412 416.066 278.384 419.748 285.063 421.892C290.549 423.631 295.609 422.984 298.847 422.256C298.422 416.815 297.592 409.27 295.892 400.369C292.107 380.627 289.638 368.632 279.983 363.15C278.566 362.321 273.04 359.428 266.563 360.601Z" fill="white"/>
<path d="M287.432 340.697C308.543 332.93 321.234 325.931 342.102 305.905C353.558 294.922 358.74 281.571 361.33 271.963C370.176 266.785 379.021 261.586 387.886 256.408C389.526 263.447 391.307 275.523 387.825 289.42C384.405 303.053 377.665 311.407 368.435 322.614C368.435 322.614 344.713 352.106 296.479 369.967C277.918 376.844 268.952 347.514 287.432 340.697Z" fill="#FAB58A"/>
<path d="M208.877 120.356L229.138 103.829C236.06 98.2465 245.149 97.8419 249.379 102.838L250.816 104.578C255.026 109.574 252.881 118.171 246.019 123.693L225.758 140.219C218.836 145.802 209.748 146.207 205.517 141.21L204.08 139.471C199.87 134.495 202.016 125.878 208.877 120.356Z" fill="#FAB58A"/>
<path d="M267.171 362.381L286.055 344.277C292.512 338.169 301.54 337.016 306.154 341.668L307.733 343.286C312.328 347.939 310.87 356.677 304.495 362.725L285.61 380.829C279.153 386.938 270.126 388.091 265.511 383.438L263.932 381.82C259.338 377.168 260.795 368.429 267.171 362.381Z" fill="#FAB58A"/>
<path d="M183.273 28.6021C188.232 25.7904 194.142 23.2417 196.834 25.6286C201.085 29.391 193.899 42.3166 198.109 45.7553C202.077 49.012 210.8 39.4644 217.945 42.8627C222.054 44.8248 223.775 50.1852 224.584 54.433" stroke="#F7ABB2" stroke-width="3" stroke-miterlimit="10"/>
<path d="M228.207 0.34375C230.17 5.78503 217.844 13.4312 219.908 18.569C221.851 23.4237 233.935 19.5197 238.57 26.114C241.242 29.9168 240.25 35.4593 238.955 39.5857" stroke="#F7ABB2" stroke-width="3" stroke-miterlimit="10"/>
<path d="M163.579 71.3434C166.169 66.1247 169.691 60.562 173.213 60.9463C178.759 61.5734 179.751 76.4813 185.094 76.8656C190.134 77.2297 192.219 64.2435 199.951 62.868C204.404 62.0791 208.715 65.5178 211.671 68.5722" stroke="#F7ABB2" stroke-width="3" stroke-miterlimit="10"/>
</g>
<defs>
<clipPath id="clip0">
<rect width="444" height="776" fill="white" transform="translate(0.337402)"/>
</clipPath>
</defs>
</svg>
