<svg viewBox="0 0 709 412" preserveAspectRatio="xMinYMax meet" fill="none" xmlns="http://www.w3.org/2000/svg">
<path d="M662.394 220.376C662.164 220.26 661.933 220.145 661.818 219.915C661.703 219.685 661.588 219.455 661.588 219.225C661.588 218.879 661.703 218.534 661.933 218.304C662.164 218.074 662.509 217.959 662.854 217.959H669.068V211.745C669.068 211.514 669.068 211.399 669.068 211.169C669.183 210.939 669.183 210.824 669.298 210.709C669.413 210.594 669.644 210.479 669.759 210.364C669.874 210.249 670.104 210.249 670.334 210.249C670.564 210.249 670.679 210.249 670.909 210.364C671.024 210.479 671.255 210.594 671.37 210.709C671.485 210.824 671.6 211.054 671.6 211.169C671.715 211.399 671.715 211.514 671.715 211.745V220.491H662.969C662.739 220.376 662.624 220.376 662.394 220.376Z" fill="#110580"/>
<path d="M535.001 220.261C534.77 220.146 534.54 220.03 534.425 219.8C534.31 219.57 534.195 219.34 534.195 219.11C534.195 218.765 534.31 218.419 534.54 218.189C534.77 217.959 535.115 217.844 535.461 217.844H551.457C551.802 217.844 552.032 218.074 552.262 218.304C552.492 218.534 552.608 218.88 552.608 219.11C552.608 219.34 552.492 219.685 552.262 219.915C552.032 220.146 551.802 220.261 551.457 220.376H535.461C535.346 220.376 535.231 220.376 535.001 220.261ZM566.878 220.261C566.647 220.146 566.417 219.916 566.302 219.685C566.187 219.455 566.072 219.11 566.187 218.88C566.302 218.534 566.417 218.304 566.647 218.189C566.877 217.959 567.223 217.959 567.453 217.959H583.449C583.794 217.959 584.024 218.189 584.255 218.419C584.485 218.65 584.6 218.995 584.6 219.225C584.6 219.57 584.485 219.8 584.255 220.03C584.024 220.261 583.794 220.376 583.449 220.491H567.568C567.223 220.376 566.993 220.376 566.878 220.261ZM598.754 220.261C598.524 220.146 598.294 220.03 598.179 219.8C598.064 219.57 597.949 219.34 597.949 219.11C597.949 218.765 598.064 218.419 598.294 218.189C598.524 217.959 598.87 217.844 599.215 217.844H615.211C615.326 217.844 615.556 217.844 615.786 217.844C615.901 217.844 616.131 217.959 616.246 218.074C616.361 218.189 616.476 218.304 616.591 218.535C616.706 218.65 616.706 218.88 616.706 219.11C616.706 219.34 616.706 219.455 616.591 219.685C616.476 219.8 616.361 220.03 616.246 220.146C616.131 220.261 615.901 220.376 615.786 220.376C615.556 220.376 615.441 220.491 615.211 220.376H599.215C599.1 220.376 598.869 220.376 598.754 220.261ZM630.631 220.261C630.401 220.146 630.171 220.03 630.056 219.8C629.941 219.57 629.825 219.34 629.825 219.11C629.825 218.995 629.825 218.765 629.94 218.649C630.056 218.534 630.056 218.304 630.171 218.189C630.286 218.074 630.401 217.959 630.631 217.959C630.746 217.844 630.976 217.844 631.091 217.844H647.087C647.432 217.844 647.778 217.959 648.008 218.189C648.238 218.419 648.353 218.765 648.353 219.11C648.353 219.455 648.238 219.8 648.008 220.03C647.778 220.261 647.432 220.376 647.087 220.376H631.091C630.976 220.376 630.746 220.376 630.631 220.261Z" fill="#110580"/>
<path d="M510.834 220.376V211.515C510.834 211.169 511.065 210.939 511.295 210.709C511.525 210.479 511.87 210.364 512.216 210.364C512.561 210.364 512.791 210.479 513.021 210.709C513.251 210.939 513.482 211.169 513.482 211.515V217.729H519.696C519.926 217.729 520.041 217.729 520.271 217.729C520.501 217.729 520.616 217.844 520.731 217.959C520.846 218.074 520.961 218.189 521.076 218.419C521.191 218.534 521.192 218.765 521.192 218.995C521.192 219.225 521.191 219.34 521.076 219.57C520.961 219.685 520.846 219.915 520.731 220.03C520.616 220.145 520.501 220.261 520.271 220.261C520.041 220.261 519.926 220.376 519.696 220.261H510.834V220.376Z" fill="#110580"/>
<path d="M511.525 197.82C511.295 197.705 511.065 197.59 510.95 197.36C510.835 197.13 510.719 196.9 510.719 196.669V181.824C510.719 181.594 510.719 181.479 510.834 181.249C510.834 181.019 510.95 180.904 511.065 180.789C511.18 180.673 511.295 180.558 511.525 180.443C511.64 180.328 511.87 180.328 512.1 180.328C512.331 180.328 512.446 180.328 512.676 180.443C512.791 180.558 513.021 180.673 513.136 180.789C513.251 180.904 513.366 181.134 513.482 181.249C513.482 181.479 513.482 181.594 513.482 181.824V196.669C513.482 197.015 513.366 197.36 513.136 197.59C512.906 197.82 512.561 197.935 512.216 197.935C511.87 197.935 511.755 197.935 511.525 197.82ZM511.525 168.13C511.295 168.015 511.065 167.9 510.95 167.669C510.835 167.439 510.719 167.209 510.719 166.979V152.019C510.719 151.674 510.95 151.444 511.18 151.213C511.41 150.983 511.755 150.868 512.1 150.868C512.446 150.868 512.676 150.983 512.906 151.213C513.136 151.444 513.366 151.674 513.366 152.019V166.979C513.366 167.094 513.366 167.324 513.251 167.439C513.136 167.554 513.136 167.785 512.906 167.9C512.791 168.015 512.676 168.13 512.445 168.13C512.33 168.245 512.1 168.245 511.985 168.245C511.87 168.245 511.755 168.245 511.525 168.13ZM511.525 138.324C511.295 138.209 511.065 138.094 510.95 137.864C510.835 137.634 510.719 137.404 510.719 137.174V122.329C510.719 121.983 510.95 121.753 511.18 121.523C511.41 121.293 511.755 121.178 512.1 121.178C512.446 121.178 512.676 121.293 513.021 121.523C513.251 121.753 513.366 121.983 513.482 122.329V137.174C513.482 137.519 513.366 137.864 513.136 138.094C512.906 138.324 512.561 138.44 512.216 138.44C511.985 138.44 511.755 138.439 511.525 138.324Z" fill="#110580"/>
<path d="M511.64 108.634C511.41 108.519 511.18 108.404 511.065 108.174C510.95 107.944 510.834 107.714 510.834 107.484V98.7375H519.581C519.926 98.7375 520.156 98.9676 520.386 99.1978C520.616 99.4279 520.731 99.7734 520.731 100.004C520.731 100.234 520.616 100.579 520.386 100.809C520.156 101.039 519.926 101.154 519.581 101.269H513.366V107.484C513.366 107.829 513.251 108.174 513.021 108.404C512.791 108.634 512.446 108.749 512.1 108.749C511.985 108.749 511.755 108.75 511.64 108.634Z" fill="#110580"/>
<path d="M535.001 101.154C534.77 101.039 534.54 100.924 534.425 100.694C534.31 100.464 534.195 100.234 534.195 100.004C534.195 99.8884 534.195 99.6581 534.31 99.543C534.31 99.428 534.425 99.1979 534.54 99.0828C534.655 98.9678 534.77 98.8527 535.001 98.8527C535.116 98.7377 535.346 98.7375 535.461 98.7375H551.457C551.687 98.7375 551.802 98.7375 552.033 98.7375C552.263 98.7375 552.378 98.8526 552.493 98.9677C552.608 99.0827 552.723 99.198 552.838 99.4281C552.953 99.6583 552.953 99.7734 552.953 100.004C552.953 100.234 552.953 100.349 552.838 100.579C552.723 100.809 552.608 100.924 552.493 101.039C552.378 101.154 552.263 101.269 552.033 101.269C551.802 101.269 551.687 101.384 551.457 101.269H535.461C535.346 101.269 535.231 101.154 535.001 101.154ZM566.878 101.154C566.647 101.039 566.417 100.924 566.302 100.694C566.187 100.464 566.072 100.234 566.072 100.004C566.072 99.6583 566.187 99.313 566.417 99.0828C566.648 98.8527 566.993 98.7375 567.338 98.7375H583.218C583.564 98.7375 583.794 98.9676 584.024 99.1978C584.254 99.4279 584.369 99.7734 584.369 100.004C584.369 100.234 584.254 100.579 584.024 100.809C583.794 101.039 583.564 101.154 583.218 101.269H567.223C567.223 101.269 567.108 101.269 566.878 101.154ZM598.754 101.154C598.524 101.039 598.294 100.924 598.179 100.694C598.064 100.464 597.949 100.234 597.949 100.004C597.949 99.8884 597.949 99.6581 598.064 99.543C598.179 99.428 598.179 99.1979 598.294 99.0828C598.409 98.9678 598.524 98.8527 598.754 98.8527C598.869 98.7377 599.1 98.7375 599.215 98.7375H615.211C615.556 98.7375 615.901 98.8527 616.131 99.0828C616.361 99.313 616.477 99.6583 616.477 100.004C616.477 100.119 616.476 100.349 616.361 100.464C616.246 100.579 616.246 100.809 616.131 100.924C616.016 101.039 615.901 101.154 615.671 101.154C615.441 101.269 615.326 101.269 615.211 101.269H599.215C599.1 101.269 598.984 101.269 598.754 101.154ZM630.631 101.154C630.401 101.039 630.171 100.924 630.056 100.694C629.941 100.464 629.825 100.234 629.825 100.004C629.825 99.6583 629.941 99.313 630.286 99.0828C630.516 98.8527 630.861 98.7375 631.206 98.7375H647.087C647.432 98.7375 647.778 98.8527 648.008 99.0828C648.238 99.313 648.353 99.6583 648.353 100.004C648.353 100.349 648.238 100.694 648.008 100.924C647.778 101.154 647.432 101.269 647.087 101.269H631.206C630.976 101.269 630.861 101.269 630.631 101.154Z" fill="#110580"/>
<path d="M670.103 108.749C669.873 108.634 669.643 108.519 669.528 108.289C669.413 108.059 669.298 107.829 669.298 107.598V101.384H663.084C662.739 101.384 662.508 101.154 662.278 100.924C662.048 100.694 661.933 100.349 661.933 100.118C661.933 99.7731 662.048 99.543 662.278 99.3129C662.508 99.0827 662.739 98.9677 663.084 98.8527H671.829V107.598C671.829 107.714 671.83 107.944 671.715 108.059C671.715 108.174 671.599 108.404 671.484 108.519C671.369 108.634 671.254 108.749 671.024 108.749C670.909 108.864 670.679 108.864 670.564 108.864C670.334 108.864 670.218 108.749 670.103 108.749Z" fill="#110580"/>
<path d="M669.874 197.935C669.644 197.82 669.414 197.705 669.299 197.475C669.184 197.245 669.068 197.015 669.068 196.784V181.939C669.068 181.594 669.298 181.364 669.529 181.134C669.759 180.904 670.104 180.789 670.45 180.789C670.795 180.789 671.025 180.904 671.37 181.134C671.6 181.364 671.715 181.594 671.83 181.939V196.784C671.83 197.015 671.716 197.245 671.716 197.36C671.6 197.59 671.485 197.705 671.255 197.82C671.025 197.935 670.91 198.05 670.679 198.05C670.334 198.05 670.219 198.05 669.874 197.935ZM669.874 168.245C669.644 168.13 669.414 168.015 669.299 167.785C669.184 167.554 669.068 167.324 669.068 167.094V152.249C669.068 152.019 669.068 151.904 669.068 151.674C669.068 151.443 669.184 151.328 669.299 151.213C669.414 151.098 669.529 150.983 669.759 150.868C669.874 150.753 670.104 150.753 670.334 150.753C670.449 150.753 670.679 150.753 670.795 150.868C671.025 150.983 671.14 151.098 671.255 151.213C671.37 151.328 671.485 151.559 671.485 151.674C671.485 151.904 671.6 152.019 671.485 152.249V167.094C671.485 167.439 671.37 167.785 671.14 168.015C670.91 168.245 670.564 168.36 670.219 168.36C670.104 168.36 669.989 168.36 669.874 168.245ZM669.874 138.44C669.644 138.324 669.414 138.209 669.299 137.979C669.184 137.749 669.068 137.519 669.068 137.289V122.444C669.068 122.214 669.068 122.098 669.068 121.868C669.183 121.638 669.184 121.523 669.414 121.408C669.529 121.293 669.644 121.178 669.874 121.063C669.989 120.947 670.219 120.948 670.45 120.948C670.68 120.948 670.795 120.947 671.025 121.063C671.14 121.178 671.37 121.293 671.485 121.408C671.6 121.523 671.716 121.753 671.716 121.868C671.831 122.098 671.83 122.214 671.83 122.444V137.289C671.83 137.404 671.831 137.634 671.716 137.749C671.716 137.864 671.6 138.094 671.485 138.209C671.37 138.325 671.255 138.44 671.025 138.44C670.91 138.555 670.68 138.555 670.565 138.555C670.45 138.555 670.334 138.555 670.219 138.44H669.874Z" fill="#110580"/>
<path d="M626.258 -0.00012207H204.61C200.006 -0.00012207 196.324 3.79753 196.324 8.40068V280.907C196.324 285.51 200.006 289.308 204.61 289.308H626.258C630.862 289.308 634.544 285.51 634.544 280.907V8.40068C634.659 3.68245 630.862 -0.00012207 626.258 -0.00012207Z" fill="#D6D7F0"/>
<path d="M298.515 57.7693H217.154C214.162 57.7693 211.63 60.3011 211.63 63.2931V140.511C211.63 143.618 214.162 146.035 217.154 146.035H298.515C301.507 146.035 304.039 143.503 304.039 140.511V63.2931C304.039 60.186 301.507 57.7693 298.515 57.7693Z" fill="#E8E8F7"/>
<path d="M403.581 57.7693H322.22C319.228 57.7693 316.697 60.3011 316.697 63.2931V206.566C316.697 209.673 319.228 212.09 322.22 212.09H403.581C406.573 212.09 409.105 209.558 409.105 206.566V63.2931C409.105 60.186 406.688 57.7693 403.581 57.7693Z" fill="#E8E8F7"/>
<path d="M508.763 57.7693H427.517C424.41 57.7693 421.994 60.3011 421.994 63.2931V246.614C421.994 249.721 424.41 252.137 427.517 252.137H508.763C511.87 252.137 514.286 249.606 514.286 246.614V63.2931C514.286 60.186 511.755 57.7693 508.763 57.7693Z" fill="#E8E8F7"/>
<path d="M613.83 57.7693H532.585C529.477 57.7693 527.061 60.3011 527.061 63.2931V169.971C527.061 173.078 529.477 175.495 532.585 175.495H613.83C616.937 175.495 619.354 172.963 619.354 169.971V63.2931C619.354 60.186 616.937 57.7693 613.83 57.7693Z" fill="#E8E8F7"/>
<path d="M263.646 64.5591H222.677C220.836 64.5591 219.225 66.0551 219.225 68.0114C219.225 69.8527 220.721 71.4638 222.677 71.4638H263.53C265.372 71.4638 266.983 69.9678 266.983 68.0114C266.983 66.1702 265.487 64.5591 263.646 64.5591Z" fill="#C3C6E6"/>
<path d="M626.258 -0.00012207H204.61C202.423 -0.00012207 200.237 0.92062 198.741 2.41664C197.13 4.02775 196.324 6.09899 196.324 8.28549V36.0196H634.659V8.28549C634.659 6.09899 633.738 3.91267 632.242 2.41664C630.631 0.805541 628.56 -0.00012207 626.258 -0.00012207Z" fill="#47C594"/>
<path d="M291.609 78.3685H223.828C221.297 78.3685 219.225 80.4399 219.225 82.9717V127.622C219.225 130.154 221.297 132.225 223.828 132.225H291.609C294.141 132.225 296.213 130.154 296.213 127.622V82.9717C296.213 80.4399 294.141 78.3685 291.609 78.3685Z" fill="white"/>
<path d="M360.081 64.6741H327.859C326.017 64.6741 324.521 66.1701 324.521 68.1264C324.521 69.9677 326.017 71.5788 327.859 71.5788H360.081C361.922 71.5788 363.533 70.0828 363.533 68.1264C363.533 66.1701 361.922 64.6741 360.081 64.6741Z" fill="#C3C6E6"/>
<path d="M396.792 78.3685H329.01C326.479 78.3685 324.407 80.4399 324.407 82.9717V110.245C324.407 112.777 326.479 114.848 329.01 114.848H396.792C399.323 114.848 401.395 112.777 401.395 110.245V82.9717C401.395 80.4399 399.323 78.3685 396.792 78.3685Z" fill="white"/>
<path d="M484.251 64.5591H432.926C431.085 64.5591 429.588 66.0551 429.588 68.0114C429.588 69.8527 431.085 71.4638 432.926 71.4638H484.251C486.092 71.4638 487.703 69.9678 487.703 68.0114C487.703 66.1702 486.207 64.5591 484.251 64.5591Z" fill="#C3C6E6"/>
<path d="M501.973 140.856H434.192C431.66 140.856 429.588 142.928 429.588 145.46V233.61C429.588 236.141 431.66 238.213 434.192 238.213H501.973C504.505 238.213 506.576 236.141 506.576 233.61V145.46C506.576 142.928 504.505 140.856 501.973 140.856Z" fill="white"/>
<path d="M501.973 78.3685H434.192C431.66 78.3685 429.588 80.4399 429.588 82.9717V129.348C429.588 131.88 431.66 133.952 434.192 133.952H501.973C504.505 133.952 506.576 131.88 506.576 129.348V82.9717C506.576 80.4399 504.505 78.3685 501.973 78.3685Z" fill="white"/>
<path d="M397.367 121.753H329.586C327.054 121.753 324.983 123.825 324.983 126.356V193.677C324.983 196.209 327.054 198.281 329.586 198.281H397.367C399.899 198.281 401.97 196.209 401.97 193.677V126.356C401.97 123.825 399.899 121.753 397.367 121.753Z" fill="white"/>
<path d="M563.425 64.5591H538.108C536.266 64.5591 534.771 66.0551 534.771 68.0114C534.771 69.8527 536.266 71.4638 538.108 71.4638H563.425C565.266 71.4638 566.877 69.9678 566.877 68.0114C566.877 66.1702 565.266 64.5591 563.425 64.5591Z" fill="#C3C6E6"/>
<path d="M607.04 78.3685H539.259C536.727 78.3685 534.656 80.4399 534.656 82.9717V113.698C534.656 116.229 536.727 118.301 539.259 118.301H607.04C609.572 118.301 611.643 116.229 611.643 113.698V82.9717C611.643 80.4399 609.572 78.3685 607.04 78.3685Z" fill="white"/>
<path d="M607.04 125.206H539.259C536.727 125.206 534.656 127.277 534.656 129.809V157.312C534.656 159.844 536.727 161.916 539.259 161.916H607.04C609.572 161.916 611.643 159.844 611.643 157.312V129.809C611.643 127.277 609.572 125.206 607.04 125.206Z" fill="white"/>
<path d="M260.309 88.1503H231.539C229.698 88.1503 228.201 89.6463 228.201 91.6026C228.201 93.4439 229.698 95.055 231.539 95.055H260.309C262.15 95.055 263.761 93.559 263.761 91.6026C263.761 89.7614 262.265 88.1503 260.309 88.1503Z" fill="#E8E8F7"/>
<path d="M272.392 103.456H231.539C229.698 103.456 228.201 104.952 228.201 106.908C228.201 108.749 229.698 110.361 231.539 110.361H272.392C274.233 110.361 275.844 108.865 275.844 106.908C275.844 105.067 274.348 103.456 272.392 103.456Z" fill="#E8E8F7"/>
<path d="M470.671 189.189H441.902C440.06 189.189 438.564 190.685 438.564 192.642C438.564 194.483 440.06 196.094 441.902 196.094H470.671C472.513 196.094 474.124 194.598 474.124 192.642C474.009 190.685 472.513 189.189 470.671 189.189Z" fill="#E8E8F7"/>
<path d="M482.755 204.495H441.902C440.06 204.495 438.564 205.991 438.564 207.947C438.564 209.788 440.06 211.399 441.902 211.399H482.755C484.596 211.399 486.207 209.903 486.207 207.947C486.092 205.991 484.596 204.495 482.755 204.495Z" fill="#E8E8F7"/>
<path d="M463.652 219.8H441.787C439.946 219.8 438.45 221.296 438.45 223.253C438.45 225.094 439.946 226.705 441.787 226.705H463.652C465.608 226.705 467.104 225.209 467.104 223.253C467.104 221.296 465.608 219.8 463.652 219.8Z" fill="#E8E8F7"/>
<path d="M365.49 132.225H336.72C334.879 132.225 333.383 133.721 333.383 135.678C333.383 137.519 334.879 139.13 336.72 139.13H365.49C367.331 139.13 368.943 137.634 368.943 135.678C368.943 133.721 367.331 132.225 365.49 132.225Z" fill="#E8E8F7"/>
<path d="M388.046 162.836H336.72C334.879 162.836 333.383 164.332 333.383 166.289C333.383 168.13 334.879 169.741 336.72 169.741H388.046C389.887 169.741 391.498 168.245 391.498 166.289C391.383 164.332 389.887 162.836 388.046 162.836Z" fill="#E8E8F7"/>
<path d="M365.49 178.142H336.72C334.879 178.142 333.383 179.638 333.383 181.594C333.383 183.435 334.879 185.046 336.72 185.046H365.49C367.331 185.046 368.943 183.55 368.943 181.594C368.943 179.638 367.331 178.142 365.49 178.142Z" fill="#E8E8F7"/>
<path d="M377.573 147.531H336.72C334.879 147.531 333.383 149.027 333.383 150.983C333.383 152.824 334.879 154.435 336.72 154.435H377.573C379.415 154.435 381.026 152.939 381.026 150.983C381.026 149.027 379.415 147.531 377.573 147.531Z" fill="#E8E8F7"/>
<path d="M470.671 103.456H441.902C440.06 103.456 438.564 104.952 438.564 106.908C438.564 108.749 440.06 110.361 441.902 110.361H470.671C472.513 110.361 474.124 108.865 474.124 106.908C474.009 105.067 472.513 103.456 470.671 103.456Z" fill="#E8E8F7"/>
<path d="M492.767 88.1503H451.914C450.073 88.1503 448.461 89.6463 448.461 91.6026C448.461 93.4439 449.957 95.055 451.914 95.055H492.767C494.608 95.055 496.219 93.559 496.219 91.6026C496.104 89.7614 494.608 88.1503 492.767 88.1503Z" fill="#E8E8F7"/>
<path d="M575.74 103.456H546.97C545.129 103.456 543.633 104.952 543.633 106.908C543.633 108.749 545.129 110.361 546.97 110.361H575.74C577.581 110.361 579.192 108.865 579.192 106.908C579.192 105.067 577.696 103.456 575.74 103.456Z" fill="#E8E8F7"/>
<path d="M587.823 88.1503H546.97C545.129 88.1503 543.633 89.6463 543.633 91.6026C543.633 93.4439 545.129 95.055 546.97 95.055H587.823C589.779 95.055 591.275 93.559 591.275 91.6026C591.275 89.7614 589.779 88.1503 587.823 88.1503Z" fill="#E8E8F7"/>
<path d="M594.382 135.102H556.981C555.14 135.102 553.529 136.598 553.529 138.555C553.529 140.396 555.025 142.007 556.981 142.007H594.382C596.223 142.007 597.834 140.511 597.834 138.555C597.834 136.598 596.338 135.102 594.382 135.102Z" fill="#E8E8F7"/>
<path d="M377.573 88.1503H336.72C334.879 88.1503 333.383 89.6463 333.383 91.6026C333.383 93.4439 334.879 95.055 336.72 95.055H377.573C379.415 95.055 381.026 93.559 381.026 91.6026C381.026 89.7614 379.415 88.1503 377.573 88.1503Z" fill="#E8E8F7"/>
<path d="M501.974 140.971H434.193C432.927 140.971 431.776 141.432 430.971 142.352C430.05 143.273 429.705 144.424 429.705 145.574V179.408H506.577V145.46C506.577 144.194 506.002 143.043 505.196 142.237C504.276 141.432 503.125 140.971 501.974 140.971Z" fill="#ACAFE0"/>
<path d="M441.787 94.9399C443.628 94.9399 445.124 93.444 445.124 91.6027C445.124 89.7615 443.628 88.2653 441.787 88.2653C439.946 88.2653 438.45 89.7615 438.45 91.6027C438.45 93.444 439.946 94.9399 441.787 94.9399Z" fill="#FF7A82"/>
<path d="M546.97 141.777C548.811 141.777 550.308 140.281 550.308 138.44C550.308 136.598 548.811 135.102 546.97 135.102C545.129 135.102 543.633 136.598 543.633 138.44C543.633 140.281 545.129 141.777 546.97 141.777Z" fill="#FF7A82"/>
<path d="M700.369 270.435H504.16C499.442 270.435 495.644 274.232 495.644 279.066V374.811C495.644 379.529 499.442 383.442 504.16 383.442H700.369C705.087 383.442 709 379.644 709 374.811V279.066C709 274.232 705.087 270.435 700.369 270.435Z" fill="white"/>
<path d="M660.321 303.808H548.349C546.508 303.808 545.012 305.304 545.012 307.26C545.012 309.101 546.508 310.712 548.349 310.712H660.321C662.162 310.712 663.658 309.216 663.658 307.26C663.658 305.304 662.162 303.808 660.321 303.808Z" fill="#E8E8F7"/>
<path d="M618.778 319.113H548.349C546.508 319.113 545.012 320.609 545.012 322.566C545.012 324.407 546.508 326.018 548.349 326.018H618.663C620.504 326.018 622.115 324.522 622.115 322.566C622.115 320.609 620.619 319.113 618.778 319.113Z" fill="#E8E8F7"/>
<path d="M553.298 288.502H515.898C514.056 288.502 512.445 289.998 512.445 291.955C512.445 293.796 513.941 295.407 515.898 295.407H553.298C555.14 295.407 556.751 293.911 556.751 291.955C556.751 289.998 555.14 288.502 553.298 288.502Z" fill="#AAAAE3"/>
<path d="M516.013 340.057H537.418V365.145H516.013C515.092 365.145 514.172 364.799 513.481 364.109C512.791 363.419 512.445 362.498 512.445 361.577V343.625C512.445 342.704 512.791 341.784 513.481 341.093C514.172 340.518 515.092 340.057 516.013 340.057Z" fill="#E8E8F7"/>
<path d="M528.557 352.026H525.68V349.034C525.68 348.919 525.565 348.688 525.45 348.573C525.335 348.458 525.22 348.343 524.99 348.343C524.759 348.343 524.644 348.458 524.529 348.573C524.414 348.688 524.414 348.803 524.414 349.034V352.026H521.422C521.307 352.026 521.077 352.141 520.962 352.256C520.847 352.371 520.731 352.486 520.731 352.716C520.731 352.831 520.847 353.061 520.962 353.177C521.077 353.292 521.192 353.407 521.422 353.407H524.414V356.399C524.414 356.514 524.414 356.744 524.529 356.859C524.644 356.974 524.759 357.089 524.99 357.089C525.105 357.089 525.335 356.974 525.45 356.859C525.565 356.744 525.68 356.629 525.68 356.399V353.407H528.557C528.672 353.407 528.902 353.292 529.017 353.177C529.132 353.061 529.132 352.946 529.132 352.716C529.132 352.601 529.132 352.371 529.017 352.256C528.902 352.026 528.672 352.026 528.557 352.026Z" fill="#AAAAE3"/>
<path d="M532.009 303.808H514.977C513.596 303.808 512.445 304.959 512.445 306.225V323.486C512.445 324.867 513.596 325.903 514.977 325.903H532.124C533.505 325.903 534.656 324.752 534.656 323.486V306.225C534.541 304.844 533.505 303.808 532.009 303.808Z" fill="#FF7A82"/>
<path d="M689.091 341.438C689.551 341.438 689.897 341.669 690.242 341.899C690.587 342.244 690.703 342.589 690.703 343.05V362.152C690.703 362.613 690.587 362.958 690.242 363.303C689.897 363.648 689.551 363.764 689.091 363.764H515.437C514.977 363.764 514.517 363.533 514.287 363.303C513.941 362.958 513.826 362.613 513.826 362.152V343.05C513.826 342.589 514.057 342.244 514.287 341.899C514.632 341.554 514.977 341.438 515.437 341.438H689.091ZM689.091 340.173H515.437C514.632 340.173 513.942 340.518 513.366 340.978C512.791 341.553 512.445 342.244 512.445 343.05V362.152C512.445 362.958 512.791 363.649 513.366 364.224C513.942 364.799 514.632 365.029 515.437 365.029H689.091C689.897 365.029 690.587 364.684 691.163 364.224C691.738 363.649 692.083 362.958 692.083 362.152V343.05C692.083 342.244 691.738 341.553 691.163 340.978C690.587 340.403 689.897 340.173 689.091 340.173Z" fill="#E8E8F7"/>
<path opacity="0.3" d="M446.965 126.702C446.965 125.551 446.735 124.515 446.275 123.479C445.814 122.444 445.24 121.523 444.434 120.718C443.628 119.912 442.707 119.337 441.672 118.876C440.636 118.416 439.6 118.186 438.45 118.186H196.209V121.638H429.819C430.854 121.638 432.005 121.868 433.041 122.329C434.076 122.789 434.998 123.364 435.803 124.17C436.609 124.976 437.184 125.896 437.529 126.932C437.99 127.967 438.219 129.003 438.219 130.154V289.193H446.85L446.965 126.702Z" fill="#3B3FAD"/>
<path d="M64.2133 152.249C64.0982 152.364 63.9831 152.479 63.868 152.479C63.5228 152.594 63.2926 152.594 62.9473 152.479C62.6021 152.364 62.3721 152.134 62.257 151.789C61.3364 149.602 60.6459 147.186 60.1855 144.884C60.1855 144.769 60.1855 144.539 60.1855 144.424C60.1855 144.309 60.3006 144.079 60.4156 143.963C60.5307 143.848 60.6459 143.733 60.7609 143.618C60.876 143.503 60.991 143.503 61.2211 143.388C61.3362 143.388 61.5665 143.388 61.6816 143.388C61.7967 143.388 62.0267 143.503 62.1418 143.618C62.2569 143.733 62.372 143.848 62.4871 143.963C62.6022 144.079 62.6021 144.194 62.7172 144.424C63.1775 146.61 63.7529 148.797 64.6735 150.868C64.7886 151.098 64.7887 151.328 64.7887 151.558C64.5585 151.789 64.4435 152.019 64.2133 152.249Z" fill="#110580"/>
<path d="M247.304 64.674C247.189 64.7891 247.074 64.9044 246.959 64.9044L245.348 65.7099C241.665 67.4361 237.867 69.2773 233.725 71.1185C233.494 71.2336 233.149 71.2336 232.804 71.1185C232.458 71.0034 232.229 70.7733 232.114 70.5431C231.999 70.4281 231.998 70.198 231.998 70.0829C231.998 69.9679 231.999 69.7375 232.114 69.6224C232.114 69.5074 232.228 69.3922 232.343 69.2772C232.459 69.1621 232.574 69.0471 232.804 69.0471C236.831 67.3209 240.629 65.3646 244.312 63.6384L245.923 62.8329C246.153 62.7178 246.498 62.7177 246.728 62.7177C246.958 62.8328 247.189 62.9481 247.419 63.1782C247.534 63.4084 247.649 63.6385 247.649 63.9837C247.534 64.2139 247.419 64.4439 247.304 64.674ZM220.606 76.2971C220.491 76.4121 220.375 76.5273 220.145 76.6424C215.542 78.2535 210.824 79.5192 205.991 80.5549C205.875 80.5549 205.645 80.5549 205.53 80.5549C205.415 80.5549 205.185 80.4399 205.07 80.3248C204.955 80.2097 204.84 80.0946 204.725 79.9795C204.61 79.8645 204.609 79.7495 204.609 79.5193C204.609 79.4043 204.609 79.1739 204.609 79.0588C204.609 78.9438 204.725 78.7137 204.84 78.5986C204.955 78.4836 205.07 78.3684 205.185 78.2533C205.3 78.1383 205.415 78.1383 205.646 78.0233C210.364 77.1026 214.967 75.8367 219.455 74.2256C219.57 74.2256 219.8 74.1107 219.915 74.1107C220.145 74.1107 220.26 74.1105 220.375 74.2256C220.49 74.3407 220.605 74.3406 220.72 74.4557C220.835 74.5708 220.951 74.686 220.951 74.9162C221.066 75.1463 221.066 75.3763 220.951 75.6065C220.951 75.9517 220.836 76.0669 220.606 76.2971ZM192.296 81.7057C192.181 81.8208 192.066 81.9358 191.951 81.9358C191.836 82.0509 191.606 82.051 191.491 82.051C186.542 82.1661 181.594 81.7057 176.876 80.785C176.761 80.785 176.53 80.67 176.415 80.5549C176.3 80.4398 176.185 80.3247 176.07 80.2096C175.955 80.0946 175.955 79.9796 175.84 79.7494C175.84 79.6344 175.84 79.4043 175.84 79.2892C175.84 79.1741 175.955 78.9438 175.955 78.8287C176.07 78.7137 176.185 78.5985 176.3 78.4835C176.416 78.3684 176.646 78.3684 176.761 78.2533C176.876 78.1383 177.106 78.2533 177.221 78.2533C181.939 79.174 186.657 79.5192 191.375 79.4041C191.49 79.4041 191.721 79.4043 191.836 79.5193C191.951 79.5193 192.181 79.6344 192.296 79.7494C192.411 79.8645 192.526 79.9796 192.526 80.0947C192.641 80.2098 192.641 80.4398 192.641 80.5549C192.641 80.67 192.641 80.9003 192.641 81.0154C192.526 81.4757 192.411 81.7057 192.296 81.7057ZM164.102 76.2971C163.872 76.5272 163.642 76.6424 163.411 76.6424C163.181 76.6424 162.951 76.6423 162.721 76.5272C158.118 74.5708 153.86 72.1541 149.947 69.2772C149.832 69.1621 149.717 69.0472 149.602 68.9321C149.487 68.8171 149.487 68.5867 149.372 68.4717C149.372 68.3566 149.372 68.1265 149.372 68.0115C149.372 67.8964 149.487 67.6661 149.602 67.551C149.717 67.4359 149.832 67.321 149.947 67.206C150.062 67.0909 150.293 67.0908 150.408 67.0908C150.523 67.0908 150.753 67.0908 150.868 67.0908C150.983 67.0908 151.213 67.2058 151.328 67.3209C155.241 70.0828 159.383 72.3843 163.756 74.2256C163.872 74.3407 163.987 74.3406 164.102 74.4557C164.217 74.5708 164.332 74.6859 164.332 74.801C164.332 74.9161 164.447 75.1464 164.447 75.2615C164.447 75.3766 164.447 75.6066 164.332 75.7217C164.332 76.0669 164.217 76.182 164.102 76.2971ZM158.463 59.956C156.622 61.9123 154.665 63.7535 152.479 65.3646C152.364 65.4797 152.249 65.5947 152.019 65.5947C151.904 65.5947 151.674 65.7098 151.559 65.5947C151.443 65.5947 151.213 65.4798 151.098 65.4798C150.983 65.3647 150.868 65.2496 150.753 65.1345C150.638 65.0194 150.637 64.9042 150.522 64.674C150.522 64.5589 150.522 64.3289 150.522 64.2138C150.522 64.0987 150.638 63.8687 150.638 63.7536C150.753 63.6385 150.868 63.5234 150.983 63.4083C153.055 61.7972 154.896 60.071 156.737 58.2298C158.233 56.7337 159.614 55.0075 160.879 53.2813C160.995 53.1663 161.11 53.0511 161.225 52.936C161.34 52.821 161.57 52.821 161.685 52.7059C161.915 52.7059 162.03 52.7059 162.145 52.7059C162.376 52.7059 162.491 52.821 162.606 52.936C162.721 53.0511 162.836 53.1663 162.951 53.2813C163.066 53.3964 163.066 53.6265 163.066 53.7415C163.066 53.8566 163.066 54.0869 163.066 54.202C163.066 54.3171 162.951 54.5471 162.836 54.6622C161.34 56.5035 159.959 58.3448 158.463 59.956ZM140.396 73.0748C140.281 73.1899 140.166 73.3049 140.051 73.3049C135.678 75.4914 131.19 77.4479 126.701 79.174C126.586 79.2891 126.356 79.2892 126.241 79.2892C126.126 79.2892 125.896 79.2891 125.78 79.174C125.665 79.059 125.435 79.059 125.435 78.9439C125.32 78.8289 125.205 78.7137 125.205 78.5986C125.09 78.2534 125.09 78.0232 125.205 77.678C125.32 77.3327 125.55 77.1027 125.896 76.9877C131.304 74.8012 135.332 73.0749 139.015 71.1185C139.13 71.0034 139.36 71.0033 139.475 71.0033C139.59 71.0033 139.82 71.0033 139.936 71.0033C140.051 71.0033 140.281 71.1186 140.396 71.2337C140.511 71.3488 140.626 71.4637 140.741 71.5787C140.856 71.8089 140.856 72.0392 140.856 72.2693C140.626 72.6146 140.511 72.8447 140.396 73.0748ZM169.05 41.8887C168.935 42.0037 168.705 42.1186 168.475 42.2337C168.245 42.3487 168.014 42.3487 167.784 42.2337C167.439 42.1186 167.209 41.8884 167.094 41.6583C166.979 41.4281 166.864 41.0831 166.979 40.7379C167.669 38.3212 167.9 35.9044 168.015 33.3727C168.015 31.1862 167.784 28.9998 167.209 26.9284C167.209 26.8133 167.209 26.583 167.209 26.4679C167.209 26.3529 167.324 26.1228 167.324 26.0077C167.439 25.8927 167.555 25.7775 167.67 25.6624C167.785 25.5474 167.9 25.5474 168.13 25.4323C168.475 25.3173 168.82 25.4322 169.05 25.5473C169.395 25.6623 169.511 26.0077 169.626 26.2378C170.316 28.5394 170.547 30.956 170.547 33.3727C170.431 36.0195 170.086 38.6664 169.396 41.3133C169.281 41.5434 169.165 41.7736 169.05 41.8887ZM140.971 59.2654C140.741 59.4955 140.626 59.6107 140.396 59.6107C140.281 59.6107 140.051 59.7257 139.936 59.6107C139.82 59.6107 139.59 59.4955 139.475 59.4955C139.36 59.3804 139.245 59.2655 139.13 59.1505C135.908 55.3529 133.376 50.9796 131.65 46.2614C131.535 45.9162 131.535 45.6862 131.65 45.341C131.765 45.1109 131.995 44.8807 132.34 44.7656C132.685 44.6505 133.03 44.6505 133.261 44.7656C133.491 44.8807 133.721 45.1107 133.836 45.4559C135.447 49.944 137.864 53.9719 140.856 57.6544C141.086 57.8845 141.201 58.1146 141.201 58.4599C141.201 58.8051 141.086 59.0352 140.971 59.2654ZM113.467 84.0073C113.352 84.1224 113.237 84.2374 113.007 84.2374L108.289 86.0788C105.297 87.3446 102.42 88.6105 99.7732 89.8764C99.6581 89.9915 99.5425 89.9913 99.3124 89.9913C99.1973 89.9913 98.9673 89.9915 98.8522 89.8764C98.7371 89.8764 98.6223 89.7614 98.5072 89.6463C98.3921 89.5312 98.2767 89.4161 98.1616 89.301C98.1616 89.1859 98.047 88.9556 98.047 88.8405C98.047 88.7255 98.0465 88.4954 98.1616 88.3803C98.1616 88.2653 98.2769 88.1503 98.392 87.9201C98.5071 87.8051 98.6219 87.6898 98.737 87.6898C101.499 86.4239 104.261 85.1582 107.368 83.8924C108.979 83.2019 110.59 82.6264 112.201 82.051C112.317 82.051 112.547 81.9358 112.662 81.9358C112.777 81.9358 113.007 81.9359 113.122 82.051C113.237 82.1661 113.467 82.166 113.467 82.2811C113.582 82.3962 113.697 82.5113 113.697 82.6264C113.812 82.8566 113.812 83.0868 113.812 83.317C113.812 83.5471 113.698 83.7771 113.467 84.0073ZM62.4875 130.959C62.3724 131.075 62.1421 131.19 62.027 131.305C61.7968 131.42 61.6818 131.42 61.4516 131.305C61.1064 131.19 60.8763 131.074 60.6461 130.844C60.416 130.614 60.416 130.269 60.416 129.924C61.4517 125.091 63.1779 120.372 65.5946 115.999C65.7096 115.769 66.055 115.539 66.2851 115.539C66.6304 115.424 66.8605 115.539 67.0906 115.654C67.3208 115.769 67.5507 115.999 67.6657 116.345C67.7808 116.575 67.7808 116.92 67.6657 117.265C65.3642 121.408 63.6382 125.896 62.7176 130.614C62.7176 130.729 62.6026 130.844 62.4875 130.959ZM87.5747 96.7811L87.3443 97.0112C83.3166 99.658 79.6344 102.65 76.182 105.987C75.9519 106.218 75.6063 106.333 75.2611 106.333C74.9158 106.333 74.5708 106.218 74.3407 105.987C74.1105 105.757 73.9951 105.412 73.9951 105.067C73.9951 104.722 74.1105 104.376 74.3407 104.146C77.793 100.694 81.7056 97.5867 85.7333 94.8249C85.8484 94.7098 85.9634 94.7095 86.1935 94.5945C86.4237 94.4794 86.5387 94.5945 86.6537 94.5945C86.7688 94.5945 86.9994 94.7098 87.1145 94.8249C87.2296 94.9399 87.3444 95.0548 87.4595 95.1699C87.5746 95.4 87.6899 95.6304 87.6899 95.9756C87.805 96.2058 87.6898 96.551 87.5747 96.7811ZM161.8 15.1902C161.685 15.3052 161.57 15.4206 161.455 15.4206C161.34 15.5356 161.11 15.5355 160.995 15.5355C160.88 15.5355 160.65 15.5356 160.534 15.4206C160.419 15.3055 160.189 15.3052 160.074 15.1902C157.312 12.6584 153.63 11.1624 149.947 11.1624C149.141 11.1624 148.451 11.2777 147.645 11.3928C147.3 11.3928 147.07 11.3926 146.84 11.1624C146.61 10.9323 146.38 10.7023 146.38 10.4721C146.38 10.1269 146.38 9.89666 146.61 9.55142C146.84 9.32127 147.07 9.09122 147.416 9.09122C148.336 8.97614 149.142 8.86084 150.062 8.86084C154.435 8.86084 158.578 10.4719 161.8 13.464C161.916 13.5791 162.03 13.6942 162.145 13.8093C162.261 13.9244 162.261 14.1547 162.261 14.2698C162.261 14.3848 162.261 14.6149 162.261 14.73C162.031 14.9601 162.031 15.0751 161.8 15.1902ZM131.65 32.452C131.535 32.6821 131.304 32.7973 130.959 32.7973C130.729 32.7973 130.499 32.7974 130.269 32.6824C130.039 32.5673 129.809 32.452 129.694 32.2219C129.579 31.9917 129.463 31.7617 129.578 31.5316C130.154 26.4681 131.88 21.6346 134.757 17.4917C134.872 17.3767 134.987 17.2618 135.102 17.1467C135.217 17.0317 135.447 17.0314 135.562 16.9163C135.677 16.9163 135.908 16.9163 136.023 16.9163C136.138 16.9163 136.368 17.0317 136.483 17.1467C136.598 17.2618 136.713 17.3767 136.828 17.4917C136.943 17.6068 136.943 17.8371 136.943 17.9522C136.943 18.0673 136.943 18.2973 136.943 18.4124C136.943 18.5275 136.828 18.7578 136.713 18.8729C134.066 22.6705 132.34 27.1585 131.88 31.7617C131.995 31.9918 131.88 32.3369 131.65 32.452Z" fill="#110580"/>
<path d="M267.443 57.1939C267.212 57.424 266.983 57.5392 266.637 57.5392C264.451 57.7693 262.264 58.3449 260.078 59.1504C259.848 59.2655 259.503 59.2654 259.157 59.0352C258.812 58.9202 258.697 58.6899 258.582 58.3447C258.467 57.9994 258.467 57.7695 258.582 57.4243C258.697 57.1941 258.927 56.9639 259.272 56.8489C261.574 55.9282 263.99 55.3528 266.407 55.1227C266.522 55.1227 266.752 55.1227 266.867 55.1227C266.982 55.1227 267.098 55.2377 267.213 55.3528C267.328 55.4679 267.443 55.583 267.558 55.6981C267.673 55.8132 267.673 56.0432 267.673 56.1583C267.673 56.3884 267.673 56.5034 267.673 56.6185C267.673 56.8486 267.558 56.9637 267.443 57.1939Z" fill="#110580"/>
<path d="M429.934 121.868H8.28561C3.68246 121.868 0 125.666 0 130.269V402.775C0 407.379 3.68246 411.176 8.28561 411.176H429.934C434.537 411.176 438.219 407.379 438.219 402.775V130.269C438.219 125.551 434.537 121.868 429.934 121.868Z" fill="white"/>
<path d="M317.847 194.828H195.864C192.987 194.828 190.57 197.245 190.57 200.122V258.697C190.57 261.689 192.987 263.991 195.864 263.991H317.847C320.724 263.991 323.141 261.574 323.141 258.697V200.122C323.141 197.13 320.724 194.828 317.847 194.828Z" fill="#E8E8F7"/>
<path d="M421.073 237.753H357.55C355.708 237.753 354.097 239.249 354.097 241.205V288.502C354.097 290.458 355.593 291.954 357.55 291.954H421.073C423.029 291.954 424.525 290.458 424.525 288.502V241.205C424.525 239.249 423.029 237.753 421.073 237.753Z" fill="#E8E8F7"/>
<path d="M8.4008 411.061H37.976V121.753H8.4008C7.25001 121.753 6.21425 121.984 5.17854 122.444C4.14283 122.904 3.22232 123.479 2.41676 124.285C1.61121 125.091 1.03571 126.011 0.575393 127.047C0.115079 128.083 0 129.118 0 130.269V402.775C0 404.962 0.920742 407.149 2.41676 408.645C4.02787 410.141 6.09923 411.061 8.4008 411.061Z" fill="#306DDF"/>
<path d="M141.777 121.868H37.9761V411.061H141.777V121.868Z" fill="#2C3C56"/>
<path d="M178.833 159.614H161.686C160.305 159.614 159.27 160.765 159.27 162.031V179.293C159.27 180.674 160.305 181.709 161.686 181.709H178.833C180.214 181.709 181.25 180.558 181.25 179.293V162.031C181.25 160.65 180.214 159.614 178.833 159.614Z" fill="#FEAD18"/>
<path d="M108.98 181.364H52.4758C50.6345 181.364 49.0234 182.86 49.0234 184.816C49.0234 186.658 50.5195 188.269 52.4758 188.269H108.98C110.821 188.269 112.432 186.773 112.432 184.816C112.432 182.86 110.936 181.364 108.98 181.364Z" fill="#C0AFDB"/>
<path d="M89.9916 144.424H52.4758C50.6345 144.424 49.0234 145.92 49.0234 147.876C49.0234 149.717 50.5195 151.328 52.4758 151.328H89.9916C91.8328 151.328 93.4439 149.832 93.4439 147.876C93.3288 145.92 91.8328 144.424 89.9916 144.424Z" fill="white"/>
<path d="M95.0549 197.36H52.4758C50.6345 197.36 49.0234 198.856 49.0234 200.812C49.0234 202.653 50.5195 204.265 52.4758 204.265H95.0549C96.8962 204.265 98.3921 202.769 98.3921 200.812C98.5072 198.856 97.0113 197.36 95.0549 197.36Z" fill="white" fill-opacity="0.5"/>
<path d="M288.502 159.614H193.907C192.066 159.614 190.455 161.11 190.455 163.066C190.455 164.908 191.951 166.519 193.907 166.519H288.502C290.344 166.519 291.84 165.023 291.84 163.066C291.84 161.11 290.344 159.614 288.502 159.614Z" fill="#E8E8F7"/>
<path d="M253.749 174.805H193.793C191.952 174.805 190.341 176.301 190.341 178.257C190.341 180.098 191.837 181.709 193.793 181.709H253.749C255.591 181.709 257.202 180.213 257.202 178.257C257.202 176.416 255.706 174.805 253.749 174.805Z" fill="#E8E8F7"/>
<path d="M178.833 284.59H161.686C160.305 284.59 159.27 285.74 159.27 287.121V304.383C159.27 305.764 160.305 306.8 161.686 306.8H178.833C180.214 306.8 181.25 305.649 181.25 304.383V287.121C181.25 285.74 180.214 284.59 178.833 284.59Z" fill="#FEAD18"/>
<path d="M366.296 302.082H355.709C354.788 302.082 354.212 302.772 354.212 303.578V314.165C354.212 314.97 354.903 315.661 355.709 315.661H366.296C367.101 315.661 367.792 314.97 367.792 314.165V303.578C367.792 302.772 367.216 302.082 366.296 302.082Z" fill="#FEAD18"/>
<path d="M366.296 154.436H355.709C354.788 154.436 354.212 155.126 354.212 155.932V166.519C354.212 167.324 354.903 168.015 355.709 168.015H366.296C367.101 168.015 367.792 167.324 367.792 166.519V155.932C367.792 155.126 367.216 154.436 366.296 154.436Z" fill="#FF7A82"/>
<path d="M305.765 284.59H193.793C191.952 284.59 190.341 286.086 190.341 288.042C190.341 289.883 191.837 291.494 193.793 291.494H305.765C307.606 291.494 309.102 289.998 309.102 288.042C309.217 286.201 307.721 284.59 305.765 284.59Z" fill="#E8E8F7"/>
<path d="M271.126 299.895H193.793C191.952 299.895 190.341 301.391 190.341 303.347C190.341 305.189 191.837 306.8 193.793 306.8H271.126C272.968 306.8 274.579 305.304 274.579 303.347C274.579 301.391 272.968 299.895 271.126 299.895Z" fill="#E8E8F7"/>
<path d="M288.502 315.201H193.907C192.066 315.201 190.455 316.697 190.455 318.653C190.455 320.494 191.951 322.105 193.907 322.105H288.502C290.344 322.105 291.84 320.609 291.84 318.653C291.84 316.697 290.344 315.201 288.502 315.201Z" fill="#E8E8F7"/>
<path d="M305.765 330.506H193.793C191.952 330.506 190.341 332.002 190.341 333.958C190.341 335.799 191.837 337.411 193.793 337.411H305.765C307.606 337.411 309.102 335.915 309.102 333.958C309.217 332.002 307.721 330.506 305.765 330.506Z" fill="#E8E8F7"/>
<path d="M417.621 175.035H357.665C355.824 175.035 354.212 176.531 354.212 178.487C354.212 180.328 355.708 181.94 357.665 181.94H417.621C419.462 181.94 421.073 180.443 421.073 178.487C420.958 176.531 419.462 175.035 417.621 175.035Z" fill="#E8E8F7"/>
<path d="M400.244 190.225H357.665C355.824 190.225 354.212 191.721 354.212 193.677C354.212 195.519 355.708 197.13 357.665 197.13H400.244C402.085 197.13 403.696 195.634 403.696 193.677C403.696 191.836 402.085 190.225 400.244 190.225Z" fill="#E8E8F7"/>
<path d="M410.716 205.531H357.665C355.824 205.531 354.212 207.027 354.212 208.983C354.212 210.824 355.708 212.435 357.665 212.435H410.716C412.557 212.435 414.053 210.939 414.053 208.983C414.053 207.142 412.557 205.531 410.716 205.531Z" fill="#E8E8F7"/>
<path d="M382.867 220.836H357.55C355.708 220.836 354.097 222.332 354.097 224.288C354.097 226.13 355.593 227.741 357.55 227.741H382.867C384.708 227.741 386.319 226.245 386.319 224.288C386.319 222.447 384.823 220.836 382.867 220.836Z" fill="#E8E8F7"/>
<path d="M400.244 323.371H357.665C355.824 323.371 354.212 324.867 354.212 326.823C354.212 328.665 355.708 330.276 357.665 330.276H400.244C402.085 330.276 403.696 328.78 403.696 326.823C403.696 324.982 402.085 323.371 400.244 323.371Z" fill="#E8E8F7"/>
<path d="M417.621 338.677H357.665C355.824 338.677 354.212 340.173 354.212 342.129C354.212 343.97 355.708 345.581 357.665 345.581H417.621C419.462 345.581 421.073 344.085 421.073 342.129C420.958 340.288 419.462 338.677 417.621 338.677Z" fill="#E8E8F7"/>
<path d="M253.749 345.811H193.793C191.952 345.811 190.341 347.307 190.341 349.264C190.341 351.105 191.837 352.716 193.793 352.716H253.749C255.591 352.716 257.202 351.22 257.202 349.264C257.202 347.307 255.706 345.811 253.749 345.811Z" fill="#E8E8F7"/>
<path d="M95.0549 213.356H52.4758C50.6345 213.356 49.0234 214.852 49.0234 216.808C49.0234 218.65 50.5195 220.261 52.4758 220.261H95.0549C96.8962 220.261 98.3921 218.765 98.3921 216.808C98.5072 214.967 97.0113 213.356 95.0549 213.356Z" fill="white" fill-opacity="0.5"/>
<path d="M95.0549 229.467H52.4758C50.6345 229.467 49.0234 230.963 49.0234 232.919C49.0234 234.761 50.5195 236.372 52.4758 236.372H95.0549C96.8962 236.372 98.3921 234.876 98.3921 232.919C98.5072 230.963 97.0113 229.467 95.0549 229.467Z" fill="white" fill-opacity="0.5"/>
<path d="M115.999 271.24H52.4758C50.6345 271.24 49.0234 272.736 49.0234 274.693C49.0234 276.534 50.5195 278.145 52.4758 278.145H115.999C117.84 278.145 119.337 276.649 119.337 274.693C119.337 272.851 117.84 271.24 115.999 271.24Z" fill="#C0AFDB"/>
<path d="M95.0549 287.351H52.4758C50.6345 287.351 49.0234 288.847 49.0234 290.804C49.0234 292.645 50.5195 294.256 52.4758 294.256H95.0549C96.8962 294.256 98.3921 292.76 98.3921 290.804C98.5072 288.847 97.0113 287.351 95.0549 287.351Z" fill="white" fill-opacity="0.5"/>
<path d="M115.999 345.697H52.4758C50.6345 345.697 49.0234 347.193 49.0234 349.149C49.0234 350.99 50.5195 352.601 52.4758 352.601H115.999C117.84 352.601 119.337 351.105 119.337 349.149C119.337 347.308 117.84 345.697 115.999 345.697Z" fill="#C0AFDB"/>
<path d="M95.0549 361.807H52.4758C50.6345 361.807 49.0234 363.304 49.0234 365.26C49.0234 367.101 50.5195 368.712 52.4758 368.712H95.0549C96.8962 368.712 98.3921 367.216 98.3921 365.26C98.5072 363.304 97.0113 361.807 95.0549 361.807Z" fill="white" fill-opacity="0.5"/>
<path d="M95.0549 303.348H52.4758C50.6345 303.348 49.0234 304.844 49.0234 306.8C49.0234 308.641 50.5195 310.252 52.4758 310.252H95.0549C96.8962 310.252 98.3921 308.756 98.3921 306.8C98.5072 304.844 97.0113 303.348 95.0549 303.348Z" fill="white" fill-opacity="0.5"/>
<path d="M130.385 278.145C132.226 278.145 133.837 276.649 133.837 274.693C133.837 272.736 132.341 271.24 130.385 271.24C128.428 271.24 127.047 272.736 127.047 274.693C127.047 276.649 128.543 278.145 130.385 278.145Z" fill="#FF7A82"/>
<path d="M342.59 130.729C342.59 130.499 342.359 130.269 342.129 130.269C341.899 130.269 341.669 130.499 341.669 130.729V402.085C341.669 402.315 341.899 402.545 342.129 402.545C342.359 402.545 342.59 402.315 342.59 402.085V130.729Z" fill="#E8E8F7"/>
<path d="M321.415 370.784C321.645 370.784 321.876 370.784 322.106 370.899C322.336 371.014 322.451 371.129 322.681 371.244C322.796 371.359 323.027 371.589 323.027 371.819C323.142 372.05 323.141 372.28 323.141 372.51V391.613C323.141 391.843 323.142 392.073 323.027 392.188C322.912 392.418 322.796 392.534 322.681 392.764C322.566 392.879 322.336 392.994 322.106 393.109C321.876 393.224 321.645 393.224 321.415 393.224H162.146C161.686 393.224 161.226 392.994 160.996 392.764C160.65 392.418 160.536 392.073 160.536 391.613V372.625C160.536 372.395 160.536 372.164 160.651 371.934C160.766 371.704 160.881 371.589 160.996 371.359C161.111 371.244 161.341 371.014 161.571 371.014C161.801 370.899 162.032 370.899 162.262 370.899H321.415V370.784ZM321.415 369.518H162.146C161.686 369.518 161.341 369.633 160.996 369.748C160.65 369.863 160.305 370.093 160.075 370.439C159.845 370.669 159.615 371.014 159.5 371.359C159.385 371.704 159.27 372.049 159.27 372.51V391.613C159.27 391.958 159.385 392.418 159.5 392.764C159.615 393.109 159.845 393.454 160.075 393.684C160.421 393.915 160.65 394.144 160.996 394.375C161.341 394.49 161.686 394.605 162.146 394.605H321.415C322.221 394.605 322.912 394.26 323.487 393.684C324.062 393.109 324.407 392.418 324.407 391.613V372.51C324.407 371.704 324.062 371.014 323.487 370.439C323.027 369.863 322.221 369.518 321.415 369.518Z" fill="#E8E8F7"/>
<path d="M421.649 360.312C422.109 360.312 422.569 360.542 422.799 360.887C423.145 361.232 423.26 361.692 423.26 362.038V381.141C423.26 381.601 423.03 381.946 422.799 382.291C422.454 382.637 422.109 382.752 421.649 382.752H357.205C356.744 382.752 356.399 382.522 356.054 382.291C355.709 381.946 355.593 381.601 355.478 381.141V361.922C355.478 361.462 355.708 361.002 355.939 360.772C356.284 360.426 356.629 360.196 357.089 360.196H421.533V360.312H421.649ZM421.649 358.815H357.205C356.399 358.815 355.709 359.161 355.133 359.736C354.558 360.312 354.212 361.002 354.212 361.808V380.91C354.212 381.716 354.558 382.407 355.133 382.982C355.709 383.557 356.399 383.903 357.205 383.903H421.649C422.454 383.903 423.145 383.557 423.72 382.982C424.296 382.407 424.641 381.716 424.641 380.91V361.808C424.641 361.002 424.296 360.312 423.72 359.736C423.145 359.276 422.454 358.931 421.649 358.815Z" fill="#E8E8F7"/>
</svg>
