<svg width="886" height="722" viewBox="0 0 886 722" fill="none" xmlns="http://www.w3.org/2000/svg">
<path d="M598.081 107.109C597.865 107.037 597.721 106.893 597.577 106.676C597.433 106.46 597.433 106.316 597.433 106.1C597.433 105.812 597.577 105.524 597.793 105.308C598.009 105.091 598.297 104.947 598.585 104.947H603.989V99.4713C603.989 99.1831 604.133 98.8948 604.35 98.6786C604.566 98.4625 604.854 98.3184 605.142 98.3184C605.43 98.3184 605.719 98.4625 605.935 98.6786C606.151 98.8948 606.295 99.1831 606.295 99.4713V107.181H598.658C598.369 107.181 598.225 107.181 598.081 107.109Z" fill="#110580"/>
<path d="M486.978 107.037C486.761 106.965 486.617 106.82 486.473 106.604C486.329 106.388 486.257 106.244 486.329 106.028C486.329 105.74 486.473 105.451 486.617 105.235C486.833 105.019 487.122 104.875 487.41 104.875H501.316C501.604 104.875 501.892 105.019 502.108 105.235C502.325 105.451 502.397 105.74 502.397 106.028C502.397 106.316 502.253 106.604 502.108 106.82C501.892 107.037 501.604 107.181 501.316 107.181H487.41C487.266 107.109 487.122 107.109 486.978 107.037ZM514.717 107.037C514.501 106.965 514.285 106.748 514.141 106.532C513.997 106.316 513.997 106.028 514.069 105.812C514.141 105.596 514.285 105.307 514.429 105.163C514.645 105.019 514.862 104.947 515.15 104.947H529.056C529.344 104.947 529.632 105.091 529.848 105.307C530.065 105.524 530.137 105.812 530.137 106.1C530.137 106.388 529.992 106.676 529.848 106.892C529.632 107.109 529.344 107.253 529.056 107.253H515.15C515.006 107.109 514.862 107.109 514.717 107.037ZM542.529 107.037C542.313 106.965 542.097 106.748 541.953 106.532C541.809 106.316 541.809 106.028 541.881 105.812C541.953 105.596 542.097 105.307 542.241 105.163C542.457 105.019 542.674 104.947 542.962 104.947H556.868C557.156 104.947 557.444 105.091 557.66 105.307C557.877 105.524 557.949 105.812 557.949 106.1C557.949 106.388 557.804 106.676 557.66 106.892C557.444 107.109 557.156 107.253 556.868 107.253H542.962C542.818 107.109 542.674 107.109 542.529 107.037ZM570.269 107.037C570.053 106.965 569.909 106.82 569.765 106.604C569.621 106.388 569.621 106.244 569.621 106.028C569.621 105.74 569.765 105.451 569.981 105.235C570.197 105.019 570.486 104.875 570.774 104.875H584.608C584.896 104.875 585.184 105.019 585.4 105.235C585.616 105.451 585.689 105.74 585.689 106.028C585.689 106.316 585.544 106.604 585.4 106.82C585.184 107.037 584.896 107.181 584.608 107.181H570.774C570.63 107.109 570.414 107.109 570.269 107.037Z" fill="#110580"/>
<path d="M465.866 107.109V99.3993C465.866 99.1111 466.01 98.823 466.154 98.6068C466.371 98.3907 466.659 98.2466 466.947 98.2466C467.235 98.2466 467.523 98.3907 467.74 98.6068C467.956 98.823 468.028 99.1111 468.028 99.3993V104.875H473.432C473.72 104.875 474.008 105.019 474.224 105.236C474.44 105.452 474.584 105.74 474.584 106.028C474.584 106.316 474.44 106.605 474.224 106.821C474.008 107.037 473.72 107.181 473.432 107.181H465.866V107.109Z" fill="#110580"/>
<path d="M466.587 87.4386C466.371 87.3666 466.227 87.2224 466.083 87.0062C465.938 86.7901 465.866 86.6459 465.938 86.4298V73.4605C465.938 73.1722 466.083 72.8841 466.227 72.668C466.443 72.4518 466.731 72.3077 467.019 72.3077C467.307 72.3077 467.596 72.4518 467.812 72.668C468.028 72.8841 468.1 73.1722 468.1 73.4605V86.4298C468.1 86.718 467.956 87.0063 467.812 87.2224C467.596 87.4386 467.307 87.5827 467.019 87.5827C466.875 87.5827 466.731 87.5107 466.587 87.4386ZM466.587 61.5C466.371 61.4279 466.227 61.2837 466.083 61.0676C465.938 60.8514 465.866 60.7073 465.938 60.4911V47.5218C465.938 47.2336 466.083 46.9455 466.227 46.7293C466.443 46.5132 466.731 46.3691 467.019 46.3691C467.307 46.3691 467.596 46.5132 467.812 46.7293C468.028 46.9455 468.1 47.2336 468.1 47.5218V60.4911C468.1 60.7793 467.956 61.0676 467.812 61.2838C467.596 61.4999 467.307 61.644 467.019 61.644C466.875 61.572 466.731 61.572 466.587 61.5ZM466.587 35.5613C466.371 35.4892 466.227 35.3451 466.083 35.1289C465.938 34.9128 465.866 34.7686 465.938 34.5525V21.5831C465.938 21.2949 466.083 21.0068 466.227 20.7907C466.443 20.5745 466.731 20.4304 467.019 20.4304C467.307 20.4304 467.596 20.5745 467.812 20.7907C468.028 21.0068 468.1 21.2949 468.1 21.5831V34.5525C468.1 34.8407 467.956 35.129 467.812 35.3451C467.596 35.5613 467.307 35.7054 467.019 35.7054C466.875 35.6333 466.731 35.6334 466.587 35.5613Z" fill="#110580"/>
<path d="M466.587 9.62264C466.371 9.55058 466.226 9.40641 466.082 9.19026C465.938 8.9741 465.866 8.82996 465.866 8.61381V0.904297H473.504C473.792 0.904297 474.08 1.0484 474.296 1.26456C474.512 1.48071 474.656 1.76899 474.656 2.0572C474.656 2.3454 474.512 2.63351 474.296 2.84966C474.08 3.06582 473.792 3.20992 473.504 3.20992H468.1V8.68593C468.1 8.97413 467.956 9.26241 467.812 9.47857C467.595 9.69472 467.307 9.83883 467.019 9.83883C466.947 9.69472 466.731 9.62264 466.587 9.62264Z" fill="#110580"/>
<path d="M487.05 3.06595C486.833 2.9939 486.617 2.77777 486.473 2.56162C486.329 2.34546 486.329 2.05726 486.329 1.8411C486.401 1.55289 486.545 1.33681 486.761 1.19271C486.978 1.0486 487.194 0.976515 487.482 0.976515H501.388C501.676 0.976515 501.964 1.12062 502.181 1.33677C502.397 1.55293 502.541 1.84103 502.541 2.12924C502.541 2.41745 502.397 2.70572 502.181 2.92188C501.964 3.13803 501.676 3.28214 501.388 3.28214H487.482C487.338 3.13803 487.194 3.06595 487.05 3.06595ZM514.79 3.13807C514.645 3.13807 514.501 3.06605 514.357 2.994C514.213 2.92195 514.141 2.77774 514.069 2.70569C513.925 2.48953 513.853 2.12931 513.925 1.8411C513.997 1.55289 514.141 1.26469 514.429 1.12058C514.645 0.97648 515.006 0.904463 515.294 0.976515H529.2C529.488 0.976515 529.776 1.12062 529.993 1.33677C530.209 1.55293 530.353 1.84103 530.353 2.12924C530.353 2.41745 530.209 2.70572 529.993 2.92188C529.776 3.13803 529.488 3.28214 529.2 3.28214H515.294C515.078 3.13803 514.934 3.13807 514.79 3.13807ZM542.602 3.13807C542.385 3.06602 542.241 2.92184 542.097 2.70569C541.953 2.48953 541.953 2.34539 541.953 2.12924C541.953 1.84103 542.097 1.55293 542.313 1.33677C542.53 1.12062 542.818 0.976515 543.106 0.976515H557.012C557.3 0.976515 557.588 1.12062 557.805 1.33677C558.021 1.55293 558.093 1.84103 558.093 2.12924C558.093 2.41745 557.949 2.70572 557.805 2.92188C557.588 3.13803 557.3 3.28214 557.012 3.28214H543.106C542.89 3.21009 542.746 3.21012 542.602 3.13807ZM570.342 3.13807C570.125 3.06602 569.981 2.92184 569.837 2.70569C569.693 2.48953 569.693 2.34539 569.693 2.12924C569.693 1.84103 569.837 1.55293 570.053 1.33677C570.269 1.12062 570.558 0.976515 570.846 0.976515H584.752C585.04 0.976515 585.328 1.12062 585.544 1.33677C585.761 1.55293 585.833 1.84103 585.833 2.12924C585.833 2.41745 585.689 2.70572 585.544 2.92188C585.328 3.13803 585.04 3.28214 584.752 3.28214H570.774C570.63 3.21009 570.486 3.13807 570.342 3.13807Z" fill="#110580"/>
<path d="M604.638 9.69458C604.422 9.62253 604.278 9.47853 604.133 9.26238C603.989 9.04622 603.989 8.90208 603.989 8.68593V3.20992H598.585C598.297 3.20992 598.009 3.06582 597.793 2.84966C597.577 2.63351 597.433 2.3454 597.433 2.0572C597.433 1.76899 597.577 1.48071 597.793 1.26456C598.009 1.0484 598.297 0.904297 598.585 0.904297H606.223V8.61381C606.223 8.90201 606.079 9.19029 605.935 9.40645C605.719 9.6226 605.43 9.7667 605.142 9.7667C604.998 9.7667 604.782 9.76663 604.638 9.69458Z" fill="#110580"/>
<path d="M604.638 87.5825C604.422 87.5105 604.278 87.3663 604.134 87.1501C603.99 86.934 603.917 86.79 603.917 86.5739V73.6045C603.917 73.3163 604.062 73.028 604.278 72.8119C604.494 72.5957 604.782 72.4516 605.07 72.4516C605.358 72.4516 605.647 72.5957 605.863 72.8119C606.079 73.028 606.223 73.3163 606.223 73.6045V86.6458C606.223 86.934 606.079 87.2223 605.863 87.4384C605.647 87.6546 605.358 87.7987 605.07 87.7987C604.926 87.6546 604.782 87.6546 604.638 87.5825ZM604.638 61.5717C604.422 61.4997 604.278 61.3557 604.134 61.1395C603.99 60.9234 603.917 60.7792 603.917 60.5631V47.5938C603.917 47.3055 604.062 47.0173 604.278 46.8011C604.494 46.585 604.782 46.4409 605.07 46.4409C605.358 46.4409 605.647 46.585 605.863 46.8011C606.079 47.0173 606.223 47.3055 606.223 47.5938V60.5631C606.223 60.8513 606.079 61.1396 605.863 61.3557C605.647 61.5719 605.358 61.716 605.07 61.716C604.926 61.716 604.782 61.6438 604.638 61.5717ZM604.638 35.6331C604.422 35.561 604.278 35.417 604.134 35.2009C603.99 34.9847 603.917 34.8406 603.917 34.6244V21.6551C603.917 21.3669 604.062 21.0786 604.278 20.8625C604.494 20.6463 604.782 20.5022 605.07 20.5022C605.358 20.5022 605.647 20.6463 605.863 20.8625C606.079 21.0786 606.223 21.3669 606.223 21.6551V34.6244C606.223 34.9126 606.079 35.2009 605.863 35.4171C605.647 35.6332 605.358 35.7773 605.07 35.7773C604.926 35.7053 604.782 35.7051 604.638 35.6331Z" fill="#110580"/>
<path d="M429.984 74.325L430.849 74.1808C431.858 73.9646 432.938 74.1088 433.875 74.6131C434.812 75.1175 435.532 75.91 435.892 76.9188L442.017 94.0671C442.089 94.2833 442.161 94.4994 442.161 94.7876C440.072 96.5169 437.622 97.6698 434.956 98.1021C432.578 98.5344 430.128 98.3182 427.823 97.6697C427.823 97.4536 427.751 97.2375 427.751 97.0213L426.382 78.8641C426.31 77.7833 426.67 76.7746 427.318 75.982C428.039 75.1174 428.976 74.5412 429.984 74.325Z" fill="#D7D7E6"/>
<path d="M429.696 48.3866C429.552 48.1705 429.336 47.9543 429.12 47.8102C428.904 47.6661 428.615 47.594 428.327 47.594C428.039 47.594 427.823 47.6661 427.535 47.8102C427.318 47.9543 427.102 48.1705 426.958 48.3866C426.021 50.26 424.797 52.7097 423.86 54.2948C422.203 57.1049 421.482 63.8777 422.275 66.9039C423.283 70.0742 424.797 73.1003 426.742 75.8383C426.886 76.0544 427.174 76.2705 427.462 76.3426C428.903 76.7749 430.345 76.775 431.786 76.4147C434.596 75.7663 434.884 73.8929 434.884 73.8929C434.884 73.8929 436.469 67.6245 436.253 63.8778C435.965 60.1311 433.947 55.1595 433.083 54.2948C431.858 52.4215 430.705 50.4761 429.696 48.3866Z" fill="#C7645D"/>
<path d="M452.609 162.805L442.377 95.9406C442.305 95.5804 442.233 95.2201 442.161 94.8599C440.144 96.5171 437.694 97.6699 435.028 98.1022C432.722 98.4625 430.273 98.3183 428.039 97.6698C428.039 98.1021 428.111 98.5344 428.255 98.8947L444.107 164.606C444.467 165.615 445.187 166.407 446.124 166.912C447.061 167.416 448.069 167.56 449.15 167.344C450.159 167.128 451.096 166.551 451.744 165.759C452.248 164.894 452.609 163.885 452.609 162.805Z" fill="#2B31BA"/>
<path d="M449.51 169.434L470.261 170.947L479.484 44.0635L458.733 42.5503L449.51 169.434Z" fill="#DADAED"/>
<path d="M471.126 60.5632L470.982 62.0764L478.115 62.5807L478.259 61.0676L471.126 60.5632Z" fill="#989BD7"/>
<path d="M470.117 74.4692L470.045 75.9822L477.178 76.4867L477.25 74.9736L470.117 74.4692Z" fill="#989BD7"/>
<path d="M469.036 88.9517L468.892 90.4648L476.025 90.9691L476.169 89.4562L469.036 88.9517Z" fill="#989BD7"/>
<path d="M468.027 103.146L467.883 104.659L475.016 105.163L475.161 103.65L468.027 103.146Z" fill="#989BD7"/>
<path d="M467.019 117.34L466.875 118.853L474.008 119.358L474.152 117.845L467.019 117.34Z" fill="#989BD7"/>
<path d="M465.938 131.534L465.794 133.047L472.927 133.552L473.071 132.039L465.938 131.534Z" fill="#989BD7"/>
<path d="M464.929 145.729L464.785 147.242L471.918 147.746L472.062 146.233L464.929 145.729Z" fill="#989BD7"/>
<path d="M462.407 186.438L475.665 188.743L493.101 88.5195L479.844 86.2139L462.407 186.438Z" fill="#FFADB2"/>
<path d="M479.917 86.2137L493.174 88.5193L491.085 69.3534L488.347 68.8491L479.917 86.2137Z" fill="#EBDBCD"/>
<path d="M490.22 78.216L488.274 76.919L486.689 77.1352L484.744 76.1266L488.202 68.9214L490.94 69.4257L491.805 77.1352L490.22 78.216Z" fill="#FF7A82"/>
<path d="M489.139 122.023H431.137C430.777 122.023 430.416 122.096 430.128 122.24C429.768 122.384 429.48 122.6 429.263 122.888C429.047 123.176 428.831 123.464 428.759 123.825C428.687 124.185 428.615 124.545 428.687 124.906L436.397 187.23C436.541 188.599 437.261 189.896 438.27 190.833C439.351 191.77 440.648 192.274 442.089 192.274H478.403C479.772 192.274 481.141 191.77 482.222 190.833C483.302 189.896 483.951 188.599 484.095 187.23L491.588 124.906C491.66 124.545 491.588 124.185 491.516 123.897C491.444 123.536 491.228 123.248 491.012 122.96C490.796 122.672 490.508 122.456 490.147 122.312C489.859 122.095 489.499 122.023 489.139 122.023Z" fill="#FF7A82"/>
<path d="M771.726 19.5659H537.774C529.488 19.5659 522.715 26.3388 522.715 34.6968V183.412C522.715 191.77 529.488 198.543 537.774 198.543H771.726C780.012 198.543 786.785 191.77 786.785 183.412V34.6968C786.785 26.3388 780.084 19.5659 771.726 19.5659Z" fill="#B3B6DE"/>
<path d="M772.806 29.1487H536.692C534.459 29.1487 532.729 30.95 532.729 33.1837V181.754C532.729 183.988 534.531 185.789 536.692 185.789H772.806C775.04 185.789 776.769 183.988 776.769 181.754V33.1837C776.769 30.95 774.968 29.1487 772.806 29.1487Z" fill="#E8EAF7"/>
<path d="M815.606 270.45H493.895C492.31 270.45 490.796 270.018 489.427 269.297C488.058 268.505 486.906 267.424 486.113 266.055C485.321 264.686 484.888 263.173 484.816 261.588C484.744 260.003 485.104 258.49 485.825 257.049L518.464 206.468C519.689 204.091 521.635 202.073 523.868 200.704C526.174 199.335 528.768 198.615 531.434 198.615H777.779C780.445 198.615 783.111 199.335 785.416 200.704C787.722 202.073 789.595 204.091 790.82 206.468L823.46 257.049C824.18 258.418 824.54 260.003 824.468 261.588C824.396 263.173 823.964 264.686 823.172 266.055C822.379 267.424 821.226 268.505 819.857 269.297C818.704 270.018 817.191 270.45 815.606 270.45Z" fill="#C5C6E3"/>
<path d="M824.612 261.083C824.684 262.308 824.468 263.533 824.036 264.686C823.603 265.839 822.955 266.848 822.09 267.712C821.226 268.577 820.217 269.297 819.136 269.73C818.055 270.234 816.83 270.45 815.606 270.45H493.894C492.669 270.45 491.516 270.234 490.364 269.73C489.283 269.225 488.202 268.577 487.409 267.712C486.545 266.848 485.896 265.767 485.464 264.686C485.032 263.533 484.816 262.308 484.888 261.083V269.153C484.888 271.531 485.896 273.837 487.554 275.494C489.211 277.151 491.516 278.088 493.894 278.088H815.606C817.983 278.088 820.217 277.151 821.946 275.422C823.603 273.765 824.612 271.459 824.612 269.081V261.083Z" fill="#999BC9"/>
<path d="M717.398 263.822H592.172C591.668 263.822 591.164 263.677 590.731 263.461C590.299 263.245 589.939 262.885 589.651 262.452C589.362 262.02 589.218 261.516 589.218 261.011C589.218 260.507 589.29 260.003 589.579 259.57L594.55 243.359C594.982 242.566 595.559 241.918 596.279 241.485C597 241.053 597.864 240.837 598.729 240.837H710.842C711.706 240.837 712.571 241.053 713.291 241.485C714.012 241.918 714.66 242.566 715.021 243.359L719.92 259.57C720.136 260.003 720.281 260.507 720.281 261.011C720.281 261.516 720.136 262.02 719.848 262.452C719.56 262.885 719.2 263.245 718.767 263.461C718.335 263.749 717.903 263.822 717.398 263.822Z" fill="#D8DBF2"/>
<path d="M763.296 235.289H546.204C545.627 235.289 545.051 235.145 544.547 234.857C544.042 234.568 543.61 234.136 543.322 233.632C543.034 233.127 542.817 232.551 542.817 231.975C542.817 231.398 542.961 230.822 543.25 230.245L552.4 211.08C552.905 210.143 553.553 209.422 554.418 208.918C555.282 208.414 556.291 208.125 557.3 208.125H752.272C753.281 208.125 754.289 208.414 755.154 208.918C756.019 209.422 756.739 210.215 757.244 211.08L766.394 230.245C766.682 230.75 766.826 231.398 766.826 231.975C766.826 232.551 766.682 233.2 766.322 233.704C766.034 234.208 765.602 234.641 765.025 234.929C764.449 235.145 763.872 235.289 763.296 235.289Z" fill="#A7A9D6"/>
<path d="M532.729 43.0544H776.841V181.754C776.841 182.259 776.769 182.835 776.553 183.267C776.337 183.772 776.048 184.204 775.688 184.564C775.328 184.925 774.896 185.213 774.391 185.429C773.887 185.645 773.383 185.717 772.878 185.717H536.692C535.612 185.717 534.603 185.285 533.882 184.564C533.162 183.844 532.729 182.763 532.729 181.754V43.0544Z" fill="white"/>
<path d="M608.312 55.8079H582.95C582.302 55.8079 581.797 56.3123 581.797 56.9608V82.467C581.797 83.1155 582.302 83.6199 582.95 83.6199H608.312C608.961 83.6199 609.465 83.1155 609.465 82.467V56.9608C609.465 56.3843 608.961 55.8079 608.312 55.8079Z" fill="#E8E8F7"/>
<path d="M725.18 78.5762H633.53C632.161 78.5762 631.008 79.729 631.008 81.098C631.008 82.539 632.161 83.6198 633.53 83.6198H725.18C726.549 83.6198 727.702 82.467 727.702 81.098C727.702 79.729 726.549 78.5762 725.18 78.5762Z" fill="#E8E8F7"/>
<path d="M699.458 67.1919H633.53C632.161 67.1919 631.008 68.3447 631.008 69.7137C631.008 71.1547 632.161 72.2355 633.53 72.2355H699.458C700.827 72.2355 701.979 71.0827 701.979 69.7137C701.979 68.3447 700.827 67.1919 699.458 67.1919Z" fill="#E8E8F7"/>
<path d="M712.283 55.8079H633.53C632.161 55.8079 631.008 56.9607 631.008 58.3297C631.008 59.7707 632.161 60.8515 633.53 60.8515H712.355C713.724 60.8515 714.877 59.6987 714.877 58.3297C714.877 56.9607 713.724 55.8079 712.283 55.8079Z" fill="#E8E8F7"/>
<path d="M608.312 101.128H582.95C582.302 101.128 581.797 101.633 581.797 102.281V127.788C581.797 128.436 582.302 128.94 582.95 128.94H608.312C608.961 128.94 609.465 128.436 609.465 127.788V102.281C609.465 101.633 608.961 101.128 608.312 101.128Z" fill="#E8E8F7"/>
<path d="M725.18 123.897H633.53C632.161 123.897 631.008 125.05 631.008 126.419C631.008 127.86 632.161 128.941 633.53 128.941H725.18C726.549 128.941 727.702 127.788 727.702 126.419C727.702 125.05 726.549 123.897 725.18 123.897Z" fill="#E8E8F7"/>
<path d="M699.458 112.513H633.53C632.161 112.513 631.008 113.666 631.008 115.035C631.008 116.476 632.161 117.556 633.53 117.556H699.458C700.827 117.556 701.979 116.403 701.979 115.035C701.979 113.666 700.827 112.513 699.458 112.513Z" fill="#E8E8F7"/>
<path d="M712.283 101.128H633.53C632.161 101.128 631.008 102.281 631.008 103.65C631.008 105.091 632.161 106.172 633.53 106.172H712.355C713.724 106.172 714.877 105.019 714.877 103.65C714.877 102.281 713.724 101.128 712.283 101.128Z" fill="#E8E8F7"/>
<path d="M608.312 146.449H582.95C582.302 146.449 581.797 146.954 581.797 147.602V173.108C581.797 173.757 582.302 174.261 582.95 174.261H608.312C608.961 174.261 609.465 173.757 609.465 173.108V147.602C609.465 146.954 608.961 146.449 608.312 146.449Z" fill="#E8E8F7"/>
<path d="M725.18 169.217H633.53C632.161 169.217 631.008 170.37 631.008 171.739C631.008 173.18 632.161 174.261 633.53 174.261H725.18C726.549 174.261 727.702 173.108 727.702 171.739C727.702 170.298 726.549 169.217 725.18 169.217Z" fill="#E8E8F7"/>
<path d="M699.458 157.833H633.53C632.161 157.833 631.008 158.986 631.008 160.355C631.008 161.796 632.161 162.877 633.53 162.877H699.458C700.827 162.877 701.979 161.724 701.979 160.355C701.979 158.986 700.827 157.833 699.458 157.833Z" fill="#E8E8F7"/>
<path d="M712.283 146.449H633.53C632.161 146.449 631.008 147.602 631.008 148.971C631.008 150.412 632.161 151.493 633.53 151.493H712.355C713.724 151.493 714.877 150.34 714.877 148.971C714.877 147.602 713.724 146.449 712.283 146.449Z" fill="#E8E8F7"/>
<path d="M541.665 38.6596C543.106 38.6596 544.259 37.5067 544.259 36.0656C544.259 34.6246 543.106 33.4717 541.665 33.4717C540.224 33.4717 539.071 34.6246 539.071 36.0656C539.143 37.5067 540.296 38.6596 541.665 38.6596Z" fill="#FF7A82"/>
<path d="M551.319 38.6596C552.76 38.6596 553.913 37.5067 553.913 36.0656C553.913 34.6246 552.76 33.4717 551.319 33.4717C549.878 33.4717 548.726 34.6246 548.726 36.0656C548.726 37.5067 549.878 38.6596 551.319 38.6596Z" fill="#FDB62F"/>
<path d="M560.902 38.6596C562.343 38.6596 563.496 37.5067 563.496 36.0656C563.496 34.6246 562.343 33.4717 560.902 33.4717C559.461 33.4717 558.308 34.6246 558.308 36.0656C558.308 37.5067 559.461 38.6596 560.902 38.6596Z" fill="#64A7B0"/>
<path d="M885.063 56.4563C885.208 56.4563 885.28 56.4563 885.424 56.4563C885.568 56.4563 885.64 56.5283 885.712 56.6004C885.784 56.6724 885.856 56.7444 885.928 56.8885C886 57.0326 886 57.1047 886 57.2488C886 57.3929 886 57.4649 885.928 57.609C885.424 59.3383 884.703 60.9234 883.839 62.5086C883.694 62.7247 883.55 62.8689 883.334 62.941C883.118 63.013 882.902 63.0129 882.686 62.8688C882.47 62.7247 882.326 62.5807 882.253 62.3645C882.181 62.1484 882.253 61.9323 882.326 61.7161C883.118 60.2751 883.767 58.762 884.199 57.1768C884.271 57.0327 884.343 56.8885 884.487 56.7444C884.703 56.5283 884.919 56.4563 885.063 56.4563Z" fill="#110580"/>
<path d="M742.113 20.4304C742.185 20.4304 742.329 20.4304 742.401 20.4304L743.626 20.7186C746.508 21.4391 749.462 22.1596 752.632 23.0242C752.776 23.0242 752.848 23.0964 752.92 23.1684C752.992 23.2405 753.064 23.3125 753.137 23.4566C753.209 23.5286 753.209 23.6727 753.209 23.8168C753.209 23.9609 753.209 24.033 753.137 24.1771C753.137 24.3212 753.065 24.3932 752.992 24.4652C752.92 24.5373 752.848 24.6094 752.704 24.6814C752.56 24.7535 752.488 24.7535 752.344 24.7535C752.2 24.7535 752.128 24.7535 751.984 24.6814C748.886 23.8168 745.931 23.0963 743.049 22.3758L741.824 22.0876C741.608 22.0156 741.392 21.8715 741.32 21.7274C741.176 21.5112 741.176 21.295 741.248 21.0788C741.32 20.8627 741.392 20.7186 741.536 20.5745C741.752 20.5024 741.896 20.4304 742.113 20.4304ZM762.359 26.2665C762.503 26.2665 762.647 26.2665 762.792 26.2665C766.106 27.4914 769.348 28.9325 772.519 30.6617C772.591 30.7338 772.735 30.8059 772.807 30.8779C772.879 30.95 772.951 31.094 772.951 31.1661C772.951 31.3102 773.023 31.3822 772.951 31.5263C772.951 31.6704 772.879 31.7425 772.879 31.8866C772.807 31.9586 772.735 32.1028 772.663 32.1749C772.591 32.247 772.446 32.319 772.374 32.319C772.23 32.319 772.158 32.391 772.014 32.319C771.87 32.319 771.798 32.2468 771.726 32.2468C768.628 30.5897 765.457 29.1487 762.215 27.9959C761.999 27.9238 761.855 27.7797 761.783 27.6356C761.711 27.4915 761.639 27.2753 761.639 27.0592C761.639 26.843 761.783 26.6989 761.855 26.5548C761.999 26.3387 762.143 26.2665 762.359 26.2665ZM780.804 36.3538C780.949 36.3538 781.021 36.3538 781.165 36.3538C781.309 36.3538 781.381 36.426 781.453 36.498C784.263 38.7316 786.857 41.2534 789.09 43.9913C789.162 44.0634 789.234 44.2074 789.234 44.2795C789.234 44.4236 789.307 44.4956 789.234 44.6397C789.234 44.7838 789.162 44.8559 789.162 45C789.09 45.072 789.018 45.2162 788.946 45.2883C788.802 45.4324 788.514 45.5045 788.298 45.5045C788.082 45.5045 787.866 45.3603 787.721 45.2162C785.488 42.5503 783.038 40.1006 780.3 37.939C780.228 37.867 780.156 37.7948 780.084 37.6507C780.012 37.5787 780.012 37.4346 780.012 37.2905C780.012 37.1464 780.012 37.0743 780.012 36.9302C780.012 36.7861 780.084 36.7141 780.156 36.6421C780.372 36.498 780.588 36.4258 780.804 36.3538ZM794.062 52.5654C794.206 52.5654 794.422 52.5655 794.566 52.6375C794.71 52.7096 794.855 52.8537 794.927 52.9978C796.584 56.1681 797.881 59.5545 798.817 63.0129C798.889 63.157 798.889 63.2291 798.889 63.3732C798.889 63.5173 798.817 63.5894 798.817 63.7335C798.745 63.8776 798.673 63.9497 798.601 64.0218C798.529 64.0938 798.385 64.1658 798.241 64.1658C798.097 64.1658 798.025 64.2379 797.881 64.1658C797.737 64.1658 797.665 64.0938 797.52 64.0218C797.448 63.9497 797.304 63.8776 797.232 63.7335C797.16 63.6614 797.088 63.5173 797.088 63.3732C796.224 59.9868 794.927 56.7444 793.341 53.6462C793.269 53.5742 793.269 53.43 793.269 53.2859C793.269 53.1418 793.269 53.0698 793.341 52.9257C793.341 52.7816 793.414 52.7096 793.486 52.6375C793.558 52.5655 793.63 52.4934 793.774 52.4214C793.846 52.6375 793.99 52.5654 794.062 52.5654ZM789.739 64.382C791.684 64.1659 793.63 64.0217 795.575 64.0937C795.791 64.0937 796.007 64.1659 796.152 64.382C796.296 64.5261 796.368 64.7422 796.368 65.0304C796.368 65.1745 796.368 65.2466 796.296 65.3907C796.224 65.4627 796.151 65.6069 796.079 65.679C796.007 65.751 795.935 65.823 795.791 65.895C795.719 65.9671 795.575 65.9671 795.431 65.9671C793.558 65.9671 791.684 66.0391 789.811 66.2553C788.298 66.4714 786.713 66.7598 785.2 67.12C784.983 67.1921 784.767 67.12 784.551 67.0479C784.335 66.9038 784.191 66.7597 784.191 66.5436C784.119 66.3995 784.119 66.3274 784.119 66.1833C784.119 66.0392 784.191 65.9672 784.263 65.8231C784.335 65.751 784.407 65.6068 784.479 65.5348C784.551 65.4627 784.695 65.3907 784.767 65.3907C786.497 64.8863 788.082 64.5261 789.739 64.382ZM805.879 65.5348C805.951 65.5348 806.095 65.5348 806.167 65.5348C809.625 66.3273 813.012 67.3361 816.398 68.4889C816.614 68.561 816.758 68.7052 816.83 68.9213C816.902 69.1375 816.902 69.3536 816.83 69.5697C816.758 69.7859 816.614 69.9299 816.398 70.0741C816.182 70.2182 815.966 70.2182 815.75 70.1462C812.435 68.9933 809.121 68.0567 805.734 67.2641C805.518 67.192 805.374 67.12 805.23 66.9038C805.086 66.7597 805.014 66.5435 805.086 66.3274C805.086 66.1112 805.158 65.895 805.302 65.7509C805.518 65.6068 805.662 65.5348 805.879 65.5348ZM775.473 69.6418C775.617 69.6418 775.761 69.6417 775.905 69.7138C776.049 69.7858 776.193 69.858 776.265 70.0021C776.337 70.0742 776.409 70.2182 776.409 70.2902C776.409 70.4343 776.409 70.5064 776.409 70.6505C776.409 70.7946 776.337 70.8666 776.265 70.9386C776.193 71.0107 776.121 71.1548 776.049 71.1548C774.608 72.2356 773.239 73.4606 772.086 74.8295C771.077 76.0544 770.213 77.3514 769.564 78.7924C769.42 79.0085 769.276 79.1527 769.06 79.1527C768.844 79.2247 768.628 79.2246 768.412 79.0805C768.195 79.0085 768.051 78.8645 767.979 78.6483C767.907 78.4322 767.907 78.2159 767.979 77.9998C768.7 76.4146 769.636 74.9016 770.717 73.5326C771.942 72.0195 773.383 70.7226 774.968 69.5697C775.184 69.6418 775.329 69.6418 775.473 69.6418ZM799.25 73.0282H799.394C799.538 73.0282 799.61 73.0281 799.754 73.1002C799.826 73.1722 799.97 73.1723 800.042 73.3164C800.114 73.3884 800.186 73.4606 800.258 73.6047C800.331 73.6767 800.33 73.8209 800.33 73.965C800.33 77.6396 799.754 81.2421 798.601 84.7006C798.529 84.9168 798.385 85.0608 798.169 85.2049C797.953 85.277 797.737 85.3491 797.52 85.2771C797.304 85.205 797.16 85.0608 797.016 84.8447C796.944 84.6285 796.872 84.4124 797.016 84.1963C798.169 80.9539 798.673 77.4954 798.673 74.0369C798.673 73.8207 798.745 73.6047 798.889 73.3885C798.817 73.1003 799.034 72.9562 799.25 73.0282ZM825.981 71.8753C826.125 71.8753 826.197 71.8753 826.341 71.8753C827.494 72.3077 828.719 72.6679 829.872 72.9561C832.177 73.6766 834.267 74.3252 836.356 74.8295C836.5 74.8295 836.573 74.9016 836.645 74.9736C836.717 75.0457 836.789 75.1177 836.861 75.1898C836.933 75.2619 836.933 75.4059 837.005 75.4779C837.005 75.622 837.005 75.6941 837.005 75.8382C837.005 75.9823 836.933 76.0545 836.861 76.1265C836.789 76.1986 836.717 76.2705 836.645 76.3425C836.573 76.4146 836.428 76.4147 836.356 76.4868C836.212 76.4868 836.14 76.4868 835.996 76.4868C833.907 75.9824 831.673 75.4059 829.367 74.6134C828.215 74.2531 826.99 73.8928 825.837 73.5326C825.621 73.4605 825.477 73.3164 825.405 73.1723C825.26 73.0282 825.26 72.812 825.26 72.5959C825.26 72.3797 825.405 72.2356 825.477 72.0915C825.621 71.9474 825.765 71.8753 825.981 71.8753ZM876.273 69.2095C876.417 69.2095 876.561 69.2095 876.705 69.2816C876.85 69.3536 876.994 69.4256 877.066 69.5697C877.138 69.6418 877.21 69.7858 877.21 69.8579C877.21 70.002 877.282 70.074 877.21 70.2181C877.21 70.3622 877.138 70.4343 877.138 70.5784C877.066 70.6504 876.994 70.7946 876.922 70.8667C874.112 73.1724 870.941 74.9736 867.627 76.2706C867.411 76.3426 867.195 76.3426 866.978 76.2706C866.762 76.1985 866.618 75.9824 866.546 75.7663C866.474 75.5501 866.474 75.3338 866.546 75.1177C866.618 74.9015 866.834 74.7575 867.05 74.6855C870.221 73.4606 873.247 71.7313 875.913 69.5697C875.985 69.2815 876.129 69.2095 876.273 69.2095ZM846.372 76.847H846.588C850.046 77.2073 853.505 77.2792 856.963 76.919C857.179 76.919 857.396 76.9911 857.612 77.1352C857.756 77.2793 857.9 77.4955 857.9 77.7116C857.9 77.9278 857.828 78.1439 857.684 78.36C857.54 78.5762 857.324 78.6483 857.107 78.6483C853.577 79.0086 849.974 78.9365 846.444 78.5762C846.227 78.5762 846.011 78.4322 845.867 78.2881C845.723 78.144 845.651 77.8556 845.651 77.6395C845.651 77.4233 845.795 77.2792 845.867 77.063C846.083 76.9189 846.228 76.847 846.372 76.847ZM767.187 87.9429C767.403 87.9429 767.619 87.9429 767.835 88.087C767.979 88.2311 768.123 88.4473 768.195 88.6635C768.556 91.4014 769.997 93.8512 772.086 95.6524C772.519 96.0127 772.951 96.3009 773.455 96.5892C773.671 96.7333 773.815 96.8773 773.888 97.0935C773.96 97.3096 773.888 97.5259 773.815 97.7421C773.671 97.9582 773.527 98.1022 773.311 98.1743C773.095 98.2463 772.879 98.1744 772.663 98.1023C772.086 97.7421 771.582 97.3818 771.077 97.0215C768.7 95.0041 767.115 92.1219 766.682 88.9516C766.682 88.7354 766.682 88.5194 766.826 88.3032C766.754 88.087 766.97 88.015 767.187 87.9429ZM792.045 92.266C792.189 92.266 792.333 92.266 792.405 92.266C792.477 92.266 792.621 92.4102 792.765 92.4822C792.837 92.5543 792.909 92.6263 792.981 92.7704C793.053 92.8424 793.053 92.9865 793.053 93.1306C793.053 93.2747 793.053 93.3468 792.981 93.4909C792.909 93.5629 792.837 93.7072 792.765 93.7792C790.171 96.3731 786.929 98.2463 783.326 99.255C783.182 99.255 783.11 99.255 782.966 99.255C782.822 99.255 782.75 99.183 782.678 99.111C782.606 99.0389 782.462 98.9668 782.462 98.8948C782.39 98.8227 782.318 98.6787 782.318 98.6066C782.318 98.4625 782.318 98.3905 782.318 98.2464C782.318 98.1023 782.39 98.0301 782.462 97.9581C782.534 97.886 782.606 97.742 782.678 97.6699C782.75 97.5979 782.894 97.5259 782.966 97.5259C786.208 96.5892 789.235 94.8599 791.612 92.4822C791.684 92.4102 791.9 92.3381 792.045 92.266Z" fill="#110580"/>
<path d="M727.27 15.2427C727.486 15.2427 727.702 15.2426 727.846 15.3867C729.215 16.3234 730.656 17.0439 732.241 17.5483C732.458 17.6204 732.602 17.7643 732.746 17.9805C732.818 18.1967 732.818 18.4129 732.746 18.6291C732.674 18.8452 732.53 18.9893 732.314 19.1334C732.097 19.2055 731.881 19.2775 731.665 19.1334C730.008 18.557 728.351 17.7644 726.91 16.7557C726.766 16.6836 726.693 16.5396 726.621 16.3235C726.549 16.1793 726.549 15.9631 726.621 15.8189C726.693 15.6748 726.766 15.5308 726.91 15.3867C726.982 15.3867 727.126 15.3147 727.27 15.2427Z" fill="#110580"/>
<path d="M36.341 672.623C55.1391 676.712 73.7561 664.688 77.8763 645.749C81.9965 626.81 70.1281 608.153 51.2596 604.048C32.4614 599.959 13.8445 611.983 9.72428 630.922C5.60406 649.861 17.5429 668.533 36.341 672.623Z" fill="#E8EBFF"/>
<path fill-rule="evenodd" clip-rule="evenodd" d="M1.45549 630.967C2.91085 622.583 6.90082 614.749 12.7425 608.573C16.6707 604.413 21.2905 601.142 26.5867 598.828C31.7268 596.555 37.3014 595.334 42.9432 595.16C48.585 594.987 54.1929 595.986 59.4303 598.01C64.6524 600.105 69.4488 603.139 73.538 607.052C79.6288 612.948 83.8827 620.51 85.7487 628.88C87.5443 637.234 86.9032 645.943 83.8439 653.905C82.8315 656.485 81.5927 658.948 80.1459 661.264C80.5502 661.538 80.9372 661.85 81.3021 662.2L126.448 705.499C129.925 708.836 130.043 714.392 126.706 717.869C123.354 721.416 117.868 721.55 114.391 718.213L69.2452 674.915C68.8811 674.565 68.5539 674.191 68.2636 673.798C61.3139 678.706 53.1801 681.388 44.7115 681.596C36.186 681.806 27.8447 679.475 20.6577 674.889C13.5411 670.317 7.9004 663.707 4.44246 655.876C1.05493 648.06 -0.0151821 639.422 1.45549 630.967ZM51.4077 672.509C58.0752 671.01 64.2257 667.481 69.0019 662.474C75.3335 655.74 78.8337 646.768 78.7219 637.453C78.5397 628.123 74.632 619.309 67.9841 612.922C62.9767 608.146 56.7415 604.946 49.9214 603.757C43.1013 602.568 36.1339 603.412 29.8396 606.246C23.5454 609.08 18.1814 613.738 14.4795 619.569C10.7777 625.4 8.85422 632.208 9.03375 639.178C9.1582 646.063 11.3765 652.813 15.3093 658.462C19.3124 664.125 24.8494 668.501 31.2378 670.997C37.6261 673.492 44.6698 673.992 51.4077 672.509Z" fill="#2B31BA"/>
<path d="M739.519 108.838C743.05 112.08 744.13 116.259 743.338 119.285C742.473 122.6 747.733 121.879 748.598 118.853C749.318 116.331 749.246 113.738 748.454 111.216C747.589 108.766 746.004 106.676 743.842 105.163C741.393 103.506 738.582 102.425 735.628 101.993C732.674 101.561 729.72 101.777 726.838 102.641C726.55 102.713 726.262 102.786 726.045 103.002C725.829 103.146 725.613 103.434 725.469 103.65C725.325 103.938 725.253 104.227 725.253 104.515C725.253 104.803 725.325 105.091 725.469 105.379C726.766 106.893 728.351 106.388 732.314 106.388C734.98 106.388 737.502 107.253 739.519 108.838Z" fill="white"/>
<path d="M36.53 673.482C55.3281 677.571 73.945 665.547 78.0652 646.608C82.1855 627.669 70.3171 609.012 51.4485 604.907C32.6504 600.817 14.0335 612.842 9.91325 631.781C5.79303 650.72 17.7318 669.392 36.53 673.482Z" fill="#E8EBFF"/>
<path fill-rule="evenodd" clip-rule="evenodd" d="M1.64446 631.826C3.09981 623.441 7.08979 615.608 12.9315 609.432C16.8596 605.272 21.4794 602.001 26.7756 599.687C31.9157 597.414 37.4904 596.193 43.1322 596.019C48.774 595.846 54.3819 596.845 59.6193 598.869C64.8414 600.963 69.6378 603.998 73.7269 607.911C79.8178 613.807 84.0716 621.369 85.9377 629.739C87.7333 638.093 87.0922 646.802 84.0328 654.764C83.0205 657.344 81.7817 659.807 80.3348 662.123C80.7392 662.397 81.1262 662.709 81.491 663.059L126.637 706.357C130.114 709.695 130.232 715.251 126.895 718.728C123.543 722.275 118.057 722.409 114.58 719.072L69.4341 675.773C69.0701 675.424 68.7428 675.05 68.4525 674.657C61.5028 679.564 53.3691 682.247 44.9004 682.455C36.375 682.665 28.0336 680.334 20.8467 675.748C13.7301 671.176 8.08936 664.566 4.63143 656.735C1.2439 648.919 0.173783 640.281 1.64446 631.826ZM51.5967 673.368C58.2642 671.869 64.4147 668.34 69.1909 663.333C75.5225 656.599 79.0227 647.627 78.9109 638.312C78.7286 628.982 74.8209 620.168 68.173 613.781C63.1656 609.005 56.9305 605.805 50.1104 604.616C43.2902 603.427 36.3228 604.271 30.0286 607.105C23.7343 609.939 18.3704 614.597 14.6685 620.428C10.9666 626.259 9.04318 633.067 9.22272 640.037C9.34716 646.922 11.5655 653.672 15.4982 659.32C19.5014 664.984 25.0384 669.36 31.4267 671.855C37.815 674.351 44.8588 674.851 51.5967 673.368Z" fill="#2B31BA"/>
<path d="M24.5142 610.5L25.0142 660.542C25.0142 663.265 28.6391 665.521 33.0142 665.521C37.3892 665.521 41.0142 663.265 41.0142 660.542L40.5 604.5C40.5 604.5 39.5 604 36.5 605C33.5 606.001 33 605.857 31.5 606.5C27.9996 608 26 609 26 609L24.5142 610.5Z" fill="#FF7A82" fill-opacity="0.6"/>
</svg>
