<svg width="465" height="279" viewBox="0 0 465 279" fill="none" xmlns="http://www.w3.org/2000/svg">
<path d="M177.081 107.109C176.865 107.037 176.721 106.893 176.577 106.676C176.433 106.46 176.433 106.316 176.433 106.1C176.433 105.812 176.577 105.524 176.793 105.308C177.009 105.091 177.297 104.947 177.585 104.947H182.989V99.4713C182.989 99.1831 183.133 98.8948 183.35 98.6786C183.566 98.4625 183.854 98.3184 184.142 98.3184C184.43 98.3184 184.719 98.4625 184.935 98.6786C185.151 98.8948 185.295 99.1831 185.295 99.4713V107.181H177.658C177.369 107.181 177.225 107.181 177.081 107.109Z" fill="#110580"/>
<path d="M65.9775 107.037C65.7614 106.965 65.6173 106.82 65.4732 106.604C65.3291 106.388 65.257 106.244 65.329 106.028C65.329 105.74 65.4732 105.451 65.6173 105.235C65.8334 105.019 66.1216 104.875 66.4098 104.875H80.3158C80.604 104.875 80.8923 105.019 81.1084 105.235C81.3246 105.451 81.3966 105.74 81.3966 106.028C81.3966 106.316 81.2525 106.604 81.1084 106.82C80.8923 107.037 80.604 107.181 80.3158 107.181H66.4098C66.2657 107.109 66.1216 107.109 65.9775 107.037ZM93.7175 107.037C93.5013 106.965 93.2852 106.748 93.1411 106.532C92.997 106.316 92.9969 106.028 93.069 105.812C93.141 105.596 93.2851 105.307 93.4293 105.163C93.6454 105.019 93.8616 104.947 94.1498 104.947H108.056C108.344 104.947 108.632 105.091 108.848 105.307C109.065 105.524 109.137 105.812 109.137 106.1C109.137 106.388 108.992 106.676 108.848 106.892C108.632 107.109 108.344 107.253 108.056 107.253H94.1498C94.0057 107.109 93.8616 107.109 93.7175 107.037ZM121.529 107.037C121.313 106.965 121.097 106.748 120.953 106.532C120.809 106.316 120.809 106.028 120.881 105.812C120.953 105.596 121.097 105.307 121.241 105.163C121.457 105.019 121.674 104.947 121.962 104.947H135.868C136.156 104.947 136.444 105.091 136.66 105.307C136.877 105.524 136.949 105.812 136.949 106.1C136.949 106.388 136.804 106.676 136.66 106.892C136.444 107.109 136.156 107.253 135.868 107.253H121.962C121.818 107.109 121.674 107.109 121.529 107.037ZM149.269 107.037C149.053 106.965 148.909 106.82 148.765 106.604C148.621 106.388 148.621 106.244 148.621 106.028C148.621 105.74 148.765 105.451 148.981 105.235C149.197 105.019 149.486 104.875 149.774 104.875H163.608C163.896 104.875 164.184 105.019 164.4 105.235C164.616 105.451 164.689 105.74 164.689 106.028C164.689 106.316 164.544 106.604 164.4 106.82C164.184 107.037 163.896 107.181 163.608 107.181H149.774C149.63 107.109 149.414 107.109 149.269 107.037Z" fill="#110580"/>
<path d="M44.8662 107.109V99.3993C44.8662 99.1111 45.0103 98.823 45.1544 98.6068C45.3705 98.3907 45.6588 98.2466 45.947 98.2466C46.2352 98.2466 46.5234 98.3907 46.7395 98.6068C46.9557 98.823 47.0278 99.1111 47.0278 99.3993V104.875H52.4317C52.7199 104.875 53.008 105.019 53.2242 105.236C53.4404 105.452 53.5845 105.74 53.5845 106.028C53.5845 106.316 53.4404 106.605 53.2242 106.821C53.008 107.037 52.7199 107.181 52.4317 107.181H44.8662V107.109Z" fill="#110580"/>
<path d="M45.5869 87.4386C45.3707 87.3666 45.2266 87.2224 45.0825 87.0062C44.9384 86.7901 44.8664 86.6459 44.9384 86.4298V73.4605C44.9384 73.1722 45.0825 72.8841 45.2266 72.668C45.4428 72.4518 45.731 72.3077 46.0192 72.3077C46.3074 72.3077 46.5956 72.4518 46.8118 72.668C47.0279 72.8841 47.1 73.1722 47.1 73.4605V86.4298C47.1 86.718 46.9559 87.0063 46.8118 87.2224C46.5956 87.4386 46.3074 87.5827 46.0192 87.5827C45.8751 87.5827 45.731 87.5107 45.5869 87.4386ZM45.5869 61.5C45.3707 61.4279 45.2266 61.2837 45.0825 61.0676C44.9384 60.8514 44.8664 60.7073 44.9384 60.4911V47.5218C44.9384 47.2336 45.0825 46.9455 45.2266 46.7293C45.4428 46.5132 45.731 46.3691 46.0192 46.3691C46.3074 46.3691 46.5956 46.5132 46.8118 46.7293C47.0279 46.9455 47.1 47.2336 47.1 47.5218V60.4911C47.1 60.7793 46.9559 61.0676 46.8118 61.2838C46.5956 61.4999 46.3074 61.644 46.0192 61.644C45.8751 61.572 45.731 61.572 45.5869 61.5ZM45.5869 35.5613C45.3707 35.4892 45.2266 35.3451 45.0825 35.1289C44.9384 34.9128 44.8664 34.7686 44.9384 34.5525V21.5831C44.9384 21.2949 45.0825 21.0068 45.2266 20.7907C45.4428 20.5745 45.731 20.4304 46.0192 20.4304C46.3074 20.4304 46.5956 20.5745 46.8118 20.7907C47.0279 21.0068 47.1 21.2949 47.1 21.5831V34.5525C47.1 34.8407 46.9559 35.129 46.8118 35.3451C46.5956 35.5613 46.3074 35.7054 46.0192 35.7054C45.8751 35.6333 45.731 35.6334 45.5869 35.5613Z" fill="#110580"/>
<path d="M45.5867 9.62264C45.3706 9.55058 45.2265 9.40641 45.0824 9.19026C44.9383 8.9741 44.8662 8.82996 44.8662 8.61381V0.904297H52.5037C52.7919 0.904297 53.0801 1.0484 53.2962 1.26456C53.5124 1.48071 53.6565 1.76899 53.6565 2.0572C53.6565 2.3454 53.5124 2.63351 53.2962 2.84966C53.0801 3.06582 52.7919 3.20992 52.5037 3.20992H47.0998V8.68593C47.0998 8.97413 46.9557 9.26241 46.8116 9.47857C46.5954 9.69472 46.3072 9.83883 46.019 9.83883C45.947 9.69472 45.7308 9.62264 45.5867 9.62264Z" fill="#110580"/>
<path d="M66.0491 3.06595C65.833 2.9939 65.6168 2.77777 65.4727 2.56162C65.3286 2.34546 65.3286 2.05726 65.3286 1.8411C65.4007 1.55289 65.5448 1.33681 65.761 1.19271C65.9771 1.0486 66.1933 0.976515 66.4815 0.976515H80.3875C80.6757 0.976515 80.9639 1.12062 81.18 1.33677C81.3962 1.55293 81.5403 1.84103 81.5403 2.12924C81.5403 2.41745 81.3962 2.70572 81.18 2.92188C80.9639 3.13803 80.6757 3.28214 80.3875 3.28214H66.4815C66.3374 3.13803 66.1932 3.06595 66.0491 3.06595ZM93.7891 3.13807C93.645 3.13807 93.5009 3.06605 93.3568 2.994C93.2127 2.92195 93.1406 2.77774 93.0686 2.70569C92.9245 2.48953 92.8524 2.12931 92.9245 1.8411C92.9965 1.55289 93.1406 1.26469 93.4288 1.12058C93.645 0.97648 94.0052 0.904463 94.2935 0.976515H108.199C108.488 0.976515 108.776 1.12062 108.992 1.33677C109.208 1.55293 109.352 1.84103 109.352 2.12924C109.352 2.41745 109.208 2.70572 108.992 2.92188C108.776 3.13803 108.488 3.28214 108.199 3.28214H94.2935C94.0773 3.13803 93.9332 3.13807 93.7891 3.13807ZM121.601 3.13807C121.385 3.06602 121.241 2.92184 121.097 2.70569C120.953 2.48953 120.953 2.34539 120.953 2.12924C120.953 1.84103 121.097 1.55293 121.313 1.33677C121.529 1.12062 121.817 0.976515 122.105 0.976515H136.011C136.3 0.976515 136.588 1.12062 136.804 1.33677C137.02 1.55293 137.092 1.84103 137.092 2.12924C137.092 2.41745 136.948 2.70572 136.804 2.92188C136.588 3.13803 136.3 3.28214 136.011 3.28214H122.105C121.889 3.21009 121.745 3.21012 121.601 3.13807ZM149.341 3.13807C149.125 3.06602 148.981 2.92184 148.837 2.70569C148.693 2.48953 148.693 2.34539 148.693 2.12924C148.693 1.84103 148.837 1.55293 149.053 1.33677C149.269 1.12062 149.557 0.976515 149.845 0.976515H163.751C164.04 0.976515 164.328 1.12062 164.544 1.33677C164.76 1.55293 164.832 1.84103 164.832 2.12924C164.832 2.41745 164.688 2.70572 164.544 2.92188C164.328 3.13803 164.04 3.28214 163.751 3.28214H149.773C149.629 3.21009 149.485 3.13807 149.341 3.13807Z" fill="#110580"/>
<path d="M183.638 9.69458C183.422 9.62253 183.278 9.47853 183.133 9.26238C182.989 9.04622 182.989 8.90208 182.989 8.68593V3.20992H177.585C177.297 3.20992 177.009 3.06582 176.793 2.84966C176.577 2.63351 176.433 2.3454 176.433 2.0572C176.433 1.76899 176.577 1.48071 176.793 1.26456C177.009 1.0484 177.297 0.904297 177.585 0.904297H185.223V8.61381C185.223 8.90201 185.079 9.19029 184.935 9.40645C184.719 9.6226 184.43 9.7667 184.142 9.7667C183.998 9.7667 183.782 9.76663 183.638 9.69458Z" fill="#110580"/>
<path d="M183.638 87.5825C183.422 87.5105 183.278 87.3663 183.134 87.1501C182.99 86.934 182.917 86.79 182.917 86.5739V73.6045C182.917 73.3163 183.062 73.028 183.278 72.8119C183.494 72.5957 183.782 72.4516 184.07 72.4516C184.358 72.4516 184.647 72.5957 184.863 72.8119C185.079 73.028 185.223 73.3163 185.223 73.6045V86.6458C185.223 86.934 185.079 87.2223 184.863 87.4384C184.647 87.6546 184.358 87.7987 184.07 87.7987C183.926 87.6546 183.782 87.6546 183.638 87.5825ZM183.638 61.5717C183.422 61.4997 183.278 61.3557 183.134 61.1395C182.99 60.9234 182.917 60.7792 182.917 60.5631V47.5938C182.917 47.3055 183.062 47.0173 183.278 46.8011C183.494 46.585 183.782 46.4409 184.07 46.4409C184.358 46.4409 184.647 46.585 184.863 46.8011C185.079 47.0173 185.223 47.3055 185.223 47.5938V60.5631C185.223 60.8513 185.079 61.1396 184.863 61.3557C184.647 61.5719 184.358 61.716 184.07 61.716C183.926 61.716 183.782 61.6438 183.638 61.5717ZM183.638 35.6331C183.422 35.561 183.278 35.417 183.134 35.2009C182.99 34.9847 182.917 34.8406 182.917 34.6244V21.6551C182.917 21.3669 183.062 21.0786 183.278 20.8625C183.494 20.6463 183.782 20.5022 184.07 20.5022C184.358 20.5022 184.647 20.6463 184.863 20.8625C185.079 21.0786 185.223 21.3669 185.223 21.6551V34.6244C185.223 34.9126 185.079 35.2009 184.863 35.4171C184.647 35.6332 184.358 35.7773 184.07 35.7773C183.926 35.7053 183.782 35.7051 183.638 35.6331Z" fill="#110580"/>
<path d="M8.98375 74.325L9.84838 74.1808C10.8571 73.9646 11.9379 74.1088 12.8746 74.6131C13.8112 75.1175 14.5318 75.91 14.892 76.9188L21.0164 94.0671C21.0885 94.2833 21.1605 94.4994 21.1605 94.7876C19.071 96.5169 16.6213 97.6698 13.9553 98.1021C11.5776 98.5344 9.12786 98.3182 6.8222 97.6697C6.8222 97.4536 6.75016 97.2375 6.75016 97.0213L5.38116 78.8641C5.30911 77.7833 5.6694 76.7746 6.31787 75.982C7.03839 75.1174 7.97503 74.5412 8.98375 74.325Z" fill="#D7D7E6"/>
<path d="M8.69607 48.3866C8.55196 48.1705 8.33582 47.9543 8.11966 47.8102C7.90351 47.6661 7.61527 47.594 7.32707 47.594C7.03886 47.594 6.82272 47.6661 6.53451 47.8102C6.31836 47.9543 6.10221 48.1705 5.95811 48.3866C5.02143 50.26 3.79652 52.7097 2.85984 54.2948C1.20265 57.1049 0.48217 63.8777 1.27474 66.9039C2.28347 70.0742 3.79652 73.1003 5.74192 75.8383C5.88602 76.0544 6.17423 76.2705 6.46243 76.3426C7.90347 76.7749 9.34451 76.775 10.7855 76.4147C13.5956 75.7663 13.8838 73.8929 13.8838 73.8929C13.8838 73.8929 15.4689 67.6245 15.2528 63.8778C14.9646 60.1311 12.9471 55.1595 12.0825 54.2948C10.8576 52.4215 9.70479 50.4761 8.69607 48.3866Z" fill="#C7645D"/>
<path d="M31.6082 162.805L21.3769 95.9406C21.3048 95.5804 21.2328 95.2201 21.1607 94.8599C19.1433 96.5171 16.6935 97.6699 14.0276 98.1022C11.7219 98.4625 9.27218 98.3183 7.03857 97.6698C7.03857 98.1021 7.11062 98.5344 7.25472 98.8947L23.1061 164.606C23.4664 165.615 24.1869 166.407 25.1236 166.912C26.0602 167.416 27.069 167.56 28.1497 167.344C29.1585 167.128 30.0951 166.551 30.7436 165.759C31.248 164.894 31.6082 163.885 31.6082 162.805Z" fill="#2B31BA"/>
<path d="M28.5103 169.434L49.2612 170.947L58.4838 44.0635L37.7329 42.5503L28.5103 169.434Z" fill="#DADAED"/>
<path d="M50.1256 60.5632L49.9814 62.0764L57.1146 62.5807L57.2587 61.0676L50.1256 60.5632Z" fill="#989BD7"/>
<path d="M49.117 74.4692L49.0449 75.9822L56.178 76.4867L56.2501 74.9736L49.117 74.4692Z" fill="#989BD7"/>
<path d="M48.0362 88.9517L47.8921 90.4648L55.0252 90.9691L55.1693 89.4562L48.0362 88.9517Z" fill="#989BD7"/>
<path d="M47.0274 103.146L46.8833 104.659L54.0164 105.163L54.1605 103.65L47.0274 103.146Z" fill="#989BD7"/>
<path d="M46.0186 117.34L45.8745 118.853L53.0077 119.358L53.1518 117.845L46.0186 117.34Z" fill="#989BD7"/>
<path d="M44.9381 131.534L44.7939 133.047L51.9271 133.552L52.0712 132.039L44.9381 131.534Z" fill="#989BD7"/>
<path d="M43.9292 145.729L43.7852 147.242L50.9183 147.746L51.0624 146.233L43.9292 145.729Z" fill="#989BD7"/>
<path d="M41.4072 186.438L54.6648 188.743L72.1013 88.5195L58.8438 86.2139L41.4072 186.438Z" fill="#FFADB2"/>
<path d="M58.9165 86.2137L72.174 88.5193L70.0845 69.3534L67.3465 68.8491L58.9165 86.2137Z" fill="#EBDBCD"/>
<path d="M69.2196 78.216L67.2742 76.919L65.6891 77.1352L63.7437 76.1266L67.2022 68.9214L69.9401 69.4257L70.8048 77.1352L69.2196 78.216Z" fill="#FF7A82"/>
<path d="M68.1386 122.023H10.1368C9.77659 122.023 9.41631 122.096 9.1281 122.24C8.76784 122.384 8.47963 122.6 8.26347 122.888C8.04732 123.176 7.8312 123.464 7.75914 123.825C7.68709 124.185 7.61501 124.545 7.68707 124.906L15.3966 187.23C15.5407 188.599 16.2612 189.896 17.2699 190.833C18.3507 191.77 19.6477 192.274 21.0887 192.274H57.4028C58.7718 192.274 60.1408 191.77 61.2216 190.833C62.3023 189.896 62.9508 188.599 63.0949 187.23L70.5883 124.906C70.6603 124.545 70.5883 124.185 70.5163 123.897C70.4442 123.536 70.228 123.248 70.0119 122.96C69.7957 122.672 69.5075 122.456 69.1473 122.312C68.8591 122.095 68.4988 122.023 68.1386 122.023Z" fill="#FF7A82"/>
<path d="M350.726 19.5659H116.774C108.488 19.5659 101.715 26.3388 101.715 34.6968V183.412C101.715 191.77 108.488 198.543 116.774 198.543H350.726C359.012 198.543 365.785 191.77 365.785 183.412V34.6968C365.785 26.3388 359.084 19.5659 350.726 19.5659Z" fill="#B3B6DE"/>
<path d="M351.806 29.1487H115.692C113.459 29.1487 111.729 30.95 111.729 33.1837V181.754C111.729 183.988 113.531 185.789 115.692 185.789H351.806C354.04 185.789 355.769 183.988 355.769 181.754V33.1837C355.769 30.95 353.968 29.1487 351.806 29.1487Z" fill="#E8EAF7"/>
<path d="M394.606 270.45H72.8947C71.3095 270.45 69.7965 270.018 68.4275 269.297C67.0585 268.505 65.9057 267.424 65.1131 266.055C64.3205 264.686 63.8882 263.173 63.8162 261.588C63.7441 260.003 64.1044 258.49 64.8249 257.049L97.4644 206.468C98.6893 204.091 100.635 202.073 102.868 200.704C105.174 199.335 107.768 198.615 110.434 198.615H356.779C359.445 198.615 362.111 199.335 364.416 200.704C366.722 202.073 368.595 204.091 369.82 206.468L402.46 257.049C403.18 258.418 403.54 260.003 403.468 261.588C403.396 263.173 402.964 264.686 402.172 266.055C401.379 267.424 400.226 268.505 398.857 269.297C397.704 270.018 396.191 270.45 394.606 270.45Z" fill="#C5C6E3"/>
<path d="M403.612 261.083C403.684 262.308 403.468 263.533 403.036 264.686C402.603 265.839 401.955 266.848 401.09 267.712C400.226 268.577 399.217 269.297 398.136 269.73C397.055 270.234 395.83 270.45 394.606 270.45H72.8942C71.6693 270.45 70.5165 270.234 69.3636 269.73C68.2829 269.225 67.2021 268.577 66.4095 267.712C65.5449 266.848 64.8964 265.767 64.4641 264.686C64.0318 263.533 63.8156 262.308 63.8877 261.083V269.153C63.8877 271.531 64.8964 273.837 66.5536 275.494C68.2108 277.151 70.5164 278.088 72.8942 278.088H394.606C396.983 278.088 399.217 277.151 400.946 275.422C402.603 273.765 403.612 271.459 403.612 269.081V261.083Z" fill="#999BC9"/>
<path d="M296.398 263.822H171.172C170.668 263.822 170.164 263.677 169.731 263.461C169.299 263.245 168.939 262.885 168.651 262.452C168.362 262.02 168.218 261.516 168.218 261.011C168.218 260.507 168.29 260.003 168.579 259.57L173.55 243.359C173.982 242.566 174.559 241.918 175.279 241.485C176 241.053 176.864 240.837 177.729 240.837H289.842C290.706 240.837 291.571 241.053 292.291 241.485C293.012 241.918 293.66 242.566 294.021 243.359L298.92 259.57C299.136 260.003 299.281 260.507 299.281 261.011C299.281 261.516 299.136 262.02 298.848 262.452C298.56 262.885 298.2 263.245 297.767 263.461C297.335 263.749 296.903 263.822 296.398 263.822Z" fill="#D8DBF2"/>
<path d="M342.296 235.289H125.204C124.627 235.289 124.051 235.145 123.547 234.857C123.042 234.568 122.61 234.136 122.322 233.632C122.034 233.127 121.817 232.551 121.817 231.975C121.817 231.398 121.961 230.822 122.25 230.245L131.4 211.08C131.905 210.143 132.553 209.422 133.418 208.918C134.282 208.414 135.291 208.125 136.3 208.125H331.272C332.281 208.125 333.289 208.414 334.154 208.918C335.019 209.422 335.739 210.215 336.244 211.08L345.394 230.245C345.682 230.75 345.826 231.398 345.826 231.975C345.826 232.551 345.682 233.2 345.322 233.704C345.034 234.208 344.602 234.641 344.025 234.929C343.449 235.145 342.872 235.289 342.296 235.289Z" fill="#A7A9D6"/>
<path d="M111.729 43.0544H355.841V181.754C355.841 182.259 355.769 182.835 355.553 183.267C355.337 183.772 355.048 184.204 354.688 184.564C354.328 184.925 353.896 185.213 353.391 185.429C352.887 185.645 352.383 185.717 351.878 185.717H115.692C114.612 185.717 113.603 185.285 112.882 184.564C112.162 183.844 111.729 182.763 111.729 181.754V43.0544Z" fill="white"/>
<path d="M187.312 55.8079H161.95C161.301 55.8079 160.797 56.3123 160.797 56.9608V82.467C160.797 83.1155 161.301 83.6199 161.95 83.6199H187.312C187.96 83.6199 188.465 83.1155 188.465 82.467V56.9608C188.465 56.3843 187.96 55.8079 187.312 55.8079Z" fill="#E8E8F7"/>
<path d="M304.18 78.5762H212.53C211.161 78.5762 210.008 79.729 210.008 81.098C210.008 82.539 211.161 83.6198 212.53 83.6198H304.18C305.549 83.6198 306.702 82.467 306.702 81.098C306.702 79.729 305.549 78.5762 304.18 78.5762Z" fill="#E8E8F7"/>
<path d="M278.458 67.1919H212.53C211.161 67.1919 210.008 68.3447 210.008 69.7137C210.008 71.1547 211.161 72.2355 212.53 72.2355H278.458C279.827 72.2355 280.979 71.0827 280.979 69.7137C280.979 68.3447 279.827 67.1919 278.458 67.1919Z" fill="#E8E8F7"/>
<path d="M291.283 55.8079H212.53C211.161 55.8079 210.008 56.9607 210.008 58.3297C210.008 59.7707 211.161 60.8515 212.53 60.8515H291.355C292.724 60.8515 293.877 59.6987 293.877 58.3297C293.877 56.9607 292.724 55.8079 291.283 55.8079Z" fill="#E8E8F7"/>
<path d="M187.312 101.128H161.95C161.301 101.128 160.797 101.633 160.797 102.281V127.788C160.797 128.436 161.301 128.94 161.95 128.94H187.312C187.96 128.94 188.465 128.436 188.465 127.788V102.281C188.465 101.633 187.96 101.128 187.312 101.128Z" fill="#E8E8F7"/>
<path d="M304.18 123.897H212.53C211.161 123.897 210.008 125.05 210.008 126.419C210.008 127.86 211.161 128.941 212.53 128.941H304.18C305.549 128.941 306.702 127.788 306.702 126.419C306.702 125.05 305.549 123.897 304.18 123.897Z" fill="#E8E8F7"/>
<path d="M278.458 112.513H212.53C211.161 112.513 210.008 113.666 210.008 115.035C210.008 116.476 211.161 117.556 212.53 117.556H278.458C279.827 117.556 280.979 116.403 280.979 115.035C280.979 113.666 279.827 112.513 278.458 112.513Z" fill="#E8E8F7"/>
<path d="M291.283 101.128H212.53C211.161 101.128 210.008 102.281 210.008 103.65C210.008 105.091 211.161 106.172 212.53 106.172H291.355C292.724 106.172 293.877 105.019 293.877 103.65C293.877 102.281 292.724 101.128 291.283 101.128Z" fill="#E8E8F7"/>
<path d="M187.312 146.449H161.95C161.301 146.449 160.797 146.954 160.797 147.602V173.108C160.797 173.757 161.301 174.261 161.95 174.261H187.312C187.96 174.261 188.465 173.757 188.465 173.108V147.602C188.465 146.954 187.96 146.449 187.312 146.449Z" fill="#E8E8F7"/>
<path d="M304.18 169.217H212.53C211.161 169.217 210.008 170.37 210.008 171.739C210.008 173.18 211.161 174.261 212.53 174.261H304.18C305.549 174.261 306.702 173.108 306.702 171.739C306.702 170.298 305.549 169.217 304.18 169.217Z" fill="#E8E8F7"/>
<path d="M278.458 157.833H212.53C211.161 157.833 210.008 158.986 210.008 160.355C210.008 161.796 211.161 162.877 212.53 162.877H278.458C279.827 162.877 280.979 161.724 280.979 160.355C280.979 158.986 279.827 157.833 278.458 157.833Z" fill="#E8E8F7"/>
<path d="M291.283 146.449H212.53C211.161 146.449 210.008 147.602 210.008 148.971C210.008 150.412 211.161 151.493 212.53 151.493H291.355C292.724 151.493 293.877 150.34 293.877 148.971C293.877 147.602 292.724 146.449 291.283 146.449Z" fill="#E8E8F7"/>
<path d="M120.665 38.6596C122.106 38.6596 123.259 37.5067 123.259 36.0656C123.259 34.6246 122.106 33.4717 120.665 33.4717C119.224 33.4717 118.071 34.6246 118.071 36.0656C118.143 37.5067 119.296 38.6596 120.665 38.6596Z" fill="#FF7A82"/>
<path d="M130.319 38.6596C131.76 38.6596 132.913 37.5067 132.913 36.0656C132.913 34.6246 131.76 33.4717 130.319 33.4717C128.878 33.4717 127.725 34.6246 127.725 36.0656C127.725 37.5067 128.878 38.6596 130.319 38.6596Z" fill="#FDB62F"/>
<path d="M139.902 38.6596C141.343 38.6596 142.496 37.5067 142.496 36.0656C142.496 34.6246 141.343 33.4717 139.902 33.4717C138.461 33.4717 137.308 34.6246 137.308 36.0656C137.308 37.5067 138.461 38.6596 139.902 38.6596Z" fill="#64A7B0"/>
<path d="M464.063 56.4563C464.207 56.4563 464.279 56.4563 464.423 56.4563C464.567 56.4563 464.639 56.5283 464.711 56.6004C464.783 56.6724 464.856 56.7444 464.928 56.8885C465 57.0326 465 57.1047 465 57.2488C465 57.3929 465 57.4649 464.928 57.609C464.423 59.3383 463.703 60.9234 462.838 62.5086C462.694 62.7247 462.55 62.8689 462.334 62.941C462.118 63.013 461.901 63.0129 461.685 62.8688C461.469 62.7247 461.325 62.5807 461.253 62.3645C461.181 62.1484 461.253 61.9323 461.325 61.7161C462.118 60.2751 462.766 58.762 463.198 57.1768C463.27 57.0327 463.342 56.8885 463.487 56.7444C463.703 56.5283 463.919 56.4563 464.063 56.4563Z" fill="#110580"/>
<path d="M321.113 20.4304C321.185 20.4304 321.329 20.4304 321.401 20.4304L322.626 20.7186C325.508 21.4391 328.462 22.1596 331.632 23.0242C331.776 23.0242 331.848 23.0964 331.92 23.1684C331.992 23.2405 332.064 23.3125 332.137 23.4566C332.209 23.5286 332.209 23.6727 332.209 23.8168C332.209 23.9609 332.209 24.033 332.137 24.1771C332.137 24.3212 332.065 24.3932 331.992 24.4652C331.92 24.5373 331.848 24.6094 331.704 24.6814C331.56 24.7535 331.488 24.7535 331.344 24.7535C331.2 24.7535 331.128 24.7535 330.984 24.6814C327.886 23.8168 324.931 23.0963 322.049 22.3758L320.824 22.0876C320.608 22.0156 320.392 21.8715 320.32 21.7274C320.176 21.5112 320.176 21.295 320.248 21.0788C320.32 20.8627 320.392 20.7186 320.536 20.5745C320.752 20.5024 320.896 20.4304 321.113 20.4304ZM341.359 26.2665C341.503 26.2665 341.647 26.2665 341.792 26.2665C345.106 27.4914 348.348 28.9325 351.519 30.6617C351.591 30.7338 351.735 30.8059 351.807 30.8779C351.879 30.95 351.951 31.094 351.951 31.1661C351.951 31.3102 352.023 31.3822 351.951 31.5263C351.951 31.6704 351.879 31.7425 351.879 31.8866C351.807 31.9586 351.735 32.1028 351.663 32.1749C351.591 32.247 351.446 32.319 351.374 32.319C351.23 32.319 351.158 32.391 351.014 32.319C350.87 32.319 350.798 32.2468 350.726 32.2468C347.628 30.5897 344.457 29.1487 341.215 27.9959C340.999 27.9238 340.855 27.7797 340.783 27.6356C340.711 27.4915 340.639 27.2753 340.639 27.0592C340.639 26.843 340.783 26.6989 340.855 26.5548C340.999 26.3387 341.143 26.2665 341.359 26.2665ZM359.804 36.3538C359.949 36.3538 360.021 36.3538 360.165 36.3538C360.309 36.3538 360.381 36.426 360.453 36.498C363.263 38.7316 365.857 41.2534 368.09 43.9913C368.162 44.0634 368.234 44.2074 368.234 44.2795C368.234 44.4236 368.307 44.4956 368.234 44.6397C368.234 44.7838 368.162 44.8559 368.162 45C368.09 45.072 368.018 45.2162 367.946 45.2883C367.802 45.4324 367.514 45.5045 367.298 45.5045C367.082 45.5045 366.866 45.3603 366.721 45.2162C364.488 42.5503 362.038 40.1006 359.3 37.939C359.228 37.867 359.156 37.7948 359.084 37.6507C359.012 37.5787 359.012 37.4346 359.012 37.2905C359.012 37.1464 359.012 37.0743 359.012 36.9302C359.012 36.7861 359.084 36.7141 359.156 36.6421C359.372 36.498 359.588 36.4258 359.804 36.3538ZM373.062 52.5654C373.206 52.5654 373.422 52.5655 373.566 52.6375C373.71 52.7096 373.855 52.8537 373.927 52.9978C375.584 56.1681 376.881 59.5545 377.817 63.0129C377.889 63.157 377.889 63.2291 377.889 63.3732C377.889 63.5173 377.817 63.5894 377.817 63.7335C377.745 63.8776 377.673 63.9497 377.601 64.0218C377.529 64.0938 377.385 64.1658 377.241 64.1658C377.097 64.1658 377.025 64.2379 376.881 64.1658C376.737 64.1658 376.665 64.0938 376.52 64.0218C376.448 63.9497 376.304 63.8776 376.232 63.7335C376.16 63.6614 376.088 63.5173 376.088 63.3732C375.224 59.9868 373.927 56.7444 372.341 53.6462C372.269 53.5742 372.269 53.43 372.269 53.2859C372.269 53.1418 372.269 53.0698 372.341 52.9257C372.341 52.7816 372.414 52.7096 372.486 52.6375C372.558 52.5655 372.63 52.4934 372.774 52.4214C372.846 52.6375 372.99 52.5654 373.062 52.5654ZM368.739 64.382C370.684 64.1659 372.63 64.0217 374.575 64.0937C374.791 64.0937 375.007 64.1659 375.152 64.382C375.296 64.5261 375.368 64.7422 375.368 65.0304C375.368 65.1745 375.368 65.2466 375.296 65.3907C375.224 65.4627 375.151 65.6069 375.079 65.679C375.007 65.751 374.935 65.823 374.791 65.895C374.719 65.9671 374.575 65.9671 374.431 65.9671C372.558 65.9671 370.684 66.0391 368.811 66.2553C367.298 66.4714 365.713 66.7598 364.2 67.12C363.983 67.1921 363.767 67.12 363.551 67.0479C363.335 66.9038 363.191 66.7597 363.191 66.5436C363.119 66.3995 363.119 66.3274 363.119 66.1833C363.119 66.0392 363.191 65.9672 363.263 65.8231C363.335 65.751 363.407 65.6068 363.479 65.5348C363.551 65.4627 363.695 65.3907 363.767 65.3907C365.497 64.8863 367.082 64.5261 368.739 64.382ZM384.879 65.5348C384.951 65.5348 385.095 65.5348 385.167 65.5348C388.625 66.3273 392.012 67.3361 395.398 68.4889C395.614 68.561 395.758 68.7052 395.83 68.9213C395.902 69.1375 395.902 69.3536 395.83 69.5697C395.758 69.7859 395.614 69.9299 395.398 70.0741C395.182 70.2182 394.966 70.2182 394.75 70.1462C391.435 68.9933 388.121 68.0567 384.734 67.2641C384.518 67.192 384.374 67.12 384.23 66.9038C384.086 66.7597 384.014 66.5435 384.086 66.3274C384.086 66.1112 384.158 65.895 384.302 65.7509C384.518 65.6068 384.662 65.5348 384.879 65.5348ZM354.473 69.6418C354.617 69.6418 354.761 69.6417 354.905 69.7138C355.049 69.7858 355.193 69.858 355.265 70.0021C355.337 70.0742 355.409 70.2182 355.409 70.2902C355.409 70.4343 355.409 70.5064 355.409 70.6505C355.409 70.7946 355.337 70.8666 355.265 70.9386C355.193 71.0107 355.121 71.1548 355.049 71.1548C353.608 72.2356 352.239 73.4606 351.086 74.8295C350.077 76.0544 349.213 77.3514 348.564 78.7924C348.42 79.0085 348.276 79.1527 348.06 79.1527C347.844 79.2247 347.628 79.2246 347.412 79.0805C347.195 79.0085 347.051 78.8645 346.979 78.6483C346.907 78.4322 346.907 78.2159 346.979 77.9998C347.7 76.4146 348.636 74.9016 349.717 73.5326C350.942 72.0195 352.383 70.7226 353.968 69.5697C354.184 69.6418 354.329 69.6418 354.473 69.6418ZM378.25 73.0282H378.394C378.538 73.0282 378.61 73.0281 378.754 73.1002C378.826 73.1722 378.97 73.1723 379.042 73.3164C379.114 73.3884 379.186 73.4606 379.258 73.6047C379.331 73.6767 379.33 73.8209 379.33 73.965C379.33 77.6396 378.754 81.2421 377.601 84.7006C377.529 84.9168 377.385 85.0608 377.169 85.2049C376.953 85.277 376.737 85.3491 376.52 85.2771C376.304 85.205 376.16 85.0608 376.016 84.8447C375.944 84.6285 375.872 84.4124 376.016 84.1963C377.169 80.9539 377.673 77.4954 377.673 74.0369C377.673 73.8207 377.745 73.6047 377.889 73.3885C377.817 73.1003 378.034 72.9562 378.25 73.0282ZM404.981 71.8753C405.125 71.8753 405.197 71.8753 405.341 71.8753C406.494 72.3077 407.719 72.6679 408.872 72.9561C411.177 73.6766 413.267 74.3252 415.356 74.8295C415.5 74.8295 415.573 74.9016 415.645 74.9736C415.717 75.0457 415.789 75.1177 415.861 75.1898C415.933 75.2619 415.933 75.4059 416.005 75.4779C416.005 75.622 416.005 75.6941 416.005 75.8382C416.005 75.9823 415.933 76.0545 415.861 76.1265C415.789 76.1986 415.717 76.2705 415.645 76.3425C415.573 76.4146 415.428 76.4147 415.356 76.4868C415.212 76.4868 415.14 76.4868 414.996 76.4868C412.907 75.9824 410.673 75.4059 408.367 74.6134C407.215 74.2531 405.99 73.8928 404.837 73.5326C404.621 73.4605 404.477 73.3164 404.405 73.1723C404.26 73.0282 404.26 72.812 404.26 72.5959C404.26 72.3797 404.405 72.2356 404.477 72.0915C404.621 71.9474 404.765 71.8753 404.981 71.8753ZM455.273 69.2095C455.417 69.2095 455.561 69.2095 455.705 69.2816C455.85 69.3536 455.994 69.4256 456.066 69.5697C456.138 69.6418 456.21 69.7858 456.21 69.8579C456.21 70.002 456.282 70.074 456.21 70.2181C456.21 70.3622 456.138 70.4343 456.138 70.5784C456.066 70.6504 455.994 70.7946 455.922 70.8667C453.112 73.1724 449.941 74.9736 446.627 76.2706C446.411 76.3426 446.195 76.3426 445.978 76.2706C445.762 76.1985 445.618 75.9824 445.546 75.7663C445.474 75.5501 445.474 75.3338 445.546 75.1177C445.618 74.9015 445.834 74.7575 446.05 74.6855C449.221 73.4606 452.247 71.7313 454.913 69.5697C454.985 69.2815 455.129 69.2095 455.273 69.2095ZM425.372 76.847H425.588C429.046 77.2073 432.505 77.2792 435.963 76.919C436.179 76.919 436.396 76.9911 436.612 77.1352C436.756 77.2793 436.9 77.4955 436.9 77.7116C436.9 77.9278 436.828 78.1439 436.684 78.36C436.54 78.5762 436.324 78.6483 436.107 78.6483C432.577 79.0086 428.974 78.9365 425.444 78.5762C425.227 78.5762 425.011 78.4322 424.867 78.2881C424.723 78.144 424.651 77.8556 424.651 77.6395C424.651 77.4233 424.795 77.2792 424.867 77.063C425.083 76.9189 425.228 76.847 425.372 76.847ZM346.187 87.9429C346.403 87.9429 346.619 87.9429 346.835 88.087C346.979 88.2311 347.123 88.4473 347.195 88.6635C347.556 91.4014 348.997 93.8512 351.086 95.6524C351.519 96.0127 351.951 96.3009 352.455 96.5892C352.671 96.7333 352.815 96.8773 352.888 97.0935C352.96 97.3096 352.888 97.5259 352.815 97.7421C352.671 97.9582 352.527 98.1022 352.311 98.1743C352.095 98.2463 351.879 98.1744 351.663 98.1023C351.086 97.7421 350.582 97.3818 350.077 97.0215C347.7 95.0041 346.115 92.1219 345.682 88.9516C345.682 88.7354 345.682 88.5194 345.826 88.3032C345.754 88.087 345.97 88.015 346.187 87.9429ZM371.045 92.266C371.189 92.266 371.333 92.266 371.405 92.266C371.477 92.266 371.621 92.4102 371.765 92.4822C371.837 92.5543 371.909 92.6263 371.981 92.7704C372.053 92.8424 372.053 92.9865 372.053 93.1306C372.053 93.2747 372.053 93.3468 371.981 93.4909C371.909 93.5629 371.837 93.7072 371.765 93.7792C369.171 96.3731 365.929 98.2463 362.326 99.255C362.182 99.255 362.11 99.255 361.966 99.255C361.822 99.255 361.75 99.183 361.678 99.111C361.606 99.0389 361.462 98.9668 361.462 98.8948C361.39 98.8227 361.318 98.6787 361.318 98.6066C361.318 98.4625 361.318 98.3905 361.318 98.2464C361.318 98.1023 361.39 98.0301 361.462 97.9581C361.534 97.886 361.606 97.742 361.678 97.6699C361.75 97.5979 361.894 97.5259 361.966 97.5259C365.208 96.5892 368.235 94.8599 370.612 92.4822C370.684 92.4102 370.9 92.3381 371.045 92.266Z" fill="#110580"/>
<path d="M306.27 15.2427C306.486 15.2427 306.702 15.2426 306.846 15.3867C308.215 16.3234 309.656 17.0439 311.241 17.5483C311.458 17.6204 311.602 17.7643 311.746 17.9805C311.818 18.1967 311.818 18.4129 311.746 18.6291C311.674 18.8452 311.53 18.9893 311.314 19.1334C311.097 19.2055 310.881 19.2775 310.665 19.1334C309.008 18.557 307.351 17.7644 305.91 16.7557C305.766 16.6836 305.693 16.5396 305.621 16.3235C305.549 16.1793 305.549 15.9631 305.621 15.8189C305.693 15.6748 305.766 15.5308 305.91 15.3867C305.982 15.3867 306.126 15.3147 306.27 15.2427Z" fill="#110580"/>
<path d="M318.519 108.838C322.049 112.08 323.13 116.259 322.337 119.285C321.473 122.6 326.733 121.879 327.597 118.853C328.318 116.331 328.246 113.738 327.453 111.216C326.588 108.766 325.003 106.676 322.842 105.163C320.392 103.506 317.582 102.425 314.628 101.993C311.674 101.561 308.72 101.777 305.838 102.641C305.549 102.713 305.261 102.786 305.045 103.002C304.829 103.146 304.613 103.434 304.469 103.65C304.324 103.938 304.252 104.227 304.252 104.515C304.252 104.803 304.324 105.091 304.469 105.379C305.766 106.893 307.351 106.388 311.314 106.388C313.979 106.388 316.501 107.253 318.519 108.838Z" fill="white"/>
</svg>
