<svg width="60" height="60" viewBox="0 0 59 59" fill="none" xmlns="http://www.w3.org/2000/svg">
    <g clip-path="url(#clip0)">
        <path d="M11.8747 23.4491C13.4357 23.4491 14.7011 22.1796 14.7011 20.6136C14.7011 19.0477 13.4357 17.7782 11.8747 17.7782C10.3137 17.7782 9.04834 19.0477 9.04834 20.6136C9.04834 22.1796 10.3137 23.4491 11.8747 23.4491Z" fill="#306CDF"/>
        <path d="M0.188477 20.6136C0.188477 19.0466 1.45577 17.7782 3.01484 17.7782C4.57391 17.7782 5.84121 19.0496 5.84121 20.6136C5.84121 22.1807 4.57391 23.4491 3.01484 23.4491C1.45577 23.4491 0.188477 22.1777 0.188477 20.6136Z" fill="#306CDF"/>
        <path d="M56.1735 41.2245C57.7345 41.2245 58.9999 39.9551 58.9999 38.3891C58.9999 36.8231 57.7345 35.5537 56.1735 35.5537C54.6126 35.5537 53.3472 36.8231 53.3472 38.3891C53.3472 39.9551 54.6126 41.2245 56.1735 41.2245Z" fill="#F66E67"/>
        <path d="M47.5026 41.2245C49.0636 41.2245 50.329 39.9551 50.329 38.3891C50.329 36.8231 49.0636 35.5537 47.5026 35.5537C45.9417 35.5537 44.6763 36.8231 44.6763 38.3891C44.6763 39.9551 45.9417 41.2245 47.5026 41.2245Z" fill="#F66E67"/>
        <path d="M20.7365 50.1123C22.2975 50.1123 23.5629 48.8428 23.5629 47.2768C23.5629 45.7109 22.2975 44.4414 20.7365 44.4414C19.1756 44.4414 17.9102 45.7109 17.9102 47.2768C17.9102 48.8428 19.1756 50.1123 20.7365 50.1123Z" fill="#7064D0"/>
        <path d="M20.7365 59C22.2975 59 23.5629 57.7305 23.5629 56.1646C23.5629 54.5986 22.2975 53.3292 20.7365 53.3292C19.1756 53.3292 17.9102 54.5986 17.9102 56.1646C17.9102 57.7305 19.1756 59 20.7365 59Z" fill="#7064D0"/>
        <path d="M38.4553 5.6708C40.0162 5.6708 41.2816 4.40133 41.2816 2.83537C41.2816 1.2694 40.0162 -6.10352e-05 38.4553 -6.10352e-05C36.8943 -6.10352e-05 35.6289 1.2694 35.6289 2.83537C35.6289 4.40133 36.8943 5.6708 38.4553 5.6708Z" fill="#FFAE17"/>
        <path d="M38.4553 14.5585C40.0162 14.5585 41.2816 13.2891 41.2816 11.7231C41.2816 10.1571 40.0162 8.88766 38.4553 8.88766C36.8943 8.88766 35.6289 10.1571 35.6289 11.7231C35.6289 13.2891 36.8943 14.5585 38.4553 14.5585Z" fill="#FFAE17"/>
        <path d="M20.9221 5.86009C22.483 5.86009 23.7484 4.59063 23.7484 3.02466C23.7484 1.4587 22.483 0.189232 20.9221 0.189232C19.3611 0.189232 18.0957 1.4587 18.0957 3.02466C18.0957 4.59063 19.3611 5.86009 20.9221 5.86009Z" fill="#306CDF"/>
        <path d="M38.6437 59C40.2047 59 41.4701 57.7305 41.4701 56.1646C41.4701 54.5986 40.2047 53.3292 38.6437 53.3292C37.0828 53.3292 35.8174 54.5986 35.8174 56.1646C35.8174 57.7305 37.0828 59 38.6437 59Z" fill="#F66E67"/>
        <path d="M55.9851 23.4491C57.546 23.4491 58.8114 22.1796 58.8114 20.6136C58.8114 19.0477 57.546 17.7782 55.9851 17.7782C54.4241 17.7782 53.1587 19.0477 53.1587 20.6136C53.1587 22.1796 54.4241 23.4491 55.9851 23.4491Z" fill="#FFAE17"/>
        <path d="M0.188477 38.3891C0.188477 36.8221 1.45577 35.5537 3.01484 35.5537C4.57391 35.5537 5.84121 36.825 5.84121 38.3891C5.84121 39.9561 4.57391 41.2245 3.01484 41.2245C1.45577 41.2245 0.188477 39.9561 0.188477 38.3891Z" fill="#7064D0"/>
        <path d="M29.6901 14.5615C28.1811 14.5615 26.958 13.3345 26.958 11.8207V2.93005C26.958 1.41624 28.1811 0.189232 29.6901 0.189232C31.199 0.189232 32.4221 1.41624 32.4221 2.93005V11.8177C32.4221 13.3345 31.199 14.5615 29.6901 14.5615Z" fill="#48C795"/>
        <path d="M47.4083 23.26C45.8994 23.26 44.6763 22.033 44.6763 20.5192V8.98233C44.6763 7.46853 45.8994 6.24152 47.4083 6.24152C48.9173 6.24152 50.1404 7.46853 50.1404 8.98233V20.5192C50.1404 22.033 48.9173 23.26 47.4083 23.26Z" fill="#FFAE17"/>
        <path d="M11.9689 52.3828C10.4599 52.3828 9.23682 51.1558 9.23682 49.642V38.4836C9.23682 36.9698 10.4599 35.7428 11.9689 35.7428C13.4778 35.7428 14.7009 36.9698 14.7009 38.4836V49.642C14.7039 51.1558 13.4808 52.3828 11.9689 52.3828Z" fill="#7064D0"/>
        <path d="M23.5627 11.8176C23.5627 13.3314 22.3396 14.5584 20.8307 14.5584H9.33069C7.82172 14.5584 6.59863 13.3314 6.59863 11.8176C6.59863 10.3038 7.82172 9.07678 9.33069 9.07678H20.8307C22.3396 9.07678 23.5627 10.3038 23.5627 11.8176Z" fill="#306CDF"/>
        <path d="M52.5927 47.3714C52.5927 48.8852 51.3696 50.1122 49.8607 50.1122H38.7379C37.2289 50.1122 36.0059 48.8852 36.0059 47.3714C36.0059 45.8576 37.2289 44.6306 38.7379 44.6306H49.8607C51.3667 44.6276 52.5927 45.8576 52.5927 47.3714Z" fill="#F66E67"/>
        <path d="M29.6901 59C28.1811 59 26.958 57.773 26.958 56.2591V47.1822C26.958 45.6684 28.1811 44.4414 29.6901 44.4414C31.199 44.4414 32.4221 45.6684 32.4221 47.1822V56.2591C32.4221 57.773 31.199 59 29.6901 59Z" fill="#48C795"/>
        <path d="M0 29.7853C0 28.2715 1.22309 27.0444 2.73205 27.0444H12.1572C13.6662 27.0444 14.8893 28.2715 14.8893 29.7853C14.8893 31.2991 13.6662 32.5261 12.1572 32.5261H2.73205C1.22309 32.5261 0 31.2991 0 29.7853Z" fill="#48C795"/>
        <path d="M59.0003 29.5961C59.0003 31.1099 57.7772 32.3369 56.2682 32.3369H47.2203C45.7114 32.3369 44.4883 31.1099 44.4883 29.5961C44.4883 28.0823 45.7114 26.8553 47.2203 26.8553H56.2682C57.7772 26.8524 59.0003 28.0794 59.0003 29.5961Z" fill="#48C795"/>
    </g>
    <defs>
        <clipPath id="clip0">
            <rect y="-6.10352e-05" width="59" height="59" fill="white"/>
        </clipPath>
    </defs>
</svg>
