<svg width="513" height="257" viewBox="0 0 513 257" fill="none" xmlns="http://www.w3.org/2000/svg">
<path d="M407.436 0H132.12C129.092 0 126.701 2.39062 126.701 5.4187V182.083C126.701 185.111 129.092 187.502 132.12 187.502H407.436C410.464 187.502 412.854 185.111 412.854 182.083V5.4187C412.854 2.47031 410.464 0 407.436 0Z" fill="#E8E8F7"/>
<path d="M407.436 0H132.12C130.686 0 129.331 0.557803 128.295 1.59372C127.259 2.62964 126.701 3.98435 126.701 5.4187V20.7184H412.854V5.4187C412.854 3.98435 412.297 2.62964 411.261 1.59372C410.225 0.557803 408.87 0 407.436 0Z" fill="#D6D7F0"/>
<path d="M142.559 14.1044C144.631 14.1044 146.304 12.4308 146.304 10.359C146.304 8.28714 144.631 6.61377 142.559 6.61377C140.487 6.61377 138.734 8.28714 138.734 10.359C138.814 12.4308 140.487 14.1044 142.559 14.1044Z" fill="#ACAFE0"/>
<path d="M156.663 14.1044C158.735 14.1044 160.409 12.4308 160.409 10.359C160.409 8.28714 158.735 6.61377 156.663 6.61377C154.591 6.61377 152.838 8.28714 152.838 10.359C152.838 12.4308 154.591 14.1044 156.663 14.1044Z" fill="#ACAFE0"/>
<path d="M170.768 14.1044C172.839 14.1044 174.513 12.4308 174.513 10.359C174.513 8.28714 172.839 6.61377 170.768 6.61377C168.696 6.61377 166.942 8.28714 166.942 10.359C167.022 12.4308 168.696 14.1044 170.768 14.1044Z" fill="#ACAFE0"/>
<path d="M512.143 59.2866C512.223 59.2866 512.382 59.2866 512.462 59.2866C512.701 59.3663 512.86 59.5256 512.94 59.7646C513.02 60.0037 513.02 60.2428 512.94 60.4022C512.382 62.0756 511.586 63.5897 510.709 65.1038C510.629 65.2631 510.39 65.4225 510.151 65.5022C509.912 65.5819 509.673 65.5021 509.514 65.4224C509.434 65.3427 509.354 65.263 509.274 65.1833C509.195 65.1036 509.115 65.024 509.115 64.8647C509.115 64.7053 509.115 64.6255 509.115 64.5458C509.115 64.4661 509.195 64.3068 509.195 64.2271C510.071 62.8725 510.788 61.3584 511.267 59.8444C511.346 59.685 511.426 59.5256 511.585 59.446C511.824 59.3663 511.984 59.2866 512.143 59.2866Z" fill="#110580"/>
<path d="M372.533 17.9292C372.613 17.9292 372.772 17.9292 372.852 17.9292L374.047 18.2481C376.836 19.0449 379.785 19.9214 382.813 20.798C382.893 20.798 383.052 20.8776 383.132 20.9573C383.211 21.037 383.291 21.1167 383.371 21.1964C383.45 21.2761 383.45 21.4354 383.45 21.5151C383.45 21.5948 383.45 21.7543 383.45 21.8339C383.371 21.9136 383.37 22.0729 383.291 22.1526C383.211 22.2323 383.132 22.312 383.052 22.3917C382.972 22.4714 382.813 22.4715 382.733 22.4715C382.653 22.4715 382.494 22.4714 382.415 22.3917C379.386 21.4355 376.517 20.559 373.728 19.8418L372.533 19.5229C372.294 19.4432 372.135 19.2839 371.976 19.1245C371.896 18.8854 371.816 18.7262 371.896 18.4872C371.975 18.3278 372.055 18.1684 372.214 18.0887C372.214 18.009 372.374 17.9292 372.533 17.9292ZM392.296 24.5432C392.455 24.5432 392.535 24.5432 392.694 24.5432C395.881 25.8979 398.989 27.4917 402.017 29.2448C402.097 29.3245 402.177 29.404 402.256 29.4837C402.336 29.5634 402.415 29.6432 402.415 29.8026C402.415 29.8822 402.415 30.0415 402.415 30.1212C402.415 30.2009 402.336 30.3604 402.256 30.4401C402.177 30.5198 402.097 30.5993 402.017 30.679C401.937 30.7587 401.778 30.8385 401.698 30.8385C401.619 30.8385 401.459 30.8385 401.38 30.8385C401.3 30.8385 401.141 30.7588 401.061 30.7588C398.113 29.0057 395.085 27.4916 391.897 26.1369C391.658 26.0572 391.499 25.898 391.419 25.6589C391.339 25.4199 391.339 25.2604 391.419 25.0214C391.499 24.862 391.578 24.7026 391.738 24.623C391.977 24.5433 392.056 24.4635 392.296 24.5432ZM410.065 35.2213C410.225 35.2213 410.304 35.2213 410.464 35.2213C410.544 35.2213 410.703 35.3009 410.782 35.3806C413.412 37.6915 415.882 40.2413 418.034 43.0304C418.193 43.1897 418.273 43.4288 418.194 43.6679C418.114 43.9069 418.034 44.0663 417.875 44.2256C417.795 44.3053 417.715 44.3852 417.556 44.3852C417.476 44.3852 417.317 44.3852 417.237 44.3852C417.157 44.3852 416.998 44.3054 416.918 44.3054C416.839 44.2257 416.759 44.146 416.68 44.0663C414.608 41.357 412.297 38.8867 409.667 36.6555C409.508 36.4961 409.428 36.2572 409.428 36.0181C409.428 35.7791 409.508 35.54 409.667 35.3806C409.667 35.3009 409.826 35.2213 410.065 35.2213ZM422.497 51.5569C422.656 51.5569 422.895 51.5568 423.054 51.6365C423.214 51.7162 423.293 51.8756 423.373 52.0349C424.887 55.2224 426.003 58.5693 426.72 62.0755C426.72 62.3145 426.72 62.5536 426.561 62.713C426.401 62.8724 426.242 63.0317 426.003 63.1114C425.764 63.1911 425.525 63.1113 425.365 62.9519C425.206 62.7925 425.047 62.6332 424.967 62.3941C424.25 59.0473 423.134 55.86 421.7 52.7522C421.62 52.5132 421.62 52.2741 421.7 52.1147C421.779 51.8756 421.939 51.7162 422.178 51.6365C422.337 51.6365 422.417 51.5569 422.497 51.5569ZM417.715 62.9519C419.628 62.7925 421.62 62.7925 423.532 62.9519C423.771 62.9519 424.011 63.0316 424.17 63.191C424.329 63.3504 424.409 63.5894 424.409 63.7488C424.409 63.9081 424.329 64.1474 424.17 64.3067C424.011 64.4661 423.771 64.5456 423.532 64.5456C421.7 64.4659 419.787 64.4659 417.954 64.5456C416.44 64.6253 414.926 64.8644 413.412 65.1832C413.173 65.2628 412.934 65.1832 412.775 65.0238C412.615 64.8644 412.456 64.7051 412.376 64.4661C412.376 64.3864 412.376 64.2269 412.376 64.1472C412.376 64.0675 412.456 63.9082 412.536 63.8285C412.615 63.7488 412.695 63.6691 412.775 63.5894C412.854 63.5097 412.934 63.5098 413.094 63.4301C414.687 63.1114 416.281 62.8723 417.875 62.7926H417.715V62.9519ZM433.573 64.7052H433.891C436.84 65.502 439.868 66.5379 443.852 68.0519C443.932 68.0519 444.012 68.1316 444.092 68.2113C444.171 68.291 444.251 68.3707 444.33 68.4504C444.41 68.5301 444.41 68.6893 444.41 68.769C444.41 68.8487 444.41 69.0082 444.33 69.0879C444.251 69.1676 444.251 69.3269 444.171 69.4066C444.092 69.4862 444.012 69.5659 443.932 69.5659C443.852 69.6456 443.693 69.6457 443.613 69.6457C443.454 69.6457 443.374 69.6456 443.295 69.5659C439.39 68.1315 436.362 67.0161 433.493 66.2989C433.334 66.2192 433.175 66.1394 433.015 65.98C432.936 65.8206 432.856 65.5816 432.856 65.4223C432.856 65.2629 432.935 65.0239 433.095 64.8645C433.254 64.8645 433.413 64.7052 433.573 64.7052ZM403.372 67.4942C403.531 67.4942 403.77 67.4941 403.93 67.6535C404.089 67.7332 404.248 67.8926 404.248 68.0519C404.328 68.2113 404.328 68.4503 404.248 68.6097C404.169 68.7691 404.089 68.9284 403.85 69.0081C402.336 69.9644 400.981 71.08 399.786 72.4347C398.75 73.5503 397.873 74.8252 397.236 76.1799C397.156 76.3393 397.156 76.4189 397.077 76.4986C396.997 76.5782 396.838 76.658 396.758 76.7377C396.599 76.8173 396.519 76.8174 396.36 76.8174C396.2 76.8174 396.121 76.8173 395.961 76.7377C395.802 76.658 395.722 76.5782 395.642 76.4986C395.562 76.4189 395.483 76.2596 395.483 76.1799C395.483 76.1002 395.483 75.9408 395.483 75.7815C395.483 75.6221 395.562 75.5425 395.642 75.4628C396.439 73.9488 397.395 72.5144 398.591 71.2394C399.866 69.8847 401.38 68.6097 402.973 67.5737C403.133 67.5737 403.292 67.4942 403.372 67.4942ZM426.72 71.7174C426.959 71.7174 427.118 71.7972 427.278 72.0362C427.437 72.1956 427.517 72.4347 427.517 72.6738C427.357 76.2597 426.64 79.7657 425.365 83.1125C425.286 83.1922 425.285 83.272 425.206 83.4314C425.126 83.5111 425.046 83.5907 424.887 83.5907C424.807 83.6704 424.648 83.6703 424.568 83.6703C424.489 83.6703 424.329 83.6704 424.25 83.5907C424.011 83.5111 423.851 83.3516 423.772 83.1125C423.692 82.8735 423.692 82.6344 423.772 82.475C425.047 79.3673 425.764 76.0206 425.843 72.6738C425.843 72.4347 426.003 72.2752 426.162 72.1158C426.322 71.7971 426.481 71.7174 426.72 71.7174ZM453.176 71.7174C453.255 71.7174 453.415 71.7174 453.574 71.7174L457 72.9924C459.232 73.7893 461.304 74.5064 463.375 75.1439C463.455 75.1439 463.615 75.2236 463.694 75.3033C463.774 75.3829 463.854 75.4627 463.933 75.5424C464.013 75.622 464.013 75.7815 464.013 75.8612C464.013 75.9409 464.013 76.1002 464.013 76.1799C463.933 76.4189 463.774 76.5784 463.615 76.6581C463.376 76.7378 463.136 76.8173 462.977 76.7377C460.905 76.1002 458.834 75.383 456.523 74.5862C455.327 74.1877 454.212 73.7095 453.096 73.3111C453.016 73.2314 452.857 73.2315 452.777 73.1518C452.698 73.0721 452.618 72.9924 452.618 72.9127C452.538 72.833 452.538 72.6737 452.538 72.594C452.538 72.5143 452.538 72.355 452.618 72.2753C452.697 72.116 452.857 72.0362 453.016 71.9565C453.176 71.8768 453.335 71.8769 453.494 71.8769L453.176 71.7174ZM502.9 71.319C503.059 71.319 503.298 71.3191 503.458 71.4785C503.617 71.5582 503.776 71.7175 503.776 71.8769C503.856 72.0363 503.856 72.2753 503.776 72.4347C503.697 72.5941 503.617 72.7534 503.458 72.8331C500.589 74.9846 497.401 76.5783 494.055 77.7736C493.816 77.8533 493.577 77.8532 493.417 77.6939C493.258 77.6142 493.098 77.4549 493.019 77.2159C492.939 76.9768 492.939 76.7377 493.099 76.5783C493.178 76.3393 493.338 76.2596 493.577 76.1799C496.764 75.144 499.792 73.63 502.501 71.6378C502.661 71.5581 502.82 71.4785 502.98 71.4785V71.319H502.9ZM473.097 77.4549H473.336C476.683 78.0127 480.189 78.1721 483.536 78.0127C483.775 78.0127 483.934 78.0924 484.094 78.2518C484.253 78.4112 484.333 78.5705 484.333 78.8096C484.333 79.0486 484.253 79.208 484.174 79.3673C484.094 79.5267 483.855 79.686 483.695 79.686C480.189 79.8454 476.604 79.686 473.177 79.1282C472.938 79.1282 472.778 78.9689 472.619 78.8096C472.46 78.6502 472.46 78.4111 472.46 78.172C472.54 78.0127 472.619 77.8533 472.699 77.7736C472.858 77.6939 473.018 77.6142 473.177 77.5345V77.4549H473.097ZM394.447 85.1047C394.606 85.1047 394.686 85.1047 394.766 85.1047C394.846 85.1047 394.925 85.1843 395.085 85.264C395.164 85.3437 395.244 85.4234 395.244 85.5031C395.323 85.5828 395.323 85.7423 395.323 85.822C395.563 88.5313 396.837 91.0014 398.83 92.8342C399.228 93.2327 399.627 93.5516 400.105 93.7906C400.184 93.8703 400.344 93.9498 400.423 94.0295C400.503 94.1092 400.583 94.2687 400.583 94.3484C400.663 94.5078 400.663 94.5874 400.583 94.7468C400.583 94.9062 400.503 94.9858 400.423 95.0655C400.344 95.1452 400.264 95.2249 400.184 95.3046C400.105 95.3843 399.945 95.3842 399.786 95.4639C399.627 95.4639 399.547 95.4639 399.388 95.4639C399.228 95.4639 399.149 95.3843 399.069 95.3046C398.511 94.9858 398.033 94.5875 397.555 94.189C395.244 92.1172 393.81 89.2484 393.491 86.1407C393.491 85.9016 393.57 85.6625 393.65 85.5031C393.969 85.2641 394.208 85.1047 394.447 85.1047ZM418.831 90.3641C418.99 90.3641 419.07 90.364 419.229 90.4436C419.389 90.5233 419.468 90.6031 419.548 90.6827C419.707 90.8421 419.787 91.0812 419.787 91.3203C419.787 91.5593 419.707 91.7187 419.548 91.9578C416.839 94.3484 413.572 96.1014 409.986 96.8983C409.747 96.8983 409.508 96.8983 409.348 96.739C409.189 96.5796 409.03 96.4203 408.95 96.1812C408.95 96.1015 408.95 95.942 408.95 95.8623C408.95 95.7827 409.03 95.6234 409.03 95.5437C409.109 95.464 409.189 95.3843 409.269 95.3046C409.348 95.2249 409.428 95.2249 409.587 95.1452C412.854 94.4281 415.803 92.8344 418.353 90.6032C418.512 90.5235 418.672 90.4438 418.831 90.3641Z" fill="#110580"/>
<path d="M358.189 12.1919C358.428 12.1919 358.588 12.2715 358.747 12.3512C360.022 13.3075 361.457 14.1044 362.971 14.6622C363.21 14.7419 363.369 14.9012 363.449 15.1402C363.528 15.3793 363.528 15.6184 363.449 15.7778C363.369 16.0168 363.21 16.1763 362.971 16.256C362.732 16.3357 362.493 16.3357 362.333 16.256C360.66 15.6185 359.146 14.742 357.712 13.706C357.552 13.5467 357.393 13.3871 357.393 13.1481C357.393 12.909 357.393 12.6701 357.552 12.5108C357.632 12.4311 357.711 12.3513 357.871 12.2717C357.95 12.192 358.03 12.1919 358.189 12.1919Z" fill="#110580"/>
<path d="M131.642 135.945C131.403 135.865 131.164 135.706 131.084 135.466C130.925 135.227 130.925 134.988 131.005 134.749C131.084 134.51 131.164 134.271 131.403 134.112C131.642 133.952 131.881 133.873 132.12 133.873H137.539V128.534C137.618 128.295 137.698 128.056 137.937 127.817C138.096 127.657 138.415 127.578 138.654 127.578C138.893 127.578 139.212 127.657 139.372 127.817C139.611 127.976 139.69 128.215 139.77 128.534V136.184H132.04L131.642 135.945Z" fill="#110580"/>
<path d="M20.9575 135.865C20.7982 135.785 20.559 135.626 20.4794 135.466C20.32 135.307 20.3198 135.068 20.3198 134.909C20.3198 134.59 20.3998 134.351 20.6389 134.112C20.8779 133.873 21.117 133.793 21.4357 133.793H35.3011C35.6198 133.793 35.8589 133.873 36.0979 134.112C36.337 134.351 36.4166 134.59 36.4166 134.909C36.4166 135.227 36.337 135.466 36.0979 135.706C35.8589 135.945 35.6198 136.024 35.3011 136.024H21.4357C21.2764 136.024 21.1169 135.945 20.9575 135.865ZM48.6084 135.865C48.4491 135.785 48.2103 135.626 48.1306 135.466C47.9712 135.307 47.9711 135.068 47.9711 134.829C47.9711 134.51 48.0507 134.271 48.2898 134.032C48.5288 133.793 48.7679 133.713 49.0866 133.713H62.9519C63.2707 133.713 63.5097 133.793 63.7488 134.032C63.9879 134.271 64.0679 134.51 64.0679 134.829C64.0679 135.148 63.9879 135.387 63.7488 135.626C63.5097 135.865 63.2707 135.945 62.9519 135.945H49.0866C48.9272 136.024 48.7678 135.945 48.6084 135.865ZM76.3395 135.865C76.1004 135.785 75.9409 135.626 75.7815 135.387C75.6221 135.148 75.622 134.909 75.7017 134.67C75.7814 134.431 75.8611 134.192 76.1002 134.032C76.3392 133.873 76.5786 133.793 76.8176 133.793H90.683C91.0017 133.793 91.2407 133.953 91.4001 134.192C91.5594 134.431 91.639 134.67 91.639 134.909C91.639 135.148 91.5594 135.467 91.4001 135.626C91.2407 135.865 91.0017 135.945 90.683 136.024H76.897C76.658 136.024 76.4988 136.024 76.3395 135.865ZM103.99 135.865C103.751 135.785 103.592 135.626 103.513 135.466C103.353 135.307 103.353 135.068 103.353 134.909C103.353 134.59 103.512 134.351 103.672 134.112C103.911 133.873 104.15 133.793 104.469 133.793H118.334C118.653 133.793 118.892 133.873 119.131 134.112C119.37 134.351 119.45 134.59 119.45 134.909C119.45 135.227 119.29 135.466 119.131 135.706C118.892 135.945 118.653 136.024 118.334 136.024H104.469C104.309 136.024 104.15 136.024 103.99 135.865Z" fill="#110580"/>
<path d="M0 135.945V128.295C0 127.976 0.159684 127.737 0.319056 127.498C0.478428 127.259 0.797095 127.179 1.03615 127.179C1.3549 127.179 1.59396 127.338 1.83302 127.498C2.07207 127.737 2.15168 127.976 2.15168 128.295V133.634H7.64995C7.88901 133.634 8.20799 133.793 8.28768 134.032C8.44705 134.271 8.60634 134.51 8.60634 134.749C8.60634 134.988 8.52673 135.307 8.28768 135.466C8.1283 135.706 7.88901 135.785 7.64995 135.865L0 135.945Z" fill="#110580"/>
<path d="M0.637723 116.581C0.478351 116.501 0.239214 116.342 0.159528 116.182C0.000155635 116.023 0 115.784 0 115.545V102.795C0 102.476 0.0799975 102.237 0.319056 101.998C0.558115 101.759 0.797173 101.68 1.11592 101.68C1.43466 101.68 1.67372 101.759 1.91278 101.998C2.15184 102.237 2.23145 102.476 2.23145 102.795V115.545C2.23145 115.864 2.15184 116.103 1.91278 116.342C1.67372 116.581 1.43466 116.661 1.11592 116.661C0.876859 116.661 0.797095 116.66 0.637723 116.581ZM0.637723 91.0016C0.398664 90.922 0.239214 90.7626 0.159528 90.6032C0.000155635 90.4438 0 90.2047 0 89.9657V77.2159C0 76.9768 0.159372 76.7377 0.398431 76.4986C0.63749 76.3392 0.876859 76.2597 1.11592 76.2597C1.35498 76.2597 1.67364 76.3392 1.83302 76.4986C2.07207 76.658 2.15176 76.8971 2.23145 77.2159V89.9657C2.23145 90.2844 2.15184 90.5235 1.91278 90.7625C1.67372 91.0016 1.43466 91.0812 1.11592 91.0812C0.956546 91.0812 0.797095 91.0813 0.637723 91.0016ZM0.637723 65.5021C0.478351 65.4224 0.239214 65.263 0.159528 65.1036C0.000155635 64.9443 0 64.7052 0 64.4661V51.7163C0 51.3976 0.0799975 51.1585 0.319056 50.9194C0.558115 50.6804 0.797173 50.6006 1.11592 50.6006C1.43466 50.6006 1.67372 50.6804 1.91278 50.9194C2.15184 51.1585 2.23145 51.3976 2.23145 51.7163V64.4661C2.23145 64.7848 2.15184 65.0239 1.91278 65.263C1.67372 65.502 1.43466 65.5816 1.11592 65.5816C0.956546 65.5019 0.876859 65.4222 0.717487 65.3425L0.637723 65.5021Z" fill="#110580"/>
<path d="M0.637723 39.6838C0.478351 39.6041 0.239214 39.4447 0.159528 39.2853C0.000155635 39.126 0 38.8869 0 38.6478V30.998H7.64995C7.9687 30.998 8.28744 31.1573 8.44682 31.3167C8.68587 31.5558 8.76548 31.7948 8.76548 32.1136C8.76548 32.4323 8.60619 32.6714 8.44682 32.9104C8.20776 33.1495 7.88901 33.2293 7.64995 33.2293H2.23145V38.5682C2.23145 38.887 2.15184 39.126 1.91278 39.3651C1.67372 39.6042 1.43466 39.6838 1.11592 39.6838C0.956546 39.7635 0.797095 39.6838 0.637723 39.6838Z" fill="#110580"/>
<path d="M21.0373 33.2293C20.7983 33.1496 20.559 32.9902 20.4794 32.7511C20.32 32.5121 20.3198 32.2731 20.3198 32.034C20.3995 31.795 20.5589 31.5559 20.7183 31.3965C20.8776 31.2371 21.1967 31.1574 21.4357 31.1574H35.3011C35.5401 31.1574 35.8587 31.3168 35.9384 31.5558C36.0978 31.7949 36.2571 32.0339 36.2571 32.2729C36.2571 32.512 36.1775 32.8308 35.9384 32.9902C35.779 33.2293 35.5401 33.309 35.3011 33.3887H21.4357C21.3561 33.309 21.1967 33.309 21.0373 33.2293ZM48.6084 33.2293C48.3694 33.1496 48.2103 32.9903 48.1306 32.8309C47.9712 32.6715 47.9711 32.4324 47.9711 32.1934C47.9711 31.8746 48.1304 31.6356 48.2898 31.3965C48.5288 31.1574 48.7679 31.0776 49.0866 31.0776H62.9519C63.2707 31.0776 63.5097 31.1574 63.7488 31.3965C63.9879 31.6356 64.0679 31.8746 64.0679 32.1934C64.0679 32.5121 63.9082 32.7512 63.7488 32.9902C63.5097 33.2293 63.2707 33.3089 62.9519 33.3089H49.0866C48.9272 33.3089 48.7678 33.309 48.6084 33.2293ZM76.3395 33.2293C76.1004 33.1496 75.8612 32.9902 75.7815 32.7511C75.6221 32.5121 75.622 32.2731 75.7017 32.034C75.7814 31.795 75.8611 31.5559 76.1002 31.3965C76.3392 31.2371 76.5786 31.1574 76.8176 31.1574H90.683C91.0017 31.1574 91.2408 31.237 91.4798 31.4761C91.7189 31.7151 91.7985 31.9542 91.7985 32.2729C91.7985 32.5917 91.6392 32.8307 91.4798 33.0698C91.2408 33.3089 91.0017 33.3887 90.683 33.3887H76.897C76.658 33.309 76.4988 33.309 76.3395 33.2293ZM103.99 33.2293C103.751 33.1496 103.592 32.9903 103.513 32.8309C103.433 32.6715 103.353 32.4324 103.353 32.1934C103.353 31.8746 103.512 31.6356 103.672 31.3965C103.911 31.1574 104.15 31.0776 104.469 31.0776H118.334C118.573 31.0776 118.812 31.237 118.972 31.4761C119.131 31.7151 119.21 31.9543 119.21 32.1934C119.21 32.4324 119.131 32.7511 118.972 32.9105C118.812 33.1495 118.573 33.2292 118.334 33.3089H104.548C104.389 33.3089 104.229 33.309 103.99 33.2293Z" fill="#110580"/>
<path d="M138.256 39.7635C138.017 39.6839 137.858 39.5245 137.778 39.3651C137.698 39.2057 137.618 38.9667 137.618 38.8074V33.3089H132.2C131.881 33.3089 131.642 33.2293 131.403 32.9902C131.164 32.7512 131.084 32.5121 131.084 32.1934C131.084 31.8746 131.244 31.6356 131.403 31.3965C131.642 31.1574 131.881 31.0776 132.2 31.0776H139.849V38.7276C139.849 39.0463 139.69 39.2854 139.531 39.5245C139.292 39.7635 139.053 39.8431 138.734 39.8431C138.575 39.8431 138.415 39.7635 138.256 39.7635Z" fill="#110580"/>
<path d="M138.255 116.661C138.016 116.581 137.857 116.422 137.778 116.262C137.698 116.103 137.618 115.864 137.618 115.705V102.955C137.618 102.636 137.777 102.397 137.937 102.158C138.176 101.919 138.415 101.839 138.734 101.839C139.052 101.839 139.291 101.919 139.531 102.158C139.77 102.397 139.849 102.636 139.849 102.955V115.705C139.849 116.023 139.69 116.262 139.531 116.502C139.291 116.741 139.052 116.82 138.734 116.82C138.574 116.741 138.415 116.741 138.255 116.661ZM138.255 91.0815C138.016 91.0018 137.857 90.8425 137.778 90.6831C137.698 90.5237 137.618 90.2846 137.618 90.0456V77.2958C137.618 76.977 137.777 76.738 137.937 76.4989C138.176 76.2599 138.415 76.1803 138.734 76.1803C139.052 76.1803 139.291 76.3395 139.531 76.4989C139.77 76.738 139.849 76.977 139.849 77.2958V90.0456C139.849 90.3643 139.69 90.6034 139.531 90.8424C139.291 91.0815 139.052 91.1613 138.734 91.1613C138.495 91.1613 138.415 91.0815 138.255 91.0815ZM138.255 65.5819C138.016 65.5023 137.857 65.3429 137.778 65.1835C137.618 65.0241 137.618 64.785 137.618 64.546V51.7962C137.618 51.4774 137.777 51.2384 137.937 50.9993C138.176 50.7603 138.415 50.6807 138.734 50.6807C139.052 50.6807 139.291 50.7603 139.531 50.9993C139.77 51.2384 139.849 51.4774 139.849 51.7962V64.546C139.849 64.8647 139.69 65.1038 139.531 65.3428C139.291 65.5819 139.052 65.6617 138.734 65.6617C138.574 65.582 138.415 65.5022 138.335 65.3428V65.5819H138.255Z" fill="#110580"/>
<path d="M334.762 44.1465H59.4458C56.4178 44.1465 54.0273 46.5371 54.0273 49.5652V226.229C54.0273 229.258 56.4178 231.648 59.4458 231.648H334.762C337.79 231.648 340.181 229.258 340.181 226.229V49.5652C340.181 46.6168 337.71 44.1465 334.762 44.1465Z" fill="white"/>
<path d="M190.371 98.7314V195.152C190.371 197.941 192.681 200.252 195.47 200.252C198.339 200.252 200.57 197.941 200.57 195.152V98.7314C200.57 95.9424 198.339 93.6313 195.47 93.6313C192.602 93.6313 190.371 95.9424 190.371 98.7314Z" fill="#FF7A82"/>
<path d="M260 99.1V195.52C260 198.309 262.311 200.62 265.1 200.62C267.969 200.62 270.2 198.309 270.2 195.52V99.1C270.2 96.311 267.969 94 265.1 94C262.231 94 260 96.311 260 99.1Z" fill="#FF7A82"/>
<path d="M237 121.1V194.889C237 197.678 239.311 199.989 242.1 199.989C244.889 199.989 247.2 197.678 247.2 194.889V121.1C247.2 118.311 244.889 116 242.1 116C239.231 116 237 118.311 237 121.1Z" fill="#FF7A82"/>
<path d="M291 121.1V194.889C291 197.678 293.311 199.989 296.1 199.989C298.889 199.989 301.2 197.678 301.2 194.889V121.1C301.2 118.311 298.889 116 296.1 116C293.231 116 291 118.311 291 121.1Z" fill="#FF7A82"/>
<path d="M142 121.1V194.889C142 197.678 144.311 199.989 147.1 199.989C149.889 199.989 152.2 197.678 152.2 194.889V121.1C152.2 118.311 149.889 116 147.1 116C144.311 116 142 118.311 142 121.1Z" fill="#FF7A82"/>
<path d="M117 159.1V194.56C117 197.349 119.311 199.66 122.1 199.66C124.969 199.66 127.2 197.349 127.2 194.56V159.1C127.2 156.311 124.969 154 122.1 154C119.311 154 117 156.231 117 159.1Z" fill="#FF7A82"/>
<path d="M93 144.1V195.338C93 198.127 95.2311 200.438 98.0998 200.438C100.889 200.438 103.2 198.127 103.2 195.338V144.1C103.2 141.311 100.889 139 98.0998 139C95.3108 139 93 141.231 93 144.1Z" fill="#FF7A82"/>
<path d="M214 135.068V194.932C214 197.704 216.187 200 219 200C221.734 200 224 197.704 224 194.932V135.068C224 132.296 221.734 130 219 130C216.187 130 214 132.217 214 135.068Z" fill="#FF7A82"/>
<path d="M167 135.1V195.343C167 198.132 169.311 200.443 172.1 200.443C174.969 200.443 177.2 198.132 177.2 195.343V135.1C177.2 132.311 174.889 130 172.1 130C169.311 130 167 132.311 167 135.1Z" fill="#FF7A82"/>
<path d="M334.762 44.1465H59.4458C58.7287 44.1465 58.0114 44.3059 57.3739 44.5449C56.7364 44.784 56.0992 45.1824 55.6211 45.7402C55.143 46.2183 54.7445 46.8558 54.4258 47.4933C54.107 48.1308 54.0273 48.848 54.0273 49.5652V64.8649H340.26V49.5652C340.26 48.848 340.101 48.1308 339.862 47.4933C339.543 46.8558 339.224 46.2183 338.666 45.7402C338.188 45.2621 337.551 44.8637 336.913 44.5449C336.196 44.3059 335.399 44.1465 334.762 44.1465Z" fill="#D6D7F0"/>
<path d="M69.8848 58.2507C71.9567 58.2507 73.6302 56.5773 73.6302 54.5055C73.6302 52.4336 71.9567 50.7603 69.8848 50.7603C67.813 50.7603 66.0601 52.4336 66.0601 54.5055C66.0601 56.5773 67.813 58.2507 69.8848 58.2507Z" fill="#FF7A82"/>
<path d="M83.9897 58.2507C86.0616 58.2507 87.7347 56.5773 87.7347 54.5055C87.7347 52.4336 86.0616 50.7603 83.9897 50.7603C81.9179 50.7603 80.1646 52.4336 80.1646 54.5055C80.1646 56.5773 81.9179 58.2507 83.9897 58.2507Z" fill="#FDB62F"/>
<path d="M98.0939 58.2507C100.166 58.2507 101.919 56.5773 101.919 54.5055C101.919 52.4336 100.245 50.7603 98.0939 50.7603C96.0221 50.7603 94.3489 52.4336 94.3489 54.5055C94.2692 56.5773 95.9424 58.2507 98.0939 58.2507Z" fill="#64A7B0"/>
<path d="M299.341 207.623C318.139 211.712 336.756 199.688 340.876 180.749C344.996 161.81 333.128 143.153 314.26 139.048C295.461 134.959 276.845 146.983 272.724 165.922C268.604 184.861 280.543 203.533 299.341 207.623Z" fill="#E8EBFF"/>
<path fill-rule="evenodd" clip-rule="evenodd" d="M264.455 165.967C265.911 157.583 269.901 149.749 275.743 143.573C279.671 139.413 284.29 136.142 289.587 133.828C294.727 131.555 300.301 130.334 305.943 130.16C311.585 129.987 317.193 130.986 322.43 133.01C327.652 135.105 332.449 138.139 336.538 142.052C342.629 147.948 346.883 155.51 348.749 163.88C350.544 172.234 349.903 180.943 346.844 188.905C345.832 191.485 344.593 193.948 343.146 196.264C343.55 196.538 343.937 196.85 344.302 197.2L389.448 240.499C392.925 243.836 393.043 249.392 389.706 252.869C386.354 256.416 380.868 256.55 377.391 253.213L332.245 209.915C331.881 209.565 331.554 209.191 331.264 208.798C324.314 213.706 316.18 216.388 307.711 216.596C299.186 216.806 290.845 214.475 283.658 209.889C276.541 205.317 270.9 198.707 267.442 190.876C264.055 183.06 262.985 174.422 264.455 165.967ZM314.408 207.509C321.075 206.01 327.226 202.481 332.002 197.474C338.333 190.74 341.834 181.768 341.722 172.453C341.54 163.123 337.632 154.309 330.984 147.922C325.977 143.146 319.742 139.946 312.921 138.757C306.101 137.568 299.134 138.412 292.84 141.246C286.545 144.08 281.181 148.738 277.48 154.569C273.778 160.4 271.854 167.208 272.034 174.178C272.158 181.063 274.377 187.813 278.309 193.462C282.312 199.125 287.849 203.501 294.238 205.997C300.626 208.492 307.67 208.992 314.408 207.509Z" fill="#2B31BA"/>
<path d="M299.53 208.482C318.328 212.571 336.945 200.547 341.065 181.608C345.185 162.669 333.317 144.012 314.449 139.907C295.65 135.817 277.033 147.842 272.913 166.781C268.793 185.72 280.732 204.392 299.53 208.482Z" fill="#E8EBFF"/>
<path fill-rule="evenodd" clip-rule="evenodd" d="M264.644 166.826C266.1 158.441 270.09 150.608 275.931 144.432C279.86 140.272 284.479 137.001 289.776 134.687C294.916 132.414 300.49 131.193 306.132 131.019C311.774 130.846 317.382 131.845 322.619 133.869C327.841 135.963 332.638 138.998 336.727 142.911C342.818 148.807 347.072 156.369 348.938 164.739C350.733 173.093 350.092 181.802 347.033 189.764C346.02 192.344 344.782 194.807 343.335 197.123C343.739 197.397 344.126 197.709 344.491 198.059L389.637 241.357C393.114 244.695 393.232 250.251 389.895 253.728C386.543 257.275 381.057 257.409 377.58 254.072L332.434 210.773C332.07 210.424 331.743 210.05 331.453 209.657C324.503 214.564 316.369 217.247 307.9 217.455C299.375 217.665 291.034 215.334 283.847 210.748C276.73 206.176 271.089 199.566 267.631 191.735C264.244 183.919 263.174 175.281 264.644 166.826ZM314.597 208.368C321.264 206.869 327.415 203.34 332.191 198.333C338.522 191.599 342.023 182.627 341.911 173.312C341.729 163.982 337.821 155.168 331.173 148.781C326.166 144.005 319.931 140.805 313.11 139.616C306.29 138.427 299.323 139.271 293.029 142.105C286.734 144.939 281.37 149.597 277.669 155.428C273.967 161.259 272.043 168.067 272.223 175.037C272.347 181.922 274.565 188.672 278.498 194.32C282.501 199.984 288.038 204.36 294.427 206.855C300.815 209.351 307.859 209.851 314.597 208.368Z" fill="#2B31BA"/>
<path d="M287.514 145.5L288.014 195.542C288.014 198.265 291.639 200.521 296.014 200.521C300.389 200.521 304.014 198.265 304.014 195.542L303.5 139.5C303.5 139.5 302.5 139 299.5 140C296.5 141.001 296 140.857 294.5 141.5C291 143 289 144 289 144L287.514 145.5Z" fill="#FF7A82" fill-opacity="0.6"/>
</svg>
