<svg viewBox="0 0 401 271" preserveAspectRatio="xMinYMax meet" fill="none" xmlns="http://www.w3.org/2000/svg">
<path d="M96.384 0.801758H384.517C393.144 0.801758 400.004 7.79787 400.004 16.2884V189.63C400.004 198.257 393.008 205.117 384.517 205.117H96.384C87.7576 205.117 80.8975 198.121 80.8975 189.63V16.2884C80.8975 7.72995 87.8935 0.801758 96.384 0.801758Z" fill="#C5C6E3"/>
<path d="M97.5388 9.7002H383.431C386.895 9.7002 389.815 12.4851 389.815 16.0851V166.876C389.815 170.34 387.031 173.125 383.431 173.125H97.5388C94.0747 173.125 91.2897 170.34 91.2897 166.876V16.0851C91.1539 12.6209 94.0747 9.7002 97.5388 9.7002Z" fill="#E8EAF7"/>
<path d="M294.722 247.229H186.111L199.628 205.185H281.273L294.722 247.229Z" fill="#C5C6E3"/>
<path d="M161.116 236.566H319.854C322.163 236.566 324.065 238.468 324.065 240.777V243.087C324.065 245.396 322.163 247.298 319.854 247.298H161.116C158.806 247.298 156.904 245.396 156.904 243.087V240.777C156.972 238.4 158.806 236.566 161.116 236.566Z" fill="#C5C6E3"/>
<path d="M239.024 197.713C243.713 197.713 247.515 193.912 247.515 189.222C247.515 184.533 243.713 180.732 239.024 180.732C234.335 180.732 230.534 184.533 230.534 189.222C230.534 193.912 234.335 197.713 239.024 197.713Z" fill="#E8EAF7"/>
<path d="M132.995 29.5337H344.985V156.959C344.985 159.201 343.219 160.899 341.046 160.899H137.002C134.761 160.899 133.063 159.133 133.063 156.959C132.995 157.027 132.995 29.5337 132.995 29.5337Z" fill="white"/>
<path d="M284.126 38.7036H333.438C334.797 38.7036 335.884 39.7225 335.884 41.1489V149.488C335.884 150.846 334.865 151.933 333.438 151.933H284.126C282.767 151.933 281.681 150.914 281.681 149.488V41.1489C281.749 39.7225 282.767 38.7036 284.126 38.7036Z" fill="#E8E8F7"/>
<path d="M291.394 57.6543H308.51C309.461 57.6543 310.276 58.4694 310.276 59.4203C310.276 60.3712 309.461 61.1864 308.51 61.1864H291.394C290.443 61.1864 289.627 60.3712 289.627 59.4203C289.627 58.4694 290.307 57.6543 291.394 57.6543Z" fill="#C5C6E3"/>
<path d="M291.394 64.9902H326.374C327.325 64.9902 328.14 65.8053 328.14 66.7562C328.14 67.7072 327.325 68.5222 326.374 68.5222H291.394C290.443 68.5222 289.627 67.7072 289.627 66.7562C289.627 65.6695 290.307 64.9902 291.394 64.9902Z" fill="#C5C6E3"/>
<path d="M291.394 97.0503H326.374C327.325 97.0503 328.14 97.8654 328.14 98.8163C328.14 99.7672 327.325 100.582 326.374 100.582H291.394C290.443 100.582 289.627 99.7672 289.627 98.8163C289.627 97.7295 290.307 97.0503 291.394 97.0503Z" fill="#C5C6E3"/>
<path d="M291.394 89.7144H317.476C318.427 89.7144 319.242 90.5294 319.242 91.4804C319.242 92.4313 318.427 93.2464 317.476 93.2464H291.394C290.443 93.2464 289.627 92.4313 289.627 91.4804C289.627 90.5294 290.307 89.7144 291.394 89.7144Z" fill="#C5C6E3"/>
<path d="M291.394 130.672H326.374C327.325 130.672 328.14 131.487 328.14 132.438C328.14 133.389 327.325 134.204 326.374 134.204H291.394C290.443 134.204 289.627 133.389 289.627 132.438C289.627 131.487 290.307 130.672 291.394 130.672Z" fill="#C5C6E3"/>
<path d="M291.394 123.336H308.51C309.461 123.336 310.276 124.151 310.276 125.102C310.276 126.053 309.461 126.868 308.51 126.868H291.394C290.443 126.868 289.627 126.053 289.627 125.102C289.627 124.151 290.307 123.336 291.394 123.336Z" fill="#C5C6E3"/>
<path d="M291.394 137.873H326.374C327.325 137.873 328.14 138.688 328.14 139.639C328.14 140.59 327.325 141.405 326.374 141.405H291.394C290.443 141.405 289.627 140.59 289.627 139.639C289.627 138.688 290.307 137.873 291.394 137.873Z" fill="#C5C6E3"/>
<path d="M294.383 120.416C296.746 120.416 298.662 118.5 298.662 116.137C298.662 113.773 296.746 111.857 294.383 111.857C292.019 111.857 290.104 113.773 290.104 116.137C290.104 118.5 292.019 120.416 294.383 120.416Z" fill="#4E53BA"/>
<path d="M294.383 54.7333C296.746 54.7333 298.662 52.8174 298.662 50.454C298.662 48.0907 296.746 46.1748 294.383 46.1748C292.019 46.1748 290.104 48.0907 290.104 50.454C290.104 52.8174 292.019 54.7333 294.383 54.7333Z" fill="#4E53BA"/>
<path d="M294.383 86.6576C296.746 86.6576 298.662 84.7417 298.662 82.3784C298.662 80.015 296.746 78.0991 294.383 78.0991C292.019 78.0991 290.104 80.015 290.104 82.3784C290.104 84.7417 292.019 86.6576 294.383 86.6576Z" fill="#FF7A82"/>
<mask id="mask0" mask-type="alpha" maskUnits="userSpaceOnUse" x="142" y="38" width="131" height="114">
<path d="M144.542 38.7036H270.201C271.559 38.7036 272.646 39.7225 272.646 41.1489V149.488C272.646 150.846 271.627 151.933 270.201 151.933H144.542C143.183 151.933 142.097 150.914 142.097 149.488V41.1489C142.097 39.7225 143.251 38.7036 144.542 38.7036Z" fill="#EBDBCD"/>
</mask>
<g mask="url(#mask0)">
<path d="M170.421 129.586C164.036 140.861 160.097 152.408 159.757 165.382C159.417 177.608 162.066 189.698 172.798 197.034C179.862 201.925 187.062 190.785 179.998 185.895C173.002 181.004 172.662 171.631 173.138 163.683C173.749 153.902 176.738 145.276 181.628 136.854C185.772 129.382 174.768 122.182 170.421 129.586Z" fill="#FCB58A"/>
<path d="M225.304 135.903C231.214 143.578 235.561 151.593 237.531 161.238C239.161 169.389 239.772 177.064 232.98 183.11C226.731 188.951 235.425 198.936 241.674 193.094C245.885 189.359 249.01 184.468 250.708 179.17C252.474 173.125 251.998 167.215 250.979 161.034C248.738 148.129 243.304 137.329 235.289 127.072C230.059 120.416 220.006 129.11 225.304 135.903Z" fill="#FCB58A"/>
<path d="M241.13 124.695C241.13 124.695 234.405 77.1484 232.164 68.4541C228.7 55.0731 219.122 47.0581 205.674 47.0581C191.953 47.0581 182.444 55.2089 178.708 68.59C174.836 82.3106 169.742 123.676 169.742 123.676C169.131 125.578 170.082 127.548 171.984 128.091C176.263 129.722 185.364 132.642 205.674 132.371C223.809 132.099 233.251 129.722 237.87 129.246C239.84 129.11 241.334 127.344 241.266 125.374C241.266 125.171 241.266 124.967 241.13 124.695Z" fill="black"/>
<path d="M198.202 93.9258H213.009V119.126C213.009 121.231 211.243 122.997 209.137 122.997H202.073C199.968 122.997 198.202 121.231 198.202 119.126V93.9258Z" fill="#FCB58A"/>
<path d="M205.674 99.3594C219.216 99.3594 230.194 88.3812 230.194 74.8389C230.194 61.2966 219.216 50.3184 205.674 50.3184C192.131 50.3184 181.153 61.2966 181.153 74.8389C181.153 88.3812 192.131 99.3594 205.674 99.3594Z" fill="#FCB58A"/>
<path d="M180.678 73.8882C180.678 74.2278 180.678 74.7033 180.814 75.0429V75.1788C180.814 75.6542 180.95 75.9939 181.086 76.4694C181.221 76.9448 181.221 77.4203 181.357 77.8278C183.123 70.9675 189.236 66.077 196.368 66.077C197.319 66.077 198.134 66.2128 199.017 66.3487C199.697 66.4845 200.308 66.6204 200.987 66.6204C205.538 66.6204 209.274 63.2241 209.817 58.7411C209.681 59.2166 209.682 59.6921 209.682 60.0996C209.682 65.3298 213.893 69.5411 219.123 69.5411C224.149 70.5599 228.293 74.2958 229.787 79.1863C230.126 78.1675 230.398 76.9448 230.466 75.7901V75.6542C230.602 75.1787 230.602 74.7033 230.602 74.2957V73.9561C230.602 73.3448 230.602 72.9372 230.602 72.3259C230.602 71.7146 230.602 71.375 230.602 70.9674C230.602 70.8316 230.602 70.6958 230.602 70.6278C230.602 70.2882 230.602 69.9487 230.466 69.677C230.33 69.4053 230.466 69.4052 230.33 69.2014C230.195 68.9297 230.194 68.5901 230.194 68.2505L230.059 67.7751C229.923 67.4354 229.923 67.1637 229.787 66.8241C229.651 66.4845 229.651 66.5524 229.651 66.4845L229.38 65.5335C229.38 65.3977 229.244 65.2618 229.244 65.1939C229.108 64.8543 228.972 64.5147 228.904 64.243C228.904 64.1072 228.904 64.1072 228.768 63.9713C228.632 63.6317 228.496 63.2921 228.428 62.9525V62.8166C228.293 62.477 228.089 62.0015 227.953 61.6619C225.712 57.111 222.247 53.3073 217.968 50.7262C216.61 49.9111 215.183 49.2318 213.689 48.7564H213.553C213.078 48.6205 212.602 48.4847 212.263 48.2809H211.991C210.972 48.0092 210.021 47.8054 209.002 47.6696H208.663L207.508 47.5337H207.032C206.557 47.5337 206.014 47.5337 205.538 47.5337C191.682 47.5337 180.542 58.6733 180.542 72.5297C180.542 73.0052 180.542 73.4807 180.542 73.8882C180.678 73.8203 180.678 73.8882 180.678 73.8882Z" fill="black"/>
<path d="M229.515 115.525C224.421 112.74 218.851 110.838 213.01 110.023C212.059 114.099 210.021 116.272 205.334 116.272C200.648 116.272 199.085 113.963 198.27 109.751C197.319 109.751 194.399 110.363 193.72 110.567C185.229 112.197 181.833 114.438 177.689 117.563C171.169 122.453 164.784 132.574 163.425 134.883C163.154 135.155 163.154 135.562 163.425 135.834C164.92 138.279 166.89 140.385 169.267 142.015C172.188 143.917 175.176 145.276 178.437 146.294C178.437 146.294 180.406 142.559 181.086 141.2C181.901 139.298 184.006 133.049 184.006 133.049C182.852 135.698 182.104 138.619 181.901 141.54C181.765 145.479 183.191 149.895 183.055 152.544C182.716 157.162 181.765 161.713 180.406 166.128C180.271 166.74 180.542 167.147 181.086 167.419C188.557 169.185 196.233 170.204 203.908 170.34C212.195 170.34 220.414 169.728 228.564 168.438C229.176 168.302 229.516 167.826 229.38 167.283C229.38 167.283 229.38 167.283 229.38 167.147C228.361 162.732 227.478 158.317 227.138 153.902C226.459 147.857 227.138 146.702 227.138 142.287C226.866 139.162 226.459 135.902 225.847 132.778L227.138 144.868C230.874 144.732 234.61 143.917 237.938 142.287C240.247 140.996 242.217 139.502 244.119 137.668C244.459 137.329 244.594 136.853 244.391 136.378C242.76 133.117 235.561 119.125 229.515 115.525Z" fill="#868AE0"/>
<path fill-rule="evenodd" clip-rule="evenodd" d="M209.025 102.236C210.358 102.42 211.617 102.826 212.393 103.665C213.974 105.372 215.031 108.029 215.745 110.981C216.462 113.947 216.849 117.277 217.049 120.39C217.248 123.504 217.259 126.414 217.221 128.545C217.202 129.611 217.17 130.482 217.144 131.088C217.13 131.391 217.118 131.627 217.109 131.788C217.105 131.869 217.101 131.931 217.099 131.973L217.096 132.02L217.095 132.032L217.095 132.036L217.095 132.037C217.095 132.037 217.095 132.037 217.051 132.034C216.692 135.448 215.339 138.005 213.419 139.724C211.747 141.22 209.668 142.058 207.5 142.286V142.287V142.308V142.329V142.35V142.372V142.394V142.415V142.437V142.459V142.481V142.503V142.526V142.548V142.57V142.593V142.616V142.638V142.661V142.684V142.707V142.731V142.754V142.777V142.801V142.824V142.848V142.872V142.896V142.92V142.944V142.968V142.992V143.017V143.041V143.066V143.09V143.115V143.14V143.165V143.19V143.215V143.24V143.265V143.29V143.316V143.341V143.367V143.393V143.418V143.444V143.47V143.496V143.522V143.548V143.575V143.601V143.627V143.654V143.681V143.707V143.734V143.761V143.788V143.814V143.841V143.869V143.896V143.923V143.95V143.978V144.005V144.033V144.06V144.088V144.116V144.143V144.171V144.199V144.227V144.255V144.283V144.311V144.34V144.368V144.396V144.425V144.453V144.482V144.51V144.539V144.568V144.596V144.625V144.654V144.683V144.712V144.741V144.77V144.799V144.828V144.858V144.887V144.916V144.946V144.975V145.005V145.034V145.064V145.094V145.123V145.153V145.183V145.213V145.242V145.272V145.302V145.332V145.362V145.392V145.423V145.453V145.483V145.513V145.543V145.574V145.604V145.634V145.665V145.695V145.726V145.756V145.787V145.817V145.848V145.879V145.909V145.94V145.971V146.001V146.032V146.063V146.094V146.125V146.156V146.187V146.217V146.248V146.279V146.31V146.341V146.372V146.404V146.435V146.466V146.497V146.528V146.559V146.59V146.622V146.653V146.684V146.715V146.746V146.778V146.809V146.84V146.872V146.903V146.934V146.965V146.997V147.028V147.059V147.091V147.122V147.154V147.185V147.216V147.248V147.279V147.31V147.342V147.373V147.405V147.436V147.467V147.499V147.53V147.562V147.593V147.624V147.656V147.687V147.718V147.75V147.781V147.812V147.844V147.875V147.906V147.938V147.969V148V148.032V148.063V148.094V148.125V148.157V148.188V148.219V148.25V148.281V148.312V148.344V148.375V148.406V148.437V148.468V148.499V148.53V148.561V148.592V148.623V148.654V148.685V148.715V148.746V148.777V148.808V148.839V148.869V148.9V148.931V148.961V148.992V149.023V149.053V149.084V149.114V149.145V149.175V149.205V149.236V149.266V149.296V149.326V149.357V149.387V149.417V149.447V149.477V149.507V149.537V149.567V149.597V149.627V149.656V149.686V149.716V149.745V149.775V149.805V149.834V149.863V149.893V149.922V149.952V149.981V150.01V150.039V150.068V150.097V150.126V150.155V150.184V150.213V150.242V150.27V150.299V150.328V150.356V150.385V150.413V150.441V150.47V150.498V150.526V150.554V150.582V150.61V150.638V150.666V150.694V150.721V150.749V150.777V150.804V150.832V150.859V150.886V150.914V150.941V150.968V150.995V151.022V151.049V151.075V151.102V151.129V151.155V151.182V151.208V151.235V151.261V151.287V151.313V151.339V151.365V151.391V151.417V151.442V151.468V151.493V151.519V151.544V151.569V151.595V151.62V151.645V151.67V151.694V151.719V151.744V151.768V151.793V151.817V151.841V151.865V151.89V151.913V151.937V151.961V151.985V152.008V152.032V152.055V152.079V152.102V152.125V152.148V152.171V152.194V152.216V152.239V152.261V152.284V152.306V152.328V152.35V152.372V152.394V152.416V152.437V152.459V152.48V152.502V152.523V152.544V152.565V152.586V152.606V152.627V152.647V152.668V152.688V152.708V152.728V152.748V152.768V152.788V152.807V152.827V152.846V152.865V152.884V152.903V152.922V152.941V152.959V152.978V152.996V153.014V153.032V153.05V153.068V153.086V153.103V153.121V153.138V153.155V153.172V153.189V153.206V153.222V153.239V153.255V153.271V153.287V153.303V153.319V153.335V153.35V153.366V153.381V153.396V153.411V153.426V153.441V153.455V153.469V153.484V153.498V153.512V153.526V153.539V153.553V153.566V153.579V153.592V153.605V153.618V153.631V153.643V153.655V153.668V153.68V153.691V153.703V153.715V153.726V153.737V153.748V153.759V153.77V153.781V153.791V153.801V153.811V153.821V153.831V153.841V153.85V153.859V153.869V153.878V153.886V153.895V153.903V153.912V153.92V153.928V153.936V153.943V153.951V153.958V153.965V153.972V153.979V153.985V153.992V153.998V154.004V154.01V154.016V154.021V154.026V154.032V154.037V154.041V154.046V154.05V154.055V154.059V154.063V154.066V154.07V154.073V154.076V154.079V154.082V154.085V154.087V154.089V154.091V154.093V154.095V154.096V154.098V154.099V154.1V154.1V154.101V154.101L207 154.101L206.5 154.101V154.101V154.1V154.1V154.099V154.098V154.096V154.095V154.093V154.091V154.089V154.087V154.085V154.082V154.079V154.076V154.073V154.07V154.066V154.063V154.059V154.055V154.05V154.046V154.041V154.037V154.032V154.026V154.021V154.016V154.01V154.004V153.998V153.992V153.985V153.979V153.972V153.965V153.958V153.951V153.943V153.936V153.928V153.92V153.912V153.903V153.895V153.886V153.878V153.869V153.859V153.85V153.841V153.831V153.821V153.811V153.801V153.791V153.781V153.77V153.759V153.748V153.737V153.726V153.715V153.703V153.691V153.68V153.668V153.655V153.643V153.631V153.618V153.605V153.592V153.579V153.566V153.553V153.539V153.526V153.512V153.498V153.484V153.469V153.455V153.441V153.426V153.411V153.396V153.381V153.366V153.35V153.335V153.319V153.303V153.287V153.271V153.255V153.239V153.222V153.206V153.189V153.172V153.155V153.138V153.121V153.103V153.086V153.068V153.05V153.032V153.014V152.996V152.978V152.959V152.941V152.922V152.903V152.884V152.865V152.846V152.827V152.807V152.788V152.768V152.748V152.728V152.708V152.688V152.668V152.647V152.627V152.606V152.586V152.565V152.544V152.523V152.502V152.48V152.459V152.437V152.416V152.394V152.372V152.35V152.328V152.306V152.284V152.261V152.239V152.216V152.194V152.171V152.148V152.125V152.102V152.079V152.055V152.032V152.008V151.985V151.961V151.937V151.913V151.89V151.865V151.841V151.817V151.793V151.768V151.744V151.719V151.694V151.67V151.645V151.62V151.595V151.569V151.544V151.519V151.493V151.468V151.442V151.417V151.391V151.365V151.339V151.313V151.287V151.261V151.235V151.208V151.182V151.155V151.129V151.102V151.075V151.049V151.022V150.995V150.968V150.941V150.914V150.886V150.859V150.832V150.804V150.777V150.749V150.721V150.694V150.666V150.638V150.61V150.582V150.554V150.526V150.498V150.47V150.441V150.413V150.385V150.356V150.328V150.299V150.27V150.242V150.213V150.184V150.155V150.126V150.097V150.068V150.039V150.01V149.981V149.952V149.922V149.893V149.863V149.834V149.805V149.775V149.745V149.716V149.686V149.656V149.627V149.597V149.567V149.537V149.507V149.477V149.447V149.417V149.387V149.357V149.326V149.296V149.266V149.236V149.205V149.175V149.145V149.114V149.084V149.053V149.023V148.992V148.961V148.931V148.9V148.869V148.839V148.808V148.777V148.746V148.715V148.685V148.654V148.623V148.592V148.561V148.53V148.499V148.468V148.437V148.406V148.375V148.344V148.312V148.281V148.25V148.219V148.188V148.157V148.125V148.094V148.063V148.032V148V147.969V147.938V147.906V147.875V147.844V147.812V147.781V147.75V147.718V147.687V147.656V147.624V147.593V147.562V147.53V147.499V147.467V147.436V147.405V147.373V147.342V147.31V147.279V147.248V147.216V147.185V147.154V147.122V147.091V147.059V147.028V146.997V146.965V146.934V146.903V146.872V146.84V146.809V146.778V146.746V146.715V146.684V146.653V146.622V146.59V146.559V146.528V146.497V146.466V146.435V146.404V146.372V146.341V146.31V146.279V146.248V146.217V146.187V146.156V146.125V146.094V146.063V146.032V146.001V145.971V145.94V145.909V145.879V145.848V145.817V145.787V145.756V145.726V145.695V145.665V145.634V145.604V145.574V145.543V145.513V145.483V145.453V145.423V145.392V145.362V145.332V145.302V145.272V145.242V145.213V145.183V145.153V145.123V145.094V145.064V145.034V145.005V144.975V144.946V144.916V144.887V144.858V144.828V144.799V144.77V144.741V144.712V144.683V144.654V144.625V144.596V144.568V144.539V144.51V144.482V144.453V144.425V144.396V144.368V144.34V144.311V144.283V144.255V144.227V144.199V144.171V144.143V144.116V144.088V144.06V144.033V144.005V143.978V143.95V143.923V143.896V143.869V143.841V143.814V143.788V143.761V143.734V143.707V143.681V143.654V143.627V143.601V143.575V143.548V143.522V143.496V143.47V143.444V143.418V143.393V143.367V143.341V143.316V143.29V143.265V143.24V143.215V143.19V143.165V143.14V143.115V143.09V143.066V143.041V143.017V142.992V142.968V142.944V142.92V142.896V142.872V142.848V142.824V142.801V142.777V142.754V142.731V142.707V142.684V142.661V142.638V142.616V142.593V142.57V142.548V142.526V142.503V142.481V142.459V142.437V142.415V142.394V142.372V142.35V142.349C206.421 142.35 206.341 142.351 206.262 142.351C201.164 142.351 195.827 139.104 194.123 133.101L194.006 133.101C194.006 132.124 194.004 131.17 194.003 130.239C193.992 123.797 193.984 118.432 194.488 114.12C195.065 109.184 196.325 105.498 199.139 103.122L199.231 103.045L199.347 103.018L199.462 103.504C199.347 103.018 199.347 103.018 199.348 103.018L199.348 103.017L199.35 103.017L199.356 103.016L199.378 103.01L199.465 102.991C199.54 102.974 199.65 102.95 199.791 102.92C200.072 102.861 200.476 102.78 200.968 102.692C201.951 102.516 203.292 102.31 204.719 102.194C206.143 102.078 207.673 102.049 209.025 102.236ZM216.145 131.044C216.136 131.249 216.127 131.423 216.12 131.563L216.091 131.56C215.815 134.949 214.531 137.387 212.752 138.978C210.969 140.574 208.653 141.351 206.262 141.351C201.486 141.351 196.486 138.256 195.006 132.537C195.005 131.754 195.004 130.987 195.003 130.236C194.993 123.782 194.985 118.485 195.481 114.236C196.043 109.433 197.238 106.093 199.693 103.965C199.764 103.949 199.867 103.926 199.997 103.899C200.27 103.842 200.663 103.763 201.144 103.676C202.107 103.504 203.415 103.303 204.801 103.19C206.19 103.077 207.638 103.054 208.888 103.226C210.157 103.402 211.125 103.766 211.66 104.344C213.064 105.86 214.071 108.314 214.773 111.216C215.471 114.104 215.853 117.371 216.051 120.453C216.247 123.533 216.259 126.415 216.221 128.527C216.202 129.583 216.171 130.446 216.145 131.044Z" fill="black"/>
<path d="M205.569 101.014C202.954 101.014 200.477 100.177 198 98.1676V109.387C200.477 111.061 203.092 111.396 205.569 110.559C208.183 109.889 210.661 108.55 213 105.703V98C210.661 99.842 208.046 101.014 205.569 101.014Z" fill="#E3996D"/>
<path d="M226.051 132.778C226.051 132.778 227.002 138.144 227.07 140.793C227.07 142.423 227.07 145.004 227.07 145.004C227.07 145.004 228.225 145.004 228.972 144.868C229.651 144.732 230.262 144.597 230.262 144.597C230.262 144.597 229.583 142.151 228.768 139.842C228.021 137.6 226.051 132.778 226.051 132.778Z" fill="#4E53BA"/>
<path d="M184.278 132.371C184.278 132.371 182.987 136.106 182.376 138.552C182.104 139.842 182.036 141.133 182.036 142.423C181.9 143.103 181.085 145.344 180.746 146.295C180.61 146.635 180.27 146.771 180.067 146.771C179.591 146.635 178.776 146.499 178.164 146.295C177.214 145.955 176.534 145.684 176.806 145.82C177.078 145.955 178.912 142.899 180.27 140.454C181.357 138.212 184.278 132.371 184.278 132.371Z" fill="#4E53BA"/>
</g>
<path d="M136.391 20.4316H341.725C343.627 20.4316 345.121 21.926 345.121 23.8278V29.5334H133.063V23.8278C132.995 21.926 134.489 20.4316 136.391 20.4316Z" fill="#868AE0"/>
<path d="M106.233 150.031L105.553 149.895C103.787 149.556 102.157 150.506 101.478 152.137L96.5876 165.721C96.4518 165.993 96.4517 166.061 96.4517 166.333C98.0818 167.691 100.188 168.642 102.293 168.914C104.195 169.253 106.165 169.186 107.999 168.574C107.999 168.438 108.135 168.235 108.135 168.099L109.289 153.699C109.153 151.933 107.999 150.439 106.233 150.031Z" fill="#D7D7E6"/>
<path d="M106.504 129.382C106.844 128.77 107.523 128.567 108.135 128.906C108.406 129.042 108.474 129.178 108.61 129.382C109.289 130.876 110.376 132.778 111.055 134.001C112.414 137.125 112.957 140.657 112.346 143.985C111.531 146.566 110.376 149.012 108.746 151.049C108.61 151.321 108.406 151.389 108.135 151.525C106.98 151.865 105.825 151.865 104.67 151.661C102.429 151.049 102.089 149.691 102.089 149.691C101.41 147.042 101.07 144.325 101.07 141.676C101.342 139.027 102.225 136.446 103.652 134.136C104.738 132.506 105.689 131.012 106.504 129.382Z" fill="#C7645D"/>
<path d="M88.0976 220.536L96.3841 167.283C96.3841 167.012 96.5199 166.672 96.6557 166.468C99.7802 169.049 104.127 169.864 107.931 168.71C107.931 169.049 107.795 169.389 107.795 169.661L95.1616 222.098C94.822 224 92.9201 225.222 91.0861 224.747C89.1843 224.271 87.7579 222.37 88.0976 220.536Z" fill="#2B31BA"/>
<path d="M83.4671 124.748L66.7334 125.968L74.1069 227.115L90.8406 225.895L83.4671 124.748Z" fill="#DADAED"/>
<path d="M73.3411 139.149L67.6504 139.563L67.7343 140.715L73.4251 140.3L73.3411 139.149Z" fill="#989BD7"/>
<path d="M73.7255 150.965L68.0337 151.364L68.1143 152.516L73.8062 152.117L73.7255 150.965Z" fill="#989BD7"/>
<path d="M74.4736 162.381L68.7817 162.78L68.8624 163.932L74.5542 163.533L74.4736 162.381Z" fill="#989BD7"/>
<path d="M75.7869 173.113L70.0962 173.528L70.1801 174.68L75.8709 174.265L75.7869 173.113Z" fill="#989BD7"/>
<path d="M76.6014 184.388L70.9106 184.803L70.9946 185.954L76.6853 185.54L76.6014 184.388Z" fill="#989BD7"/>
<path d="M77.4124 195.732L71.7217 196.147L71.8056 197.299L77.4964 196.884L77.4124 195.732Z" fill="#989BD7"/>
<path d="M78.3634 207.007L72.6724 207.421L72.7563 208.573L78.4474 208.158L78.3634 207.007Z" fill="#989BD7"/>
<path d="M66.1769 159.334L55.5391 161.196L69.5326 241.148L80.1705 239.286L66.1769 159.334Z" fill="#FFADB2"/>
<path d="M66.2937 159.472L55.5615 161.306L57.192 146.023L59.5013 145.683L66.2937 159.472Z" fill="#EBDBCD"/>
<path d="M57.8713 153.087L59.4334 152.068L60.6559 152.136L62.2183 151.321L59.5014 145.683L57.192 146.023L56.6484 152.136L57.8713 153.087Z" fill="#FF7A82"/>
<path d="M58.8222 188H105.35C106.505 188 107.32 188.951 107.32 189.97C107.32 190.106 107.32 190.106 107.32 190.242L101.139 239.894C100.867 242.203 98.8974 243.969 96.5879 243.969H67.3127C65.0033 243.969 63.0333 242.203 62.7616 239.894L56.7165 190.242C56.5806 189.223 57.3958 188.136 58.4826 188C58.6184 188.068 58.6863 188.068 58.8222 188Z" fill="#FF7A82"/>
<path d="M5.56982 245.735H111.056C117.305 245.735 122.331 250.762 122.331 257.011V257.69C122.331 263.939 117.305 268.965 111.056 268.965H5.56982V245.735Z" fill="#F8E7D8"/>
<path d="M185.772 244.038H0.81522C0.339752 244.038 0 244.377 0 244.853C0 245.328 0.339752 245.668 0.81522 245.668H110.58C116.965 245.668 122.195 250.898 122.195 257.283C122.195 263.668 116.965 268.898 110.58 268.898H0.81522C0.339752 268.898 0 269.237 0 269.713C0 270.188 0.339752 270.528 0.81522 270.528H185.772C192.157 270.528 197.387 265.298 197.387 258.913V255.517C197.455 249.268 192.225 244.038 185.772 244.038Z" fill="#110580"/>
<path d="M89.9991 263.871H5.56982V262.852H89.9991C90.3388 262.852 90.6104 263.124 90.6104 263.463C90.5425 263.531 90.3388 263.871 89.9991 263.871Z" fill="#DEBCA7"/>
<path d="M99.1689 252.392H5.56982V251.373H99.1689C99.5085 251.373 99.7801 251.645 99.7801 251.984C99.7801 252.12 99.5085 252.392 99.1689 252.392Z" fill="#DEBCA7"/>
<path d="M109.493 257.826H5.56982V256.807H109.493C109.833 256.807 110.105 257.079 110.105 257.418C110.105 257.622 109.901 257.826 109.493 257.826Z" fill="#DEBCA7"/>
</svg>
