<svg width="42" height="43" viewBox="0 0 42 43" fill="none" xmlns="http://www.w3.org/2000/svg">
<path d="M41.3566 21.3783C41.3566 32.7785 32.3609 42.0013 21.2872 42.0013C10.2134 42.0013 1.21773 32.7785 1.21773 21.3783C1.21773 9.9781 10.2134 0.755298 21.2872 0.755298C32.3609 0.755298 41.3566 9.9781 41.3566 21.3783Z" fill="white" stroke="#4A7FE3" stroke-width="0.82389"/>
<path d="M32.9117 20.6563L33.5633 21.1606L34.0088 20.585L33.4925 20.0719L32.9117 20.6563ZM9.6626 21.4801H32.9117V19.8324H9.6626V21.4801ZM33.4925 20.0719L28.6489 15.2584L27.4874 16.4272L32.331 21.2406L33.4925 20.0719ZM32.2602 20.152L27.4166 26.4095L28.7197 27.4181L33.5633 21.1606L32.2602 20.152Z" fill="#306DDF"/>
</svg>
