<svg width="41" height="43" viewBox="0 0 41 43" fill="none" xmlns="http://www.w3.org/2000/svg">
<ellipse cx="20.4814" cy="21.3783" rx="20.4814" ry="21.0349" transform="rotate(180 20.4814 21.3783)" fill="white"/>
<path d="M0.411951 21.3783C0.41195 9.97815 9.40763 0.755347 20.4814 0.755346C31.5551 0.755345 40.5508 9.97815 40.5508 21.3783C40.5508 32.7785 31.5551 42.0013 20.4814 42.0013C9.40763 42.0013 0.411952 32.7785 0.411951 21.3783Z" stroke="black" stroke-opacity="0.29" stroke-width="0.82389"/>
<path d="M9.96394 22.1003L9.31242 21.596L8.86688 22.1716L9.38318 22.6847L9.96394 22.1003ZM33.2131 21.2764L9.96394 21.2764L9.96394 22.9242L33.2131 22.9242L33.2131 21.2764ZM9.38318 22.6847L14.2267 27.4982L15.3883 26.3294L10.5447 21.5159L9.38318 22.6847ZM10.6155 22.6046L15.459 16.3471L14.156 15.3385L9.31242 21.596L10.6155 22.6046Z" fill="black" fill-opacity="0.29"/>
</svg>
