<?xml version="1.0" encoding="utf-8"?>
<!-- Generator: Adobe Illustrator 24.1.3, SVG Export Plug-In . SVG Version: 6.00 Build 0)  -->
<svg version="1.1" id="Layer_1" xmlns="http://www.w3.org/2000/svg" xmlns:xlink="http://www.w3.org/1999/xlink" x="0px" y="0px"
	 viewBox="0 0 600 300" style="enable-background:new 0 0 600 300;" xml:space="preserve">
<style type="text/css">
	.st0{fill:#306CDF;}
	.st1{fill:#F66E67;}
	.st2{fill:#7064D0;}
	.st3{fill:#FFAE17;}
	.st4{fill:#48C795;}
	.st5{fill:#2C3C56;}
</style>
<circle class="st0" cx="55.63" cy="131.24" r="6.03"/>
<circle class="st0" cx="36.73" cy="131.24" r="6.03"/>
<circle class="st1" cx="150.13" cy="169.04" r="6.03"/>
<circle class="st1" cx="131.63" cy="169.04" r="6.03"/>
<circle class="st2" cx="74.53" cy="187.95" r="6.03"/>
<circle class="st2" cx="74.53" cy="206.85" r="6.03"/>
<circle class="st3" cx="112.33" cy="93.44" r="6.03"/>
<circle class="st3" cx="112.33" cy="112.34" r="6.03"/>
<circle class="st0" cx="74.93" cy="93.84" r="6.03"/>
<circle class="st1" cx="112.73" cy="206.85" r="6.03"/>
<circle class="st3" cx="149.73" cy="131.24" r="6.03"/>
<circle class="st2" cx="36.73" cy="169.04" r="6.03"/>
<path class="st4" d="M93.63,118.37L93.63,118.37c-3.22,0-5.83-2.61-5.83-5.83v-18.9c0-3.22,2.61-5.83,5.83-5.83h0
	c3.22,0,5.83,2.61,5.83,5.83v18.9C99.46,115.76,96.85,118.37,93.63,118.37z"/>
<path class="st3" d="M131.43,136.87L131.43,136.87c-3.22,0-5.83-2.61-5.83-5.83v-24.53c0-3.22,2.61-5.83,5.83-5.83h0
	c3.22,0,5.83,2.61,5.83,5.83v24.53C137.26,134.26,134.65,136.87,131.43,136.87z"/>
<path class="st2" d="M55.83,198.8L55.83,198.8c-3.22,0-5.83-2.61-5.83-5.83v-23.73c0-3.22,2.61-5.83,5.83-5.83h0
	c3.22,0,5.83,2.61,5.83,5.83v23.73C61.66,196.19,59.05,198.8,55.83,198.8z"/>
<path class="st0" d="M80.56,112.54L80.56,112.54c0,3.22-2.61,5.83-5.83,5.83H50.2c-3.22,0-5.83-2.61-5.83-5.83v0
	c0-3.22,2.61-5.83,5.83-5.83h24.53C77.95,106.71,80.56,109.32,80.56,112.54z"/>
<path class="st1" d="M142.49,188.15L142.49,188.15c0,3.22-2.61,5.83-5.83,5.83h-23.73c-3.22,0-5.83-2.61-5.83-5.83v0
	c0-3.22,2.61-5.83,5.83-5.83h23.73C139.88,182.32,142.49,184.93,142.49,188.15z"/>
<path class="st4" d="M93.63,212.88L93.63,212.88c-3.22,0-5.83-2.61-5.83-5.83v-19.3c0-3.22,2.61-5.83,5.83-5.83h0
	c3.22,0,5.83,2.61,5.83,5.83v19.3C99.46,210.27,96.85,212.88,93.63,212.88z"/>
<path class="st4" d="M62.06,150.75L62.06,150.75c0,3.22-2.61,5.83-5.83,5.83H36.12c-3.22,0-5.83-2.61-5.83-5.83v0
	c0-3.22,2.61-5.83,5.83-5.83h20.11C59.45,144.92,62.06,147.53,62.06,150.75z"/>
<path class="st4" d="M156.17,150.34L156.17,150.34c0,3.22-2.61,5.83-5.83,5.83h-19.3c-3.22,0-5.83-2.61-5.83-5.83l0,0
	c0-3.22,2.61-5.83,5.83-5.83h19.3C153.56,144.51,156.17,147.12,156.17,150.34z"/>
<g>
	<g>
		<path class="st5" d="M220.12,123.43c3.76,0,7.15,0.41,10.18,1.22c3.02,0.81,5.42,1.92,7.19,3.32c1.77,1.4,2.65,2.99,2.65,4.76
			c0,1.03-0.31,1.99-0.94,2.88c-0.63,0.88-1.53,1.33-2.71,1.33c-1.03,0-1.86-0.2-2.49-0.61c-0.63-0.4-1.22-0.88-1.77-1.44
			c-0.55-0.55-1.31-1.09-2.27-1.6c-0.88-0.44-2.18-0.83-3.87-1.16c-1.7-0.33-3.39-0.5-5.09-0.5c-3.98,0-7.52,0.96-10.62,2.88
			c-3.1,1.92-5.51,4.5-7.24,7.74c-1.73,3.25-2.6,6.93-2.6,11.06c0,4.13,0.85,7.82,2.54,11.06c1.7,3.25,4.05,5.83,7.08,7.74
			c3.02,1.92,6.52,2.88,10.51,2.88c2.51,0,4.53-0.22,6.08-0.66s2.84-0.96,3.87-1.55c1.33-0.74,2.34-1.47,3.04-2.21
			c0.7-0.74,1.64-1.11,2.82-1.11c1.33,0,2.32,0.41,2.99,1.22c0.66,0.81,1,1.81,1,2.99c0,1.4-0.92,2.84-2.77,4.31
			c-1.84,1.48-4.33,2.71-7.47,3.71c-3.13,1-6.69,1.49-10.67,1.49c-5.6,0-10.51-1.31-14.71-3.93c-4.2-2.62-7.47-6.19-9.79-10.73
			c-2.32-4.54-3.48-9.6-3.48-15.21c0-5.6,1.2-10.65,3.59-15.15c2.4-4.5,5.73-8.07,10.01-10.73
			C209.46,124.75,214.44,123.43,220.12,123.43z"/>
		<path class="st5" d="M261.81,177.51c0,1.25-0.44,2.32-1.33,3.21s-1.95,1.33-3.21,1.33c-1.25,0-2.31-0.44-3.15-1.33
			c-0.85-0.88-1.27-1.95-1.27-3.21v-72.77c0-1.25,0.44-2.32,1.33-3.21s1.95-1.33,3.21-1.33c1.33,0,2.4,0.44,3.21,1.33
			c0.81,0.88,1.22,1.95,1.22,3.21V177.51z"/>
		<path class="st5" d="M325.52,124.31c1.33,0,2.4,0.43,3.21,1.27c0.81,0.85,1.22,1.9,1.22,3.15v48.77c0,1.25-0.42,2.32-1.27,3.21
			s-1.9,1.33-3.15,1.33c-1.33,0-2.4-0.44-3.21-1.33c-0.81-0.88-1.22-1.95-1.22-3.21V167l2.1-0.22c0,1.7-0.55,3.48-1.66,5.36
			c-1.11,1.88-2.62,3.65-4.54,5.31c-1.92,1.66-4.19,3.02-6.8,4.09c-2.62,1.07-5.4,1.6-8.35,1.6c-5.09,0-9.62-1.31-13.6-3.93
			c-3.98-2.62-7.13-6.17-9.46-10.67c-2.32-4.5-3.48-9.62-3.48-15.37c0-5.82,1.16-10.97,3.48-15.43c2.32-4.46,5.47-7.96,9.46-10.51
			c3.98-2.54,8.41-3.82,13.27-3.82c3.17,0,6.12,0.52,8.85,1.55c2.73,1.03,5.1,2.43,7.13,4.2c2.03,1.77,3.61,3.72,4.76,5.86
			c1.14,2.14,1.71,4.28,1.71,6.42l-2.88-0.66v-12.06c0-1.25,0.4-2.3,1.22-3.15C323.12,124.74,324.19,124.31,325.52,124.31z
			 M302.73,174.97c3.69,0,6.95-0.96,9.79-2.88c2.84-1.92,5.05-4.52,6.63-7.8c1.59-3.28,2.38-6.99,2.38-11.12
			c0-4.05-0.79-7.7-2.38-10.95c-1.59-3.24-3.8-5.82-6.63-7.74c-2.84-1.92-6.1-2.88-9.79-2.88c-3.61,0-6.84,0.94-9.68,2.82
			c-2.84,1.88-5.07,4.44-6.69,7.69c-1.62,3.25-2.43,6.93-2.43,11.06c0,4.13,0.81,7.83,2.43,11.12c1.62,3.28,3.85,5.88,6.69,7.8
			C295.9,174.01,299.12,174.97,302.73,174.97z"/>
		<path class="st5" d="M350.73,182.04c-1.25,0-2.31-0.44-3.15-1.33c-0.85-0.88-1.27-1.95-1.27-3.21V129.4
			c0-1.33,0.42-2.41,1.27-3.26c0.85-0.85,1.9-1.27,3.15-1.27c1.33,0,2.39,0.42,3.21,1.27c0.81,0.85,1.22,1.94,1.22,3.26v14.49
			l-1.33-2.32c0.44-2.28,1.23-4.52,2.38-6.69c1.14-2.17,2.6-4.13,4.37-5.86c1.77-1.73,3.8-3.1,6.08-4.09c2.29-1,4.79-1.49,7.52-1.49
			c1.62,0,3.11,0.39,4.48,1.16c1.36,0.77,2.05,1.86,2.05,3.26c0,1.55-0.41,2.71-1.22,3.48c-0.81,0.77-1.73,1.16-2.76,1.16
			c-0.96,0-1.88-0.22-2.76-0.66s-1.99-0.66-3.32-0.66c-1.84,0-3.67,0.52-5.47,1.55c-1.81,1.03-3.47,2.45-4.98,4.26
			c-1.51,1.81-2.73,3.87-3.65,6.19c-0.92,2.32-1.38,4.81-1.38,7.47v26.88c0,1.25-0.42,2.32-1.27,3.21S351.99,182.04,350.73,182.04z"
			/>
		<path class="st5" d="M394.64,116.57c-1.84,0-3.21-0.37-4.09-1.11c-0.88-0.74-1.33-1.88-1.33-3.43v-1.55
			c0-1.55,0.48-2.69,1.44-3.43c0.96-0.74,2.32-1.11,4.09-1.11s3.1,0.37,3.98,1.11c0.88,0.74,1.33,1.88,1.33,3.43v1.55
			c0,1.55-0.46,2.69-1.38,3.43C397.75,116.2,396.41,116.57,394.64,116.57z M399.17,177.51c0,1.25-0.42,2.32-1.27,3.21
			c-0.85,0.88-1.9,1.33-3.15,1.33c-1.33,0-2.42-0.44-3.26-1.33c-0.85-0.88-1.27-1.95-1.27-3.21v-49c0-1.25,0.42-2.32,1.27-3.21
			c0.85-0.88,1.94-1.33,3.26-1.33c1.25,0,2.3,0.44,3.15,1.33c0.85,0.88,1.27,1.95,1.27,3.21V177.51z"/>
		<path class="st5" d="M411.78,172.97c-0.59-0.96-0.87-1.97-0.83-3.04c0.04-1.07,0.64-2.01,1.82-2.82c0.81-0.51,1.71-0.74,2.71-0.66
			c1,0.07,1.9,0.55,2.71,1.44c2.06,2.43,4.42,4.37,7.08,5.81c2.65,1.44,5.9,2.16,9.73,2.16c1.7-0.07,3.45-0.37,5.25-0.88
			c1.81-0.52,3.32-1.42,4.53-2.71c1.22-1.29,1.83-3,1.83-5.14c0-2.06-0.63-3.71-1.88-4.92c-1.25-1.22-2.89-2.21-4.92-2.99
			c-2.03-0.77-4.19-1.46-6.47-2.05c-2.43-0.66-4.83-1.4-7.19-2.21c-2.36-0.81-4.48-1.86-6.36-3.15c-1.88-1.29-3.39-2.91-4.53-4.87
			c-1.14-1.95-1.71-4.37-1.71-7.24c0-3.32,0.9-6.19,2.71-8.63c1.81-2.43,4.22-4.31,7.24-5.64c3.02-1.33,6.38-1.99,10.06-1.99
			c2.06,0,4.22,0.24,6.47,0.72c2.25,0.48,4.44,1.29,6.58,2.43c2.14,1.14,4.02,2.71,5.64,4.7c0.66,0.74,1.03,1.66,1.11,2.77
			c0.07,1.11-0.41,2.1-1.44,2.99c-0.81,0.59-1.71,0.87-2.71,0.83c-1-0.04-1.83-0.39-2.49-1.05c-1.62-1.92-3.59-3.37-5.92-4.37
			c-2.32-1-4.89-1.49-7.69-1.49c-1.7,0-3.39,0.28-5.09,0.83c-1.7,0.55-3.12,1.42-4.26,2.6c-1.14,1.18-1.71,2.84-1.71,4.98
			c0.07,1.99,0.74,3.61,1.99,4.87c1.25,1.25,2.95,2.27,5.09,3.04c2.14,0.77,4.5,1.53,7.08,2.27c2.36,0.59,4.63,1.27,6.8,2.05
			c2.17,0.77,4.15,1.79,5.92,3.04c1.77,1.25,3.17,2.86,4.2,4.81c1.03,1.95,1.55,4.41,1.55,7.35c0,3.39-0.96,6.32-2.88,8.79
			c-1.92,2.47-4.44,4.35-7.58,5.64c-3.13,1.29-6.51,1.94-10.12,1.94c-4.06,0-8.07-0.76-12.05-2.27
			C418.09,179.37,414.66,176.74,411.78,172.97z"/>
		<path class="st5" d="M464.21,172.97c-0.59-0.96-0.87-1.97-0.83-3.04c0.04-1.07,0.64-2.01,1.82-2.82c0.81-0.51,1.71-0.74,2.71-0.66
			c1,0.07,1.9,0.55,2.71,1.44c2.06,2.43,4.42,4.37,7.08,5.81c2.65,1.44,5.9,2.16,9.73,2.16c1.7-0.07,3.45-0.37,5.25-0.88
			c1.81-0.52,3.32-1.42,4.53-2.71c1.22-1.29,1.83-3,1.83-5.14c0-2.06-0.63-3.71-1.88-4.92c-1.25-1.22-2.89-2.21-4.92-2.99
			c-2.03-0.77-4.19-1.46-6.47-2.05c-2.43-0.66-4.83-1.4-7.19-2.21c-2.36-0.81-4.48-1.86-6.36-3.15c-1.88-1.29-3.39-2.91-4.53-4.87
			c-1.14-1.95-1.71-4.37-1.71-7.24c0-3.32,0.9-6.19,2.71-8.63c1.81-2.43,4.22-4.31,7.24-5.64c3.02-1.33,6.38-1.99,10.06-1.99
			c2.06,0,4.22,0.24,6.47,0.72c2.25,0.48,4.44,1.29,6.58,2.43c2.14,1.14,4.02,2.71,5.64,4.7c0.66,0.74,1.03,1.66,1.11,2.77
			c0.07,1.11-0.41,2.1-1.44,2.99c-0.81,0.59-1.71,0.87-2.71,0.83c-1-0.04-1.83-0.39-2.49-1.05c-1.62-1.92-3.59-3.37-5.92-4.37
			c-2.32-1-4.89-1.49-7.69-1.49c-1.7,0-3.39,0.28-5.09,0.83c-1.7,0.55-3.12,1.42-4.26,2.6c-1.14,1.18-1.71,2.84-1.71,4.98
			c0.07,1.99,0.74,3.61,1.99,4.87c1.25,1.25,2.95,2.27,5.09,3.04c2.14,0.77,4.5,1.53,7.08,2.27c2.36,0.59,4.63,1.27,6.8,2.05
			c2.17,0.77,4.15,1.79,5.92,3.04c1.77,1.25,3.17,2.86,4.2,4.81c1.03,1.95,1.55,4.41,1.55,7.35c0,3.39-0.96,6.32-2.88,8.79
			c-1.92,2.47-4.44,4.35-7.58,5.64c-3.13,1.29-6.51,1.94-10.12,1.94c-4.06,0-8.07-0.76-12.05-2.27
			C470.51,179.37,467.08,176.74,464.21,172.97z"/>
		<path class="st5" d="M566.51,124.31c1.33,0,2.4,0.43,3.21,1.27c0.81,0.85,1.22,1.9,1.22,3.15v48.77c0,1.25-0.42,2.32-1.27,3.21
			c-0.85,0.88-1.9,1.33-3.15,1.33c-1.33,0-2.4-0.44-3.21-1.33c-0.81-0.88-1.22-1.95-1.22-3.21V167l2.1-0.22
			c0,1.7-0.55,3.48-1.66,5.36c-1.11,1.88-2.62,3.65-4.53,5.31c-1.92,1.66-4.19,3.02-6.8,4.09c-2.62,1.07-5.4,1.6-8.35,1.6
			c-5.09,0-9.62-1.31-13.6-3.93c-3.98-2.62-7.13-6.17-9.46-10.67c-2.32-4.5-3.48-9.62-3.48-15.37c0-5.82,1.16-10.97,3.48-15.43
			c2.32-4.46,5.47-7.96,9.46-10.51c3.98-2.54,8.41-3.82,13.27-3.82c3.17,0,6.12,0.52,8.85,1.55c2.73,1.03,5.11,2.43,7.13,4.2
			c2.03,1.77,3.61,3.72,4.76,5.86c1.14,2.14,1.71,4.28,1.71,6.42l-2.88-0.66v-12.06c0-1.25,0.4-2.3,1.22-3.15
			C564.11,124.74,565.18,124.31,566.51,124.31z M543.73,174.97c3.69,0,6.95-0.96,9.79-2.88c2.84-1.92,5.05-4.52,6.64-7.8
			c1.58-3.28,2.38-6.99,2.38-11.12c0-4.05-0.79-7.7-2.38-10.95c-1.59-3.24-3.8-5.82-6.64-7.74c-2.84-1.92-6.1-2.88-9.79-2.88
			c-3.61,0-6.84,0.94-9.68,2.82c-2.84,1.88-5.07,4.44-6.69,7.69c-1.62,3.25-2.43,6.93-2.43,11.06c0,4.13,0.81,7.83,2.43,11.12
			c1.62,3.28,3.85,5.88,6.69,7.8C536.89,174.01,540.11,174.97,543.73,174.97z"/>
	</g>
</g>
</svg>
